<svg width="609" height="454" viewBox="0 0 609 454" fill="none" xmlns="http://www.w3.org/2000/svg">
<g clip-path="url(#clip0)">
<path d="M526.773 312.427C526.773 289.519 545.923 218.627 571.77 179.836" stroke="url(#paint0_linear)" stroke-width="6" stroke-linecap="round"/>
<path fill-rule="evenodd" clip-rule="evenodd" d="M559.801 190.622C559.801 190.622 560.887 179.217 555.131 169.247C549.374 159.276 542.132 152.68 538.954 154.515C535.777 156.349 537.868 165.919 543.624 175.89C549.381 185.861 559.801 190.622 559.801 190.622Z" fill="url(#paint1_linear)"/>
<path fill-rule="evenodd" clip-rule="evenodd" d="M566.421 194.566C566.421 194.566 575.98 200.879 587.487 200.478C598.993 200.076 608.216 196.777 608.088 193.111C607.96 189.444 598.529 186.797 587.023 187.199C575.517 187.601 566.421 194.566 566.421 194.566Z" fill="url(#paint2_linear)"/>
<path fill-rule="evenodd" clip-rule="evenodd" d="M554.042 223.713C554.042 223.713 563.257 230.518 574.769 230.719C586.28 230.92 595.664 228.109 595.728 224.441C595.792 220.772 586.512 217.635 575.001 217.435C563.489 217.234 554.042 223.713 554.042 223.713Z" fill="url(#paint3_linear)"/>
<path fill-rule="evenodd" clip-rule="evenodd" d="M543.961 253.037C543.961 253.037 553.177 259.842 564.689 260.043C576.2 260.244 585.584 257.433 585.648 253.764C585.712 250.096 576.432 246.959 564.921 246.758C553.409 246.557 543.961 253.037 543.961 253.037Z" fill="url(#paint4_linear)"/>
<path fill-rule="evenodd" clip-rule="evenodd" d="M573.959 175.469C573.959 175.469 584.614 171.259 590.884 161.604C597.155 151.948 599.743 142.5 596.666 140.502C593.589 138.504 586.011 144.711 579.741 154.367C573.471 164.023 573.959 175.469 573.959 175.469Z" fill="url(#paint5_linear)"/>
<path fill-rule="evenodd" clip-rule="evenodd" d="M546.574 220.29C546.574 220.29 545.464 208.888 537.911 200.199C530.358 191.51 521.99 186.417 519.221 188.824C516.452 191.232 520.33 200.227 527.883 208.916C535.437 217.605 546.574 220.29 546.574 220.29Z" fill="url(#paint6_linear)"/>
<path fill-rule="evenodd" clip-rule="evenodd" d="M535.772 250.846C535.772 250.846 533.477 239.622 525.057 231.77C516.636 223.918 507.782 219.728 505.28 222.412C502.778 225.095 507.575 233.635 515.995 241.487C524.415 249.339 535.772 250.846 535.772 250.846Z" fill="url(#paint7_linear)"/>
<g opacity="0.3">
<path fill-rule="evenodd" clip-rule="evenodd" d="M64.5483 326.182C59.8232 330.362 41.8537 322.003 34.7292 309.026C27.6047 296.05 40.8206 291.431 22.8445 270.678C4.86844 249.924 -6.66606 241.976 4.24294 207.767C15.1519 173.559 0.0812596 154.547 19.9943 145.622C39.9073 136.697 51.3752 166.318 49.0911 192.372C46.8069 218.427 51.4787 223.826 70.9563 221.127C90.4338 218.427 74.0124 256.677 74.0124 265.026C74.0124 273.375 85.8229 288.883 83.3728 300.55C80.9227 312.218 69.2734 322.003 64.5483 326.182Z" fill="url(#paint8_linear)"/>
<path d="M53.1724 289.81C56.6733 284.147 63.599 265.222 63.599 251.275" stroke="url(#paint9_linear)" stroke-width="6" stroke-linecap="round"/>
<path d="M39.4023 252.417C39.4023 246.009 21.4101 241.51 12.6025 229.351" stroke="url(#paint10_linear)" stroke-width="6" stroke-linecap="round"/>
<path d="M79.4003 383.45C78.2032 377.511 75.0707 354.211 65.9778 326.941C51.5902 283.792 29.2781 227.439 29.2781 189.388" stroke="url(#paint11_linear)" stroke-width="6" stroke-linecap="round"/>
</g>
<path opacity="0.084933" fill-rule="evenodd" clip-rule="evenodd" d="M518.311 316.131C540.705 316.131 558.859 315.105 558.859 313.84C558.859 312.575 540.705 311.549 518.311 311.549C495.918 311.549 477.764 312.575 477.764 313.84C477.764 315.105 495.918 316.131 518.311 316.131Z" fill="#8699BF"/>
<g opacity="0.3">
<path d="M523.296 313.832C528.606 297.492 531.319 242.467 521.794 208.782" stroke="url(#paint12_linear)" stroke-width="4.5" stroke-linecap="round"/>
<path fill-rule="evenodd" clip-rule="evenodd" d="M527.899 219.271C527.899 219.271 529.752 210.869 536.169 205.091C542.586 199.313 549.287 196.294 551.136 198.348C552.985 200.402 549.282 206.75 542.866 212.528C536.449 218.306 527.899 219.271 527.899 219.271Z" fill="url(#paint13_linear)"/>
<path fill-rule="evenodd" clip-rule="evenodd" d="M522.148 220.513C522.148 220.513 513.859 222.821 505.745 219.868C497.631 216.914 491.82 212.415 492.765 209.818C493.71 207.222 501.054 207.511 509.168 210.464C517.282 213.417 522.148 220.513 522.148 220.513Z" fill="url(#paint14_linear)"/>
<path fill-rule="evenodd" clip-rule="evenodd" d="M524.26 244.185C524.26 244.185 516.104 246.924 507.846 244.399C499.588 241.875 493.549 237.686 494.357 235.043C495.165 232.4 502.514 232.304 510.772 234.829C519.029 237.354 524.26 244.185 524.26 244.185Z" fill="url(#paint15_linear)"/>
<path fill-rule="evenodd" clip-rule="evenodd" d="M524.686 267.448C524.686 267.448 516.529 270.186 508.271 267.662C500.014 265.137 493.975 260.948 494.783 258.305C495.591 255.663 502.94 255.567 511.197 258.091C519.455 260.616 524.686 267.448 524.686 267.448Z" fill="url(#paint16_linear)"/>
<path fill-rule="evenodd" clip-rule="evenodd" d="M521.203 205.146C521.203 205.146 514.558 199.68 512.323 191.339C510.088 182.998 510.44 175.657 513.11 174.942C515.779 174.227 519.755 180.408 521.989 188.749C524.224 197.09 521.203 205.146 521.203 205.146Z" fill="url(#paint17_linear)"/>
<path fill-rule="evenodd" clip-rule="evenodd" d="M530.509 243.516C530.509 243.516 533.932 235.622 541.333 231.174C548.735 226.727 555.889 225.042 557.312 227.411C558.735 229.78 553.889 235.305 546.488 239.752C539.086 244.2 530.509 243.516 530.509 243.516Z" fill="url(#paint18_linear)"/>
<path fill-rule="evenodd" clip-rule="evenodd" d="M531.169 267.826C531.169 267.826 535.398 260.333 543.224 256.684C551.05 253.035 558.341 252.107 559.508 254.611C560.676 257.116 555.279 262.105 547.453 265.754C539.627 269.403 531.169 267.826 531.169 267.826Z" fill="url(#paint19_linear)"/>
</g>
<path fill-rule="evenodd" clip-rule="evenodd" d="M104.789 367.94C103.267 367.001 67.2576 351.278 70.5824 347.914C73.9073 344.551 90.1262 344.551 90.1262 344.551C90.1262 344.551 106.312 368.879 104.789 367.94Z" fill="url(#paint20_linear)" style="mix-blend-mode:multiply"/>
<g filter="url(#filter0_i)">
<path fill-rule="evenodd" clip-rule="evenodd" d="M100.944 340.949C88.1495 337.595 50.4063 321.378 61.4431 302.399C72.4799 283.419 83.5167 277.954 72.4799 269.28C61.4431 260.606 69.2844 241.314 80.1954 233.374C91.1065 225.434 65.268 201.78 77.1044 189.265C88.9407 176.75 126.777 196.082 127.653 219.747C128.529 243.411 137.332 241.773 141.806 252.458C146.28 263.142 115.288 279.18 119.817 290.79C124.346 302.399 150.762 314.506 135.289 330.145C119.817 345.785 113.739 344.304 100.944 340.949Z" fill="url(#paint21_radial)"/>
</g>
<path fill-rule="evenodd" clip-rule="evenodd" d="M104.347 365.75C105.84 338.989 78.2509 327.831 97.8741 290.159C117.497 252.487 103.862 219.96 97.8741 207.573" fill="black" fill-opacity="0.01"/>
<path d="M104.347 365.75C105.84 338.989 78.2509 327.831 97.8741 290.159C117.497 252.487 103.862 219.96 97.8741 207.573" stroke="url(#paint22_linear)" stroke-width="6" stroke-linecap="round" stroke-linejoin="round"/>
<g opacity="0.3">
<path fill-rule="evenodd" clip-rule="evenodd" d="M102.515 273.66C99.0945 272.032 92.8003 267.448 89.6861 260.373Z" fill="black" fill-opacity="0.01"/>
<path d="M102.515 273.66C99.0945 272.032 92.8003 267.448 89.6861 260.373" stroke="url(#paint23_linear)" stroke-width="5" stroke-linecap="round" stroke-linejoin="round"/>
</g>
<g opacity="0.3">
<path fill-rule="evenodd" clip-rule="evenodd" d="M91.9775 322.224C86.6636 320.025 75.7959 313.985 75.0255 304.814Z" fill="black" fill-opacity="0.01"/>
<path d="M91.9775 322.224C86.6636 320.025 75.7959 313.985 75.0255 304.814" stroke="url(#paint24_linear)" stroke-width="5" stroke-linecap="round" stroke-linejoin="round"/>
</g>
<g opacity="0.3">
<path fill-rule="evenodd" clip-rule="evenodd" d="M93.8092 299.775C98.5919 301.121 105.685 299.896 111.677 291.07Z" fill="black" fill-opacity="0.01"/>
<path d="M93.8092 299.775C98.5919 301.121 105.685 299.896 111.677 291.07" stroke="url(#paint25_linear)" stroke-width="5" stroke-linecap="round" stroke-linejoin="round"/>
</g>
<g opacity="0.3">
<path fill-rule="evenodd" clip-rule="evenodd" d="M107.096 231.509C110.212 229.052 116.272 219.348 115.801 210.892Z" fill="black" fill-opacity="0.01"/>
<path d="M107.096 231.509C110.212 229.052 116.272 219.348 115.801 210.892" stroke="url(#paint26_linear)" stroke-width="5" stroke-linecap="round" stroke-linejoin="round"/>
</g>
<g filter="url(#filter1_d)">
<rect x="268.843" width="190.595" height="273.064" rx="12" fill="white"/>
</g>
<g opacity="0.6">
<rect x="278.006" y="209.379" width="172.268" height="52.2303" rx="20" fill="url(#paint27_linear)"/>
<rect x="330.237" y="218.542" width="106.751" height="7.78873" rx="3.89436" fill="#A1B8E3"/>
<rect x="330.237" y="231.371" width="81.5525" height="7.78873" rx="3.89436" fill="#A1B8E3"/>
<rect opacity="0.5" x="330.237" y="246.948" width="30.2386" height="5.49792" rx="2.74896" fill="#A1B8E3"/>
</g>
<g opacity="0.6">
<rect x="278.006" y="146.153" width="172.268" height="52.2303" rx="20" fill="url(#paint28_linear)"/>
<rect x="330.237" y="155.316" width="106.751" height="7.78873" rx="3.89436" fill="#A1B8E3"/>
<rect x="330.237" y="168.145" width="81.5525" height="7.78873" rx="3.89436" fill="#A1B8E3"/>
<rect opacity="0.5" x="330.237" y="183.722" width="30.2386" height="5.49792" rx="2.74896" fill="#A1B8E3"/>
<rect x="293.746" y="173.867" width="17.1741" height="5.42341" rx="2.7117" fill="#A1B8E3"/>
<path d="M301.023 156.923C301.775 156.272 302.89 156.272 303.642 156.923L314.325 166.174C315.725 167.387 314.867 169.686 313.016 169.686H291.65C289.798 169.686 288.941 167.387 290.34 166.174L301.023 156.923Z" fill="#C7D4EE"/>
</g>
<g opacity="0.6">
<rect x="278.006" y="14.2028" width="172.268" height="52.2303" rx="20" fill="url(#paint29_linear)"/>
<rect x="330.237" y="23.366" width="106.751" height="7.78873" rx="3.89436" fill="#A1B8E3"/>
<rect x="330.237" y="36.1945" width="81.5525" height="7.78873" rx="3.89436" fill="#A1B8E3"/>
<rect opacity="0.5" x="330.237" y="51.7721" width="30.2386" height="5.49792" rx="2.74896" fill="#A1B8E3"/>
</g>
<g filter="url(#filter2_d)">
<rect x="250.517" y="76.0546" width="172.268" height="52.2303" rx="20" fill="url(#paint30_linear)"/>
<rect x="302.747" y="85.2178" width="106.751" height="7.78873" rx="3.89436" fill="#FFB417"/>
<rect x="302.747" y="98.0463" width="81.5525" height="7.78873" rx="3.89436" fill="#FFB417"/>
<rect opacity="0.5" x="302.747" y="113.624" width="30.2386" height="5.49792" rx="2.74896" fill="#FFB417"/>
</g>
<path opacity="0.5" fill-rule="evenodd" clip-rule="evenodd" d="M134.261 425.613L320.144 413.684V413.684C315.838 417.518 310.468 419.952 304.747 420.662L168.752 437.542" fill="url(#paint31_linear)"/>
<path opacity="0.5" fill-rule="evenodd" clip-rule="evenodd" d="M56.2139 407.62H239.633V407.62C236.491 410.562 232.392 412.27 228.091 412.432L100.765 417.216" fill="url(#paint32_linear)"/>
<path fill-rule="evenodd" clip-rule="evenodd" d="M192.376 210.992C192.376 219.179 185.633 235.223 194.426 239.383C203.22 243.542 210.997 221.938 210.997 221.938C210.997 221.938 210.326 206.074 202.376 206.074C194.426 206.074 192.376 202.804 192.376 210.992Z" fill="url(#paint33_linear)"/>
<mask id="mask0" mask-type="alpha" maskUnits="userSpaceOnUse" x="189" y="205" width="22" height="35">
<path fill-rule="evenodd" clip-rule="evenodd" d="M192.376 210.992C192.376 219.179 185.633 235.223 194.426 239.383C203.22 243.542 210.997 221.938 210.997 221.938C210.997 221.938 210.326 206.074 202.376 206.074C194.426 206.074 192.376 202.804 192.376 210.992Z" fill="white"/>
</mask>
<g mask="url(#mask0)">
<g opacity="0.5">
<path fill-rule="evenodd" clip-rule="evenodd" d="M191.87 214.658C192.579 216.099 202.243 223.722 203.841 225.525C205.439 227.328 205.804 232.039 206.722 231.553C207.639 231.066 206.722 217.245 206.722 217.245C206.722 217.245 191.161 213.217 191.87 214.658Z" fill="#3D82F0" style="mix-blend-mode:multiply"/>
</g>
</g>
<path fill-rule="evenodd" clip-rule="evenodd" d="M208.106 396.628C207.958 400.856 206.681 406.101 207.7 408.239C208.719 410.377 214.095 411.671 215.881 411.733C217.667 411.795 218.37 408.804 221.09 410.451C223.81 412.097 239.623 412.562 240.87 406.31C242.117 400.058 234.101 399.778 230.537 399.653C226.972 399.529 223.257 397.661 218.121 392.968C212.985 388.275 208.253 392.399 208.106 396.628Z" fill="url(#paint34_linear)"/>
<path d="M228.01 402.75C228.951 400.642 226.387 398.204 225.736 398.124" stroke="white" stroke-width="2" stroke-linecap="round"/>
<path d="M232.304 402.695C232.613 400.177 230.839 399.295 230.129 399.208" stroke="white" stroke-width="2" stroke-linecap="round"/>
<path fill-rule="evenodd" clip-rule="evenodd" d="M287.317 405.524C287.685 409.739 287.057 415.101 288.329 417.099C289.601 419.097 295.095 419.726 296.875 419.57C298.656 419.414 298.988 416.359 301.889 417.662C304.789 418.965 320.541 417.499 321.017 411.142C321.492 404.784 313.503 405.483 309.949 405.794C306.396 406.105 302.481 404.704 296.811 400.672C291.142 396.64 286.948 401.31 287.317 405.524Z" fill="url(#paint35_linear)"/>
<path d="M307.816 409.176C308.493 406.969 305.652 404.861 304.996 404.861" stroke="white" stroke-width="2" stroke-linecap="round"/>
<path d="M312.072 408.597C312.072 406.061 310.204 405.401 309.489 405.401" stroke="white" stroke-width="2" stroke-linecap="round"/>
<path fill-rule="evenodd" clip-rule="evenodd" d="M272.953 254.083C272.953 254.083 290.225 317.365 292.474 331.765C294.722 346.164 300.225 394.836 299.448 402.686C295.69 406.519 288.918 404.224 287.739 403.521C286.559 402.818 279.292 362.772 272.953 347.237C266.613 331.703 252.347 317.405 242.947 301.775C242.947 311.948 235.688 339.172 235.688 339.172C235.688 339.172 225.103 387.249 221.501 395.031C219.792 397.792 211.164 395.767 207.817 395.031C207.817 387.739 215.033 350.9 215.033 338.111C215.033 325.323 213.037 302.146 212.292 292.645C211.546 283.143 209.725 264.71 212.292 254.083C218.8 254.083 272.953 254.083 272.953 254.083Z" fill="url(#paint36_linear)"/>
<mask id="mask1" mask-type="alpha" maskUnits="userSpaceOnUse" x="207" y="254" width="93" height="151">
<path fill-rule="evenodd" clip-rule="evenodd" d="M272.953 254.083C272.953 254.083 290.225 317.365 292.474 331.765C294.722 346.164 300.225 394.836 299.448 402.686C295.69 406.519 288.918 404.224 287.739 403.521C286.559 402.818 279.292 362.772 272.953 347.237C266.613 331.703 252.347 317.405 242.947 301.775C242.947 311.948 235.688 339.172 235.688 339.172C235.688 339.172 225.103 387.249 221.501 395.031C219.792 397.792 211.164 395.767 207.817 395.031C207.817 387.739 215.033 350.9 215.033 338.111C215.033 325.323 213.037 302.146 212.292 292.645C211.546 283.143 209.725 264.71 212.292 254.083C218.8 254.083 272.953 254.083 272.953 254.083Z" fill="white"/>
</mask>
<g mask="url(#mask1)">
<g opacity="0.5">
<path fill-rule="evenodd" clip-rule="evenodd" d="M233.836 346.562C233.836 340.368 237.028 289.754 237.761 291.831C238.494 293.908 244.204 305.125 244.204 305.125C244.204 305.125 233.836 352.757 233.836 346.562Z" fill="#A1B8E3" style="mix-blend-mode:multiply"/>
</g>
<path d="M237.935 291.86C238.828 295.609 242.27 300.818 243.858 303.924" stroke="white" stroke-width="2" stroke-linecap="round"/>
<g opacity="0.5">
<path fill-rule="evenodd" clip-rule="evenodd" d="M216.288 264.655C220.326 266.827 236.137 276.069 256.509 272.365C266.575 270.535 273.051 268.14 275.955 264.655C275.955 262.939 273.514 255.719 272.832 252.956C272.15 250.194 211.344 261.996 216.288 264.655Z" fill="url(#paint37_linear)" style="mix-blend-mode:multiply"/>
</g>
</g>
<path fill-rule="evenodd" clip-rule="evenodd" d="M242.405 119.565C242.405 119.565 244.739 124.086 248.692 126.005C252.645 127.925 254.62 128.864 254.62 128.864L252.94 135.382C252.94 135.382 256.072 144.968 254.62 148.199C253.168 151.431 248.692 153.578 246.086 156.46C243.48 159.341 241.072 169.116 241.072 169.116H223.898L223.12 156.46C223.12 156.46 218.54 138.196 226.311 128.864C234.081 119.531 242.405 119.565 242.405 119.565Z" fill="url(#paint38_linear)"/>
<mask id="mask2" mask-type="alpha" maskUnits="userSpaceOnUse" x="221" y="119" width="35" height="51">
<path fill-rule="evenodd" clip-rule="evenodd" d="M242.405 119.565C242.405 119.565 244.739 124.086 248.692 126.005C252.645 127.925 254.62 128.864 254.62 128.864L252.94 135.382C252.94 135.382 256.072 144.968 254.62 148.199C253.168 151.431 248.692 153.578 246.086 156.46C243.48 159.341 241.072 169.116 241.072 169.116H223.898L223.12 156.46C223.12 156.46 218.54 138.196 226.311 128.864C234.081 119.531 242.405 119.565 242.405 119.565Z" fill="white"/>
</mask>
<g mask="url(#mask2)">
<g opacity="0.5">
<path fill-rule="evenodd" clip-rule="evenodd" d="M248.226 154.739C243.891 154.739 237.129 150.9 235.827 149.589C234.526 148.278 246.665 162.465 245.651 164.724C244.852 166.507 241.998 167.052 243.798 167.052C250.289 167.052 252.561 154.739 248.226 154.739Z" fill="#3D82F0" style="mix-blend-mode:multiply"/>
</g>
</g>
<path fill-rule="evenodd" clip-rule="evenodd" d="M223.122 155.926C207.98 141.773 195.991 129.695 206.331 112.864C216.671 96.0344 240.731 90.3767 245.229 110.835C245.229 119.613 238.747 124.303 238.747 124.303C238.747 124.303 237.535 126.77 240.731 129.387C243.928 132.005 240.731 134.168 240.731 134.168C240.731 134.168 234.419 130.108 232.77 135.515C231.122 140.921 237.207 142.857 237.207 144.21C239.304 149.184 234.976 153.733 234.976 153.733C234.976 153.733 232.76 155.926 223.122 155.926Z" fill="url(#paint39_linear)"/>
<path fill-rule="evenodd" clip-rule="evenodd" d="M207.504 175.017C207.504 175.017 191.294 203.452 189.339 209.709C187.383 215.966 207.504 219.585 207.504 219.585L215.9 183.816L207.504 175.017Z" fill="url(#paint40_linear)"/>
<path fill-rule="evenodd" clip-rule="evenodd" d="M242.52 165.229C242.52 165.229 254.728 168.45 261.922 176.963C269.116 185.476 267.513 211.088 269.55 226.331C271.588 241.575 280.454 252.655 266.759 261.257C253.065 269.86 214.346 267.906 211.18 261.257C208.013 254.608 204.404 213.743 204.404 213.743C204.404 213.743 204.404 176.963 208.729 173.863C213.054 170.762 223.151 164.77 223.151 164.77C223.151 164.77 222.925 165.682 227.795 166.586C232.665 167.489 242.52 165.229 242.52 165.229Z" fill="#D6E3FA"/>
<mask id="mask3" mask-type="alpha" maskUnits="userSpaceOnUse" x="204" y="164" width="71" height="103">
<path fill-rule="evenodd" clip-rule="evenodd" d="M242.52 165.229C242.52 165.229 254.728 168.45 261.922 176.963C269.116 185.476 267.513 211.088 269.55 226.331C271.588 241.575 280.454 252.655 266.759 261.257C253.065 269.86 214.346 267.906 211.18 261.257C208.013 254.608 204.404 213.743 204.404 213.743C204.404 213.743 204.404 176.963 208.729 173.863C213.054 170.762 223.151 164.77 223.151 164.77C223.151 164.77 222.925 165.682 227.795 166.586C232.665 167.489 242.52 165.229 242.52 165.229Z" fill="white"/>
</mask>
<g mask="url(#mask3)">
<path opacity="0.5" fill-rule="evenodd" clip-rule="evenodd" d="M252.659 194.324C252.659 194.324 259.244 225.104 263.206 230.873C267.169 236.642 269.745 254.1 272.917 256.182C276.089 258.264 280.645 234.449 278.367 226.295C276.089 218.141 265.82 198.169 265.82 198.169L252.659 194.324Z" fill="url(#paint41_linear)"/>
<path opacity="0.5" fill-rule="evenodd" clip-rule="evenodd" d="M226.05 166.879C228.98 168.823 236.617 169.875 243.035 169.875C249.454 169.875 251.462 169.943 254.533 169.008C257.604 168.074 256.413 166.879 254.533 166.879C252.653 166.879 246.82 165.508 243.681 165.508C240.542 165.508 223.119 164.935 226.05 166.879Z" fill="url(#paint42_linear)"/>
</g>
<path fill-rule="evenodd" clip-rule="evenodd" d="M222.594 165.228C222.594 165.228 222.217 160.52 222.217 159.002C222.217 157.483 234.862 159.628 243.961 160.479C244.949 164.266 244.774 164.517 244.774 165.228C244.774 165.584 242.501 168.631 230.275 167.643C225.812 167.282 222.594 165.228 222.594 165.228Z" fill="#E1ECFF"/>
<path fill-rule="evenodd" clip-rule="evenodd" d="M285.817 201.661C288.544 195.535 290.087 186.074 287.198 184.787C284.308 183.501 280.211 190.027 277.484 196.153C274.756 202.278 276.451 206.246 278.123 207.898C279.998 208.286 283.09 207.787 285.817 201.661Z" fill="#A1B8E3"/>
<path fill-rule="evenodd" clip-rule="evenodd" d="M282.599 183.35L295.386 188.614C295.386 188.614 306.727 158.353 307.415 154.425C308.103 150.498 305.054 144.956 304.562 142.98C304.069 141.004 304.149 136.354 305.525 134.652C306.902 132.951 307.265 133.558 308.294 133.302C309.322 133.046 315.425 119.957 316.117 118.313C316.809 116.669 318.043 115.637 319.298 116.185C320.553 116.733 320.436 118.195 319.94 119.489C319.444 120.783 316.661 128.043 316.976 129.307C317.291 130.57 322.194 132.205 323.562 133.044C324.93 133.884 327.26 136.643 326.096 140.635C324.931 144.627 319.556 151.864 319.94 153.403C320.324 154.942 314.897 181.023 313.17 191.454C311.443 201.884 309.185 209.2 300.368 208.596C291.552 207.992 273.28 198.189 273.28 198.189C273.28 198.189 274.475 190.573 276.758 187.7C279.04 184.827 282.599 183.35 282.599 183.35Z" fill="url(#paint43_linear)"/>
<mask id="mask4" mask-type="alpha" maskUnits="userSpaceOnUse" x="256" y="115" width="86" height="100">
<path fill-rule="evenodd" clip-rule="evenodd" d="M282.599 183.35L295.386 188.614C295.386 188.614 306.727 158.353 307.415 154.425C308.103 150.498 305.054 144.956 304.562 142.98C304.069 141.004 304.149 136.354 305.525 134.652C306.902 132.951 307.265 133.558 308.294 133.302C309.322 133.046 315.425 119.957 316.117 118.313C316.809 116.669 318.043 115.637 319.298 116.185C320.553 116.733 320.436 118.195 319.94 119.489C319.444 120.783 316.661 128.043 316.976 129.307C317.291 130.57 322.194 132.205 323.562 133.044C324.93 133.884 327.26 136.643 326.096 140.635C324.931 144.627 319.556 151.864 319.94 153.403C320.324 154.942 314.897 181.023 313.17 191.454C311.443 201.884 309.185 209.2 300.368 208.596C291.552 207.992 273.28 198.189 273.28 198.189C273.28 198.189 274.475 190.573 276.758 187.7C279.04 184.827 282.599 183.35 282.599 183.35Z" fill="white"/>
</mask>
<g mask="url(#mask4)">
<g opacity="0.5">
<path fill-rule="evenodd" clip-rule="evenodd" d="M286.797 184.751C286.797 184.751 284.086 200.605 285.787 205.27C287.488 209.934 278.161 203.352 278.161 203.352C278.161 203.352 278.342 196.558 279.776 193.471C281.209 190.383 286.797 184.751 286.797 184.751Z" fill="#3D82F0" style="mix-blend-mode:multiply"/>
</g>
<path d="M295.118 188.237C295.838 188.568 297.203 189.082 298.426 190.777" stroke="#223762" stroke-width="2" stroke-linecap="round"/>
</g>
<path fill-rule="evenodd" clip-rule="evenodd" d="M278.009 207.851C279.449 200.645 281.524 190.728 287.29 184.793C266.714 175.92 260.23 172.775 253.761 170.011C247.293 167.248 241.406 185.45 253.761 194.504C266.117 203.558 274.575 206.335 278.009 207.851Z" fill="url(#paint44_linear)"/>
<path d="M359.287 434.375H558.187V434.375C558.187 441.208 552.648 446.748 545.815 446.748H371.66C364.827 446.748 359.287 441.208 359.287 434.375V434.375Z" fill="#CAD7F1"/>
<path fill-rule="evenodd" clip-rule="evenodd" d="M382.72 396.225H535.65C540.678 396.225 546.039 399.618 547.626 403.804L558.252 431.843C559.838 436.029 556.269 439.422 550.28 439.422H368.091C362.102 439.422 358.532 436.029 360.118 431.843L370.745 403.804C372.331 399.618 377.693 396.225 382.72 396.225Z" fill="#EBF1FD"/>
<mask id="mask5" mask-type="alpha" maskUnits="userSpaceOnUse" x="359" y="396" width="200" height="44">
<path fill-rule="evenodd" clip-rule="evenodd" d="M382.72 396.225H535.65C540.678 396.225 546.039 399.618 547.626 403.804L558.252 431.843C559.838 436.029 556.269 439.422 550.28 439.422H368.091C362.102 439.422 358.532 436.029 360.118 431.843L370.745 403.804C372.331 399.618 377.693 396.225 382.72 396.225Z" fill="white"/>
</mask>
<g mask="url(#mask5)">
<path fill-rule="evenodd" clip-rule="evenodd" d="M428.425 403.958H530.038C532.246 403.958 534.498 405.4 535.069 407.179C535.639 408.958 534.261 410.4 531.992 410.4H427.575C425.306 410.4 423.681 408.958 423.946 407.179C424.212 405.4 426.217 403.958 428.425 403.958Z" fill="#CAD7F1"/>
<path fill-rule="evenodd" clip-rule="evenodd" d="M426.786 414.785H505.968C508.277 414.785 510.451 416.227 510.824 418.005C511.196 419.784 509.578 421.226 507.208 421.226H425.935C423.565 421.226 421.86 419.784 422.125 418.005C422.39 416.227 424.477 414.785 426.786 414.785Z" fill="#CAD7F1"/>
<path opacity="0.5" fill-rule="evenodd" clip-rule="evenodd" d="M424.197 427.673H452.157C453.873 427.673 455.247 428.691 455.227 429.946C455.207 431.202 453.775 432.22 452.029 432.22H423.573C421.827 432.22 420.564 431.202 420.751 429.946C420.938 428.691 422.481 427.673 424.197 427.673Z" fill="#CAD7F1"/>
</g>
<g filter="url(#filter3_d)">
<path d="M352.018 417.005L550.888 420.476V420.476C550.769 427.309 545.134 432.751 538.301 432.631L364.173 429.592C357.341 429.473 351.899 423.837 352.018 417.005V417.005Z" fill="#CAD7F1"/>
<path fill-rule="evenodd" clip-rule="evenodd" d="M376.114 379.271L529.021 381.94C534.047 382.027 539.349 385.513 540.862 389.726L550.997 417.947C552.51 422.159 548.882 425.489 542.894 425.385L360.733 422.205C354.744 422.1 351.235 418.646 352.894 414.489L364.008 386.639C365.667 382.482 371.087 379.183 376.114 379.271Z" fill="#EBF1FD"/>
<mask id="mask6" mask-type="alpha" maskUnits="userSpaceOnUse" x="352" y="378" width="200" height="48">
<path fill-rule="evenodd" clip-rule="evenodd" d="M376.114 379.271L529.021 381.94C534.047 382.027 539.349 385.513 540.862 389.726L550.997 417.947C552.51 422.159 548.882 425.489 542.894 425.385L360.733 422.205C354.744 422.1 351.235 418.646 352.894 414.489L364.008 386.639C365.667 382.482 371.087 379.183 376.114 379.271Z" fill="white"/>
</mask>
<g mask="url(#mask6)">
<path fill-rule="evenodd" clip-rule="evenodd" d="M382.197 416.882C394.507 417.097 405.888 410.169 407.618 401.409C409.348 392.649 401.978 385.394 391.156 385.205C380.335 385.016 368.953 391.943 365.735 400.678C362.517 409.412 369.887 416.667 382.197 416.882Z" fill="#CAD7F1"/>
<path fill-rule="evenodd" clip-rule="evenodd" d="M421.677 387.8L523.273 389.573C525.481 389.612 527.708 391.093 528.247 392.882C528.786 394.67 527.384 396.088 525.115 396.048L420.714 394.226C418.445 394.186 416.846 392.716 417.142 390.942C417.438 389.168 419.469 387.762 421.677 387.8Z" fill="#CAD7F1"/>
<path fill-rule="evenodd" clip-rule="evenodd" d="M419.849 398.596L499.019 399.978C501.327 400.018 503.475 401.498 503.817 403.283C504.159 405.068 502.515 406.482 500.146 406.44L418.886 405.022C416.516 404.98 414.836 403.509 415.132 401.735C415.428 399.961 417.54 398.556 419.849 398.596Z" fill="#CAD7F1"/>
<path opacity="0.5" fill-rule="evenodd" clip-rule="evenodd" d="M417.034 411.437L444.99 411.925C446.706 411.955 448.062 412.997 448.02 414.252C447.978 415.507 446.528 416.5 444.783 416.469L416.331 415.973C414.586 415.942 413.34 414.902 413.549 413.65C413.758 412.398 415.319 411.407 417.034 411.437Z" fill="#CAD7F1"/>
</g>
</g>
<g filter="url(#filter4_d)">
<path d="M363.655 405.802L562.434 398.861V398.861C562.672 405.69 557.33 411.42 550.501 411.658L376.452 417.736C369.623 417.974 363.893 412.632 363.655 405.802V405.802Z" fill="#CAD7F1"/>
<path fill-rule="evenodd" clip-rule="evenodd" d="M385.742 366.858L538.579 361.521C543.604 361.346 549.08 364.55 550.812 368.677L562.411 396.329C564.142 400.456 560.693 403.972 554.707 404.181L372.629 410.539C366.644 410.748 362.958 407.482 364.397 403.243L374.039 374.85C375.478 370.612 380.718 367.034 385.742 366.858Z" fill="#EBF1FD"/>
<mask id="mask7" mask-type="alpha" maskUnits="userSpaceOnUse" x="362" y="360" width="202" height="51">
<path fill-rule="evenodd" clip-rule="evenodd" d="M385.742 366.858L538.579 361.521C543.604 361.346 549.08 364.55 550.812 368.677L562.411 396.329C564.142 400.456 560.693 403.972 554.707 404.181L372.629 410.539C366.644 410.748 362.958 407.482 364.397 403.243L374.039 374.85C375.478 370.612 380.718 367.034 385.742 366.858Z" fill="white"/>
</mask>
<g mask="url(#mask7)">
<path fill-rule="evenodd" clip-rule="evenodd" d="M431.689 372.992L533.239 369.446C535.446 369.368 537.748 370.731 538.379 372.489C539.011 374.247 537.685 375.736 535.417 375.815L431.064 379.459C428.796 379.538 427.122 378.154 427.325 376.367C427.528 374.58 429.482 373.069 431.689 372.992Z" fill="#CAD7F1"/>
<path fill-rule="evenodd" clip-rule="evenodd" d="M430.428 383.868L509.562 381.105C511.87 381.025 514.093 382.39 514.527 384.154C514.962 385.919 513.395 387.417 511.026 387.499L429.803 390.336C427.435 390.418 425.68 389.037 425.883 387.25C426.086 385.463 428.121 383.949 430.428 383.868Z" fill="#CAD7F1"/>
<path opacity="0.5" fill-rule="evenodd" clip-rule="evenodd" d="M428.29 396.839L456.234 395.863C457.948 395.803 459.358 396.773 459.381 398.028C459.405 399.284 458.009 400.351 456.264 400.412L427.826 401.405C426.081 401.466 424.782 400.493 424.926 399.232C425.069 397.97 426.576 396.899 428.29 396.839Z" fill="#CAD7F1"/>
</g>
</g>
<path d="M345.355 387.519H544.178V387.519C544.178 394.398 538.602 399.974 531.723 399.974H357.809C350.931 399.974 345.355 394.398 345.355 387.519V387.519Z" fill="#C6D5EF"/>
<path fill-rule="evenodd" clip-rule="evenodd" d="M368.779 349.118H521.65C526.675 349.118 532.035 352.533 533.62 356.746L544.243 384.971C545.828 389.184 542.26 392.6 536.273 392.6H354.155C348.168 392.6 344.6 389.184 346.186 384.971L356.809 356.746C358.394 352.533 363.754 349.118 368.779 349.118Z" fill="#EBF1FD"/>
<mask id="mask8" mask-type="alpha" maskUnits="userSpaceOnUse" x="345" y="349" width="200" height="44">
<path fill-rule="evenodd" clip-rule="evenodd" d="M368.779 349.118H521.65C526.675 349.118 532.035 352.533 533.62 356.746L544.243 384.971C545.828 389.184 542.26 392.6 536.273 392.6H354.155C348.168 392.6 344.6 389.184 346.186 384.971L356.809 356.746C358.394 352.533 363.754 349.118 368.779 349.118Z" fill="white"/>
</mask>
<g mask="url(#mask8)">
<path opacity="0.5" fill-rule="evenodd" clip-rule="evenodd" d="M414.467 356.902H516.039C518.247 356.902 520.498 358.353 521.068 360.144C521.638 361.935 520.261 363.386 517.993 363.386H413.616C411.348 363.386 409.724 361.935 409.989 360.144C410.255 358.353 412.259 356.902 414.467 356.902Z" fill="#AABFE5"/>
<path opacity="0.5" fill-rule="evenodd" clip-rule="evenodd" d="M412.827 367.8H491.979C494.287 367.8 496.46 369.251 496.832 371.042C497.205 372.832 495.587 374.284 493.218 374.284H411.977C409.608 374.284 407.903 372.832 408.168 371.042C408.434 369.251 410.519 367.8 412.827 367.8Z" fill="#AABFE5"/>
<path opacity="0.3" fill-rule="evenodd" clip-rule="evenodd" d="M410.239 380.773H438.189C439.904 380.773 441.278 381.798 441.258 383.062C441.237 384.326 439.806 385.35 438.061 385.35H409.616C407.871 385.35 406.608 384.326 406.795 383.062C406.982 381.798 408.524 380.773 410.239 380.773Z" fill="#A1B8E3"/>
</g>
<rect x="293.744" y="45.5126" width="17.1741" height="5.42341" rx="2.7117" fill="#A1B8E3"/>
<path d="M301.022 28.5685C301.773 27.9177 302.889 27.9177 303.641 28.5685L314.324 37.8203C315.723 39.0325 314.866 41.3321 313.014 41.3321H291.648C289.797 41.3321 288.939 39.0325 290.339 37.8203L301.022 28.5685Z" fill="#C7D4EE"/>
<rect x="269.339" y="106.978" width="17.1741" height="5.42341" rx="2.7117" fill="#FFB417"/>
<path d="M276.617 90.0338C277.369 89.3829 278.484 89.3829 279.236 90.0338L289.919 99.2855C291.319 100.498 290.461 102.797 288.609 102.797H267.243C265.392 102.797 264.534 100.498 265.934 99.2855L276.617 90.0338Z" fill="#FFBD34"/>
<rect x="293.744" y="240.755" width="17.1741" height="5.42341" rx="2.7117" fill="#A1B8E3"/>
<path d="M301.022 223.811C301.773 223.16 302.889 223.16 303.641 223.811L314.324 233.063C315.723 234.275 314.866 236.575 313.014 236.575H291.648C289.797 236.575 288.939 234.275 290.339 233.063L301.022 223.811Z" fill="#C7D4EE"/>
<rect x="369.909" y="376.186" width="17.1741" height="5.42341" rx="2.71171" transform="rotate(0.558049 369.909 376.186)" fill="#A1B8E3"/>
<path d="M377.351 359.314C378.109 358.67 379.224 358.681 379.969 359.339L390.562 368.694C391.95 369.92 391.07 372.211 389.218 372.193L367.853 371.985C366.002 371.967 365.167 369.659 366.578 368.461L377.351 359.314Z" fill="#C7D4EE"/>
</g>
<defs>
<filter id="filter0_i" x="51.4468" y="179.335" width="90.802" height="163.797" filterUnits="userSpaceOnUse" color-interpolation-filters="sRGB">
<feFlood flood-opacity="0" result="BackgroundImageFix"/>
<feBlend mode="normal" in="SourceGraphic" in2="BackgroundImageFix" result="shape"/>
<feColorMatrix in="SourceAlpha" type="matrix" values="0 0 0 0 0 0 0 0 0 0 0 0 0 0 0 0 0 0 127 0" result="hardAlpha"/>
<feOffset dx="-8" dy="-6"/>
<feGaussianBlur stdDeviation="15"/>
<feComposite in2="hardAlpha" operator="arithmetic" k2="-1" k3="1"/>
<feColorMatrix type="matrix" values="0 0 0 0 0.269084 0 0 0 0 0.79451 0 0 0 0 0.470313 0 0 0 0.5 0"/>
<feBlend mode="normal" in2="shape" result="effect1_innerShadow"/>
</filter>
<filter id="filter1_d" x="106.843" y="-162" width="514.595" height="597.064" filterUnits="userSpaceOnUse" color-interpolation-filters="sRGB">
<feFlood flood-opacity="0" result="BackgroundImageFix"/>
<feColorMatrix in="SourceAlpha" type="matrix" values="0 0 0 0 0 0 0 0 0 0 0 0 0 0 0 0 0 0 127 0"/>
<feOffset/>
<feGaussianBlur stdDeviation="81"/>
<feColorMatrix type="matrix" values="0 0 0 0 1 0 0 0 0 1 0 0 0 0 1 0 0 0 1 0"/>
<feBlend mode="normal" in2="BackgroundImageFix" result="effect1_dropShadow"/>
<feBlend mode="normal" in="SourceGraphic" in2="effect1_dropShadow" result="shape"/>
</filter>
<filter id="filter2_d" x="250.517" y="76.0546" width="189.268" height="69.2303" filterUnits="userSpaceOnUse" color-interpolation-filters="sRGB">
<feFlood flood-opacity="0" result="BackgroundImageFix"/>
<feColorMatrix in="SourceAlpha" type="matrix" values="0 0 0 0 0 0 0 0 0 0 0 0 0 0 0 0 0 0 127 0"/>
<feOffset dx="17" dy="17"/>
<feColorMatrix type="matrix" values="0 0 0 0 1 0 0 0 0 0.706613 0 0 0 0 0.0893703 0 0 0 0.173347 0"/>
<feBlend mode="normal" in2="BackgroundImageFix" result="effect1_dropShadow"/>
<feBlend mode="normal" in="SourceGraphic" in2="effect1_dropShadow" result="shape"/>
</filter>
<filter id="filter3_d" x="328.802" y="368.87" width="234.193" height="87.9777" filterUnits="userSpaceOnUse" color-interpolation-filters="sRGB">
<feFlood flood-opacity="0" result="BackgroundImageFix"/>
<feColorMatrix in="SourceAlpha" type="matrix" values="0 0 0 0 0 0 0 0 0 0 0 0 0 0 0 0 0 0 127 0"/>
<feOffset dx="-6" dy="7"/>
<feGaussianBlur stdDeviation="8.5"/>
<feColorMatrix type="matrix" values="0 0 0 0 0.260846 0 0 0 0 0.436705 0 0 0 0 0.80195 0 0 0 0.186 0"/>
<feBlend mode="normal" in2="BackgroundImageFix" result="effect1_dropShadow"/>
<feBlend mode="normal" in="SourceGraphic" in2="effect1_dropShadow" result="shape"/>
</filter>
<filter id="filter4_d" x="339.778" y="350.719" width="234.274" height="91.4484" filterUnits="userSpaceOnUse" color-interpolation-filters="sRGB">
<feFlood flood-opacity="0" result="BackgroundImageFix"/>
<feColorMatrix in="SourceAlpha" type="matrix" values="0 0 0 0 0 0 0 0 0 0 0 0 0 0 0 0 0 0 127 0"/>
<feOffset dx="-6" dy="7"/>
<feGaussianBlur stdDeviation="8.5"/>
<feColorMatrix type="matrix" values="0 0 0 0 0.260846 0 0 0 0 0.436705 0 0 0 0 0.80195 0 0 0 0.186 0"/>
<feBlend mode="normal" in2="BackgroundImageFix" result="effect1_dropShadow"/>
<feBlend mode="normal" in="SourceGraphic" in2="effect1_dropShadow" result="shape"/>
</filter>
<linearGradient id="paint0_linear" x1="526.773" y1="179.836" x2="526.773" y2="312.427" gradientUnits="userSpaceOnUse">
<stop stop-color="#CFDDF3"/>
<stop offset="1" stop-color="#A1B8E3"/>
</linearGradient>
<linearGradient id="paint1_linear" x1="527.075" y1="104.051" x2="501.295" y2="128.223" gradientUnits="userSpaceOnUse">
<stop stop-color="#CFDDF3"/>
<stop offset="1" stop-color="#A1B8E3"/>
</linearGradient>
<linearGradient id="paint2_linear" x1="658.222" y1="206.313" x2="648.982" y2="172.202" gradientUnits="userSpaceOnUse">
<stop stop-color="#CFDDF3"/>
<stop offset="1" stop-color="#A1B8E3"/>
</linearGradient>
<linearGradient id="paint3_linear" x1="645.102" y1="240.248" x2="637.66" y2="205.701" gradientUnits="userSpaceOnUse">
<stop stop-color="#CFDDF3"/>
<stop offset="1" stop-color="#A1B8E3"/>
</linearGradient>
<linearGradient id="paint4_linear" x1="635.022" y1="269.572" x2="627.58" y2="235.025" gradientUnits="userSpaceOnUse">
<stop stop-color="#CFDDF3"/>
<stop offset="1" stop-color="#A1B8E3"/>
</linearGradient>
<linearGradient id="paint5_linear" x1="636.236" y1="107.008" x2="602.995" y2="95.0111" gradientUnits="userSpaceOnUse">
<stop stop-color="#CFDDF3"/>
<stop offset="1" stop-color="#A1B8E3"/>
</linearGradient>
<linearGradient id="paint6_linear" x1="497.931" y1="141.555" x2="477.236" y2="170.202" gradientUnits="userSpaceOnUse">
<stop stop-color="#CFDDF3"/>
<stop offset="1" stop-color="#A1B8E3"/>
</linearGradient>
<linearGradient id="paint7_linear" x1="479.165" y1="177.626" x2="461.579" y2="208.279" gradientUnits="userSpaceOnUse">
<stop stop-color="#CFDDF3"/>
<stop offset="1" stop-color="#A1B8E3"/>
</linearGradient>
<linearGradient id="paint8_linear" x1="-8.72587" y1="200.108" x2="105.755" y2="255.37" gradientUnits="userSpaceOnUse">
<stop stop-color="#CFDDF3"/>
<stop offset="1" stop-color="#7FA1E0"/>
</linearGradient>
<linearGradient id="paint9_linear" x1="53.1724" y1="251.275" x2="53.1724" y2="289.81" gradientUnits="userSpaceOnUse">
<stop stop-color="#CFDDF3"/>
<stop offset="1" stop-color="#A1B8E3"/>
</linearGradient>
<linearGradient id="paint10_linear" x1="39.4023" y1="229.351" x2="39.4023" y2="252.417" gradientUnits="userSpaceOnUse">
<stop stop-color="#CFDDF3"/>
<stop offset="1" stop-color="#A1B8E3"/>
</linearGradient>
<linearGradient id="paint11_linear" x1="29.2781" y1="189.388" x2="29.2781" y2="383.45" gradientUnits="userSpaceOnUse">
<stop stop-color="#CFDDF3"/>
<stop offset="1" stop-color="#A1B8E3"/>
</linearGradient>
<linearGradient id="paint12_linear" x1="554.026" y1="219.255" x2="523.296" y2="313.832" gradientUnits="userSpaceOnUse">
<stop stop-color="#CFDDF3"/>
<stop offset="1" stop-color="#A1B8E3"/>
</linearGradient>
<linearGradient id="paint13_linear" x1="571.273" y1="165.071" x2="584.09" y2="188.393" gradientUnits="userSpaceOnUse">
<stop stop-color="#CFDDF3"/>
<stop offset="1" stop-color="#A1B8E3"/>
</linearGradient>
<linearGradient id="paint14_linear" x1="453.929" y1="207.661" x2="468.504" y2="185.396" gradientUnits="userSpaceOnUse">
<stop stop-color="#CFDDF3"/>
<stop offset="1" stop-color="#A1B8E3"/>
</linearGradient>
<linearGradient id="paint15_linear" x1="455.462" y1="234.921" x2="468.852" y2="211.924" gradientUnits="userSpaceOnUse">
<stop stop-color="#CFDDF3"/>
<stop offset="1" stop-color="#A1B8E3"/>
</linearGradient>
<linearGradient id="paint16_linear" x1="455.887" y1="258.184" x2="469.277" y2="235.186" gradientUnits="userSpaceOnUse">
<stop stop-color="#CFDDF3"/>
<stop offset="1" stop-color="#A1B8E3"/>
</linearGradient>
<linearGradient id="paint17_linear" x1="492.601" y1="141.892" x2="519.2" y2="141.061" gradientUnits="userSpaceOnUse">
<stop stop-color="#CFDDF3"/>
<stop offset="1" stop-color="#A1B8E3"/>
</linearGradient>
<linearGradient id="paint18_linear" x1="583.429" y1="198.587" x2="591.56" y2="223.927" gradientUnits="userSpaceOnUse">
<stop stop-color="#CFDDF3"/>
<stop offset="1" stop-color="#A1B8E3"/>
</linearGradient>
<linearGradient id="paint19_linear" x1="588.495" y1="228.676" x2="593.932" y2="254.726" gradientUnits="userSpaceOnUse">
<stop stop-color="#CFDDF3"/>
<stop offset="1" stop-color="#A1B8E3"/>
</linearGradient>
<linearGradient id="paint20_linear" x1="69.49" y1="347.197" x2="78.3095" y2="374.536" gradientUnits="userSpaceOnUse">
<stop stop-color="#EDF3FD" stop-opacity="0.01"/>
<stop offset="1" stop-color="#D6E3FA"/>
</linearGradient>
<radialGradient id="paint21_radial" cx="0" cy="0" r="1" gradientUnits="userSpaceOnUse" gradientTransform="translate(122.942 202.429) rotate(150.84) scale(98.3102 303.852)">
<stop stop-color="#64CF9B"/>
<stop offset="1" stop-color="#ADF9A9"/>
</radialGradient>
<linearGradient id="paint22_linear" x1="88.7695" y1="205.394" x2="88.7695" y2="367.582" gradientUnits="userSpaceOnUse">
<stop stop-color="#80D4AE"/>
<stop offset="1" stop-color="#4CB67D"/>
</linearGradient>
<linearGradient id="paint23_linear" x1="87.8535" y1="258.54" x2="87.8535" y2="275.492" gradientUnits="userSpaceOnUse">
<stop stop-color="#64DEA8"/>
<stop offset="1" stop-color="#4CB67D"/>
</linearGradient>
<linearGradient id="paint24_linear" x1="73.1929" y1="302.982" x2="73.1929" y2="324.057" gradientUnits="userSpaceOnUse">
<stop stop-color="#64DEA8"/>
<stop offset="1" stop-color="#4CB67D"/>
</linearGradient>
<linearGradient id="paint25_linear" x1="91.9766" y1="289.237" x2="91.9766" y2="302.066" gradientUnits="userSpaceOnUse">
<stop stop-color="#64DEA8"/>
<stop offset="1" stop-color="#4CB67D"/>
</linearGradient>
<linearGradient id="paint26_linear" x1="105.264" y1="209.059" x2="105.264" y2="233.342" gradientUnits="userSpaceOnUse">
<stop stop-color="#64DEA8"/>
<stop offset="1" stop-color="#4CB67D"/>
</linearGradient>
<linearGradient id="paint27_linear" x1="498.69" y1="319.603" x2="493.413" y2="240.057" gradientUnits="userSpaceOnUse">
<stop stop-color="#EDF3FD"/>
<stop offset="1" stop-color="#D6E3FA"/>
</linearGradient>
<linearGradient id="paint28_linear" x1="498.69" y1="256.377" x2="493.413" y2="176.831" gradientUnits="userSpaceOnUse">
<stop stop-color="#EDF3FD"/>
<stop offset="1" stop-color="#D6E3FA"/>
</linearGradient>
<linearGradient id="paint29_linear" x1="498.69" y1="124.427" x2="493.413" y2="44.8809" gradientUnits="userSpaceOnUse">
<stop stop-color="#EDF3FD"/>
<stop offset="1" stop-color="#D6E3FA"/>
</linearGradient>
<linearGradient id="paint30_linear" x1="512.323" y1="151.219" x2="501.4" y2="74.5258" gradientUnits="userSpaceOnUse">
<stop stop-color="#FFE883"/>
<stop offset="1" stop-color="#FECC4C"/>
</linearGradient>
<linearGradient id="paint31_linear" x1="305.445" y1="401.038" x2="48.701" y2="401.038" gradientUnits="userSpaceOnUse">
<stop stop-color="#D0DCF1"/>
<stop offset="1" stop-color="white" stop-opacity="0.01"/>
</linearGradient>
<linearGradient id="paint32_linear" x1="225.129" y1="402.534" x2="-28.2127" y2="402.534" gradientUnits="userSpaceOnUse">
<stop stop-color="#D0DCF1"/>
<stop offset="1" stop-color="white" stop-opacity="0.01"/>
</linearGradient>
<linearGradient id="paint33_linear" x1="206.691" y1="251.168" x2="217.518" y2="234.504" gradientUnits="userSpaceOnUse">
<stop stop-color="#70B8F9"/>
<stop offset="1" stop-color="#3D82F0"/>
</linearGradient>
<linearGradient id="paint34_linear" x1="209.878" y1="418.61" x2="223.143" y2="398.316" gradientUnits="userSpaceOnUse">
<stop stop-color="#47689B"/>
<stop offset="1" stop-color="#223762"/>
</linearGradient>
<linearGradient id="paint35_linear" x1="291.754" y1="427.127" x2="302.447" y2="405.368" gradientUnits="userSpaceOnUse">
<stop stop-color="#47689B"/>
<stop offset="1" stop-color="#223762"/>
</linearGradient>
<linearGradient id="paint36_linear" x1="256.771" y1="436.566" x2="320.32" y2="292.035" gradientUnits="userSpaceOnUse">
<stop stop-color="#CFDDF3"/>
<stop offset="1" stop-color="#A1B8E3"/>
</linearGradient>
<linearGradient id="paint37_linear" x1="286.768" y1="268.786" x2="286.08" y2="256.601" gradientUnits="userSpaceOnUse">
<stop stop-color="#CFDDF3" stop-opacity="0.477723"/>
<stop offset="1" stop-color="#A1B8E3"/>
</linearGradient>
<linearGradient id="paint38_linear" x1="252.994" y1="107.091" x2="229.861" y2="122.695" gradientUnits="userSpaceOnUse">
<stop stop-color="#70B8F9"/>
<stop offset="1" stop-color="#3D82F0"/>
</linearGradient>
<linearGradient id="paint39_linear" x1="211.779" y1="106.87" x2="232.499" y2="134.187" gradientUnits="userSpaceOnUse">
<stop stop-color="#164898"/>
<stop offset="1" stop-color="#223762"/>
</linearGradient>
<linearGradient id="paint40_linear" x1="191.375" y1="214.128" x2="212.172" y2="211.397" gradientUnits="userSpaceOnUse">
<stop stop-color="#EDF3FD"/>
<stop offset="1" stop-color="#D6E3FA"/>
</linearGradient>
<linearGradient id="paint41_linear" x1="268.918" y1="237.172" x2="282.735" y2="228.363" gradientUnits="userSpaceOnUse">
<stop stop-color="#CFDDF3"/>
<stop offset="1" stop-color="#A1B8E3"/>
</linearGradient>
<linearGradient id="paint42_linear" x1="296.505" y1="175.078" x2="296.315" y2="162.109" gradientUnits="userSpaceOnUse">
<stop stop-color="#CFDDF3"/>
<stop offset="1" stop-color="#A1B8E3"/>
</linearGradient>
<linearGradient id="paint43_linear" x1="370.5" y1="251.002" x2="340.015" y2="128.735" gradientUnits="userSpaceOnUse">
<stop stop-color="#70B8F9"/>
<stop offset="1" stop-color="#3D82F0"/>
</linearGradient>
<linearGradient id="paint44_linear" x1="240.031" y1="181.122" x2="253.766" y2="209.283" gradientUnits="userSpaceOnUse">
<stop stop-color="#D6E3FA"/>
<stop offset="1" stop-color="#E3EDFE"/>
</linearGradient>
<clipPath id="clip0">
<rect width="608.32" height="453.94" fill="white"/>
</clipPath>
</defs>
</svg>
