<?xml version="1.0" encoding="utf-8"?>
<svg version="1.1" id="Layer_1" xmlns="http://www.w3.org/2000/svg" xmlns:xlink="http://www.w3.org/1999/xlink" x="0px" y="0px"
	 viewBox="-59.1 359.8 295.4 81.8" style="enable-background:new -59.1 359.8 295.4 81.8;" xml:space="preserve">
<style type="text/css">
	.st0{fill:#3D56F0;}
	.st1{opacity:0.8;fill:#5468FF;enable-background:new    ;}
	.st2{fill:#344356;}
	.st3{font-family:'HKGrotesk-Bold';}
	.st4{font-size:75px;}
</style>
<g>
	<path class="st0" d="M-41.5,381.4c0-1.9,1.5-3.4,3.4-3.4l48.8,0.1c3,0,4.5,3.6,2.4,5.8l-48.6,48.6c-2.1,2.1-5.8,0.6-5.8-2.4
		L-41.5,381.4z"/>
	<path class="st1" d="M-59.1,363.2c0-1.9,1.5-3.4,3.4-3.4l67.5,0.2c3,0,4.5,3.6,2.4,5.8L-53.1,433c-2.1,2.1-5.8,0.6-5.8-2.4
		L-59.1,363.2z"/>
</g>
<text transform="matrix(1 0 0 1 29.333 440.741)" class="st2 st3 st4">Responsivy</text>
</svg>
