<svg width="589" height="559" viewBox="0 0 589 559" fill="none" xmlns="http://www.w3.org/2000/svg">
<path opacity="0.1976" fill-rule="evenodd" clip-rule="evenodd" d="M564.351 191.944C561.23 209.367 555.287 225.629 547.041 240.386C580.002 283.037 595.573 338.177 585.632 394.557C566.563 502.699 460.855 574.452 349.525 554.821C267.615 540.379 205.484 480.493 185.96 406.782C168.871 409.578 151.083 409.592 133.142 406.429C45.0451 390.895 -13.3798 304.626 2.64592 213.741C18.6711 122.855 103.079 61.7714 191.175 77.3051C208.502 80.3603 224.68 86.1517 239.371 94.1764C270.502 28.5057 345.664 -10.9509 424.25 2.68729C517.454 18.8616 580.179 103.595 564.351 191.944Z" fill="url(#paint0_radial)"/>
<mask id="mask0" mask-type="alpha" maskUnits="userSpaceOnUse" x="0" y="0" width="589" height="559">
<path fill-rule="evenodd" clip-rule="evenodd" d="M564.351 191.944C561.23 209.367 555.287 225.629 547.041 240.387C580.002 283.037 595.573 338.177 585.632 394.557C566.563 502.699 460.855 574.452 349.525 554.821C267.615 540.379 205.484 480.493 185.96 406.782C168.871 409.578 151.083 409.592 133.142 406.429C45.0451 390.895 -13.3798 304.626 2.64592 213.741C18.6711 122.855 103.079 61.7714 191.175 77.3051C208.502 80.3603 224.68 86.1517 239.371 94.1763C270.502 28.5057 345.664 -10.9509 424.25 2.68729C517.454 18.8616 580.179 103.595 564.351 191.944Z" fill="white"/>
</mask>
<g mask="url(#mask0)">
<g opacity="0.5" filter="url(#filter0_i)">
<path fill-rule="evenodd" clip-rule="evenodd" d="M235.995 214.014C235.097 188.263 168.001 194.068 142.119 196.552C116.237 199.036 113.887 163.759 136.218 158.515C158.549 153.272 199.045 155.978 220.026 151.137C241.008 146.297 214.467 120.338 243.056 117.209C271.644 114.08 330.759 116.977 348.382 116.341C376.063 115.342 390.265 148.667 341.769 150.179C328.395 150.596 325.712 180.201 370.855 172.069C399.183 166.965 454.765 166.848 466.327 179.877C472.961 187.352 470.662 207.436 459.257 218.526C450.785 226.764 423.841 228.371 413.286 230.275C388.524 234.743 393.419 258.719 401.863 263.656C421.843 275.338 476.68 253.291 478.15 285.37C478.799 299.545 428.905 301.833 408.446 301.66C358.27 301.236 325.302 305.706 322.988 288.59C320.666 271.407 354.168 283.005 352.516 261.881C351.653 250.842 353.967 227.386 332.473 228.617C361.9 226.931 237.208 248.794 235.995 214.014Z" fill="url(#paint1_linear)"/>
</g>
<g opacity="0.5" filter="url(#filter1_i)">
<path fill-rule="evenodd" clip-rule="evenodd" d="M460.197 113.439C460.263 87.6726 392.998 90.9611 367.041 92.4744C341.083 93.9879 340.056 58.6474 362.568 54.2436C385.08 49.8396 425.445 54.0601 446.593 50.0087C467.742 45.9573 442.191 19.0222 470.877 16.966C499.563 14.9097 558.527 20.0179 576.162 20.0426C603.861 20.0813 616.805 53.9141 568.287 53.6094C554.907 53.5253 551.117 83.0087 596.532 76.5726C625.032 72.5338 680.579 74.497 691.646 87.9498C697.995 95.6685 694.946 115.652 683.134 126.307C674.359 134.223 647.374 134.819 636.755 136.327C611.843 139.864 615.837 164.007 624.089 169.257C643.618 181.679 699.242 161.7 699.51 193.811C699.628 208.001 649.683 208.42 629.245 207.481C579.12 205.178 546.008 208.411 544.337 191.22C542.659 173.962 575.704 186.806 574.844 165.635C574.395 154.572 577.585 131.218 556.06 131.644C585.53 131.061 460.107 148.24 460.197 113.439Z" fill="url(#paint2_linear)"/>
</g>
<path fill-rule="evenodd" clip-rule="evenodd" d="M220.943 411.273C218.672 409.872 166.026 373.652 162.327 368.366C158.629 363.081 205.936 379.363 205.936 379.363C205.936 379.363 223.214 412.674 220.943 411.273Z" fill="url(#paint3_linear)" style="mix-blend-mode:multiply"/>
<g opacity="0.8">
<g filter="url(#filter2_i)">
<path fill-rule="evenodd" clip-rule="evenodd" d="M221.047 377.196C236.118 371.961 264.57 364.023 243.57 330.764C235.303 317.672 249.488 302.369 241.293 291.358C232.429 279.449 220.661 274.277 226.454 262.278C232.19 250.397 232.938 236.215 225.026 231.28C210.734 222.365 198.402 240.364 184.045 258.49C175.293 269.539 176.934 281.793 179.953 290.175C183.786 300.816 200.738 314.728 197.211 326.373C193.683 338.017 174.68 347.683 185.089 366.497C191.518 378.119 208.814 381.445 221.047 377.196Z" fill="url(#paint4_linear)"/>
</g>
<path fill-rule="evenodd" clip-rule="evenodd" d="M220.285 409.37C223.383 387.154 203.925 374.045 215.857 351.371C227.202 329.815 224.595 307.987 213.465 296.143C204.106 286.181 207.368 262.275 212.179 244.35" fill="black" fill-opacity="0.01"/>
<path d="M220.285 409.37C223.383 387.154 203.925 374.045 215.857 351.371C227.202 329.815 224.595 307.987 213.465 296.143C204.106 286.181 207.368 262.275 212.179 244.35" stroke="url(#paint5_linear)" stroke-width="5" stroke-linecap="round" stroke-linejoin="round"/>
<g opacity="0.402344">
<path fill-rule="evenodd" clip-rule="evenodd" d="M220.968 329.407C215.263 327.034 211.129 324.074 207.299 319.839L220.968 329.407Z" fill="black" fill-opacity="0.01"/>
<path d="M220.968 329.407C215.263 327.034 211.129 324.074 207.299 319.839" stroke="url(#paint6_linear)" stroke-width="5" stroke-linecap="round" stroke-linejoin="round"/>
</g>
<g opacity="0.402344">
<path fill-rule="evenodd" clip-rule="evenodd" d="M213.45 360.845C219.278 361.268 236.165 355.109 238.054 348.544L213.45 360.845Z" fill="black" fill-opacity="0.01"/>
<path d="M213.45 360.845C219.278 361.268 236.165 355.109 238.054 348.544" stroke="url(#paint7_linear)" stroke-width="5" stroke-linecap="round" stroke-linejoin="round"/>
</g>
<g opacity="0.402344">
<path fill-rule="evenodd" clip-rule="evenodd" d="M210.032 289.768C208.209 289.192 196.842 283.255 192.946 276.099L210.032 289.768Z" fill="black" fill-opacity="0.01"/>
<path d="M210.032 289.768C208.209 289.192 196.842 283.255 192.946 276.099" stroke="url(#paint8_linear)" stroke-width="5" stroke-linecap="round" stroke-linejoin="round"/>
</g>
</g>
<g filter="url(#filter3_i)">
<path fill-rule="evenodd" clip-rule="evenodd" d="M114.06 368.274C94.9739 363.271 38.6722 339.08 55.1359 310.768C71.5996 282.456 88.0632 274.304 71.5996 261.365C55.1359 248.426 66.8329 219.648 83.1089 207.803C99.3849 195.959 60.8416 160.675 78.498 142.006C96.1542 123.337 152.595 152.176 153.902 187.476C155.209 222.776 168.34 220.332 175.013 236.271C181.687 252.209 135.457 276.133 142.213 293.451C148.968 310.768 188.373 328.829 165.293 352.158C142.213 375.487 133.145 373.278 114.06 368.274Z" fill="url(#paint9_radial)"/>
</g>
<path fill-rule="evenodd" clip-rule="evenodd" d="M119.137 405.269C121.363 365.35 80.2093 348.705 109.481 292.51C138.753 236.315 118.414 187.793 109.481 169.316" fill="black" fill-opacity="0.01"/>
<path d="M119.137 405.269C121.363 365.35 80.2093 348.705 109.481 292.51C138.753 236.315 118.414 187.793 109.481 169.316" stroke="url(#paint10_linear)" stroke-width="6" stroke-linecap="round" stroke-linejoin="round"/>
<g opacity="0.3">
<path fill-rule="evenodd" clip-rule="evenodd" d="M116.402 267.898C111.3 265.47 101.911 258.632 97.2654 248.078L116.402 267.898Z" fill="black" fill-opacity="0.01"/>
<path d="M116.402 267.898C111.3 265.47 101.911 258.632 97.2654 248.078" stroke="url(#paint11_linear)" stroke-width="5" stroke-linecap="round" stroke-linejoin="round"/>
</g>
<g opacity="0.3">
<path fill-rule="evenodd" clip-rule="evenodd" d="M100.683 340.342C92.756 337.061 76.5446 328.051 75.3954 314.372L100.683 340.342Z" fill="black" fill-opacity="0.01"/>
<path d="M100.683 340.342C92.756 337.061 76.5446 328.051 75.3954 314.372" stroke="url(#paint12_linear)" stroke-width="5" stroke-linecap="round" stroke-linejoin="round"/>
</g>
<g opacity="0.3">
<path fill-rule="evenodd" clip-rule="evenodd" d="M103.416 306.854C110.551 308.862 121.132 307.034 130.071 293.868L103.416 306.854Z" fill="black" fill-opacity="0.01"/>
<path d="M103.416 306.854C110.551 308.862 121.132 307.034 130.071 293.868" stroke="url(#paint13_linear)" stroke-width="5" stroke-linecap="round" stroke-linejoin="round"/>
</g>
<g opacity="0.3">
<path fill-rule="evenodd" clip-rule="evenodd" d="M123.237 205.021C127.886 201.356 136.925 186.881 136.223 174.267L123.237 205.021Z" fill="black" fill-opacity="0.01"/>
<path d="M123.237 205.021C127.886 201.356 136.925 186.881 136.223 174.267" stroke="url(#paint14_linear)" stroke-width="5" stroke-linecap="round" stroke-linejoin="round"/>
</g>
<path fill-rule="evenodd" clip-rule="evenodd" d="M271.667 359.806C271.667 366.783 271.667 369.828 270.4 374.121C269.132 378.414 299.811 395.3 335.111 378.92C335.111 369.03 336.331 364.805 337.272 361.173C338.214 357.541 274.301 354.676 271.667 359.806Z" fill="url(#paint15_linear)"/>
<mask id="mask1" mask-type="alpha" maskUnits="userSpaceOnUse" x="270" y="357" width="68" height="29">
<path fill-rule="evenodd" clip-rule="evenodd" d="M271.667 359.806C271.667 366.783 271.667 369.828 270.4 374.121C269.132 378.414 299.811 395.3 335.111 378.92C335.111 369.03 336.331 364.805 337.272 361.173C338.214 357.541 274.301 354.676 271.667 359.806Z" fill="white"/>
</mask>
<g mask="url(#mask1)">
<g opacity="0.5">
<path fill-rule="evenodd" clip-rule="evenodd" d="M275.061 362.716C277.736 365.567 315.476 380.352 335.114 374.473C354.751 368.594 335.114 362.716 335.114 362.716C335.114 362.716 272.386 359.864 275.061 362.716Z" fill="url(#paint16_linear)" style="mix-blend-mode:multiply"/>
</g>
</g>
<path fill-rule="evenodd" clip-rule="evenodd" d="M270.656 373.031C277.201 382.418 311.118 387.097 334.42 378.047C352.736 406.736 344.067 436.859 334.02 530.444C335.387 565.419 332.653 597.333 331.286 640.594C328.953 643.968 323.185 645.046 316.664 642.644C313.065 609.524 307.058 603.047 302.139 534.841C299.59 511.563 297.099 440.276 297.099 440.276C297.099 440.276 278.915 474.298 260.922 523.539C273.39 549.696 266.188 582.94 278.241 625.746C273.636 633.215 268.861 633.29 263.656 631.709C256.282 610.848 241.135 573.691 231.011 528.525C231.011 510.067 233.614 461.363 270.656 373.031Z" fill="url(#paint17_linear)"/>
<path fill-rule="evenodd" clip-rule="evenodd" d="M301.033 168.975C301.033 168.975 311.219 157.059 321.894 151.509C339.185 150.3 358.623 171.941 358.075 182.22C357.527 192.498 351.241 196.372 344.991 200.298C338.74 204.224 301.033 168.975 301.033 168.975Z" fill="url(#paint18_linear)"/>
<path fill-rule="evenodd" clip-rule="evenodd" d="M300.164 220.882C332.232 235.835 344.155 242.221 355.03 230.111C365.905 218 357.303 187.992 329.094 168.729C300.884 149.467 274.942 151.188 267.866 166.363C260.79 181.538 268.097 205.929 300.164 220.882Z" fill="url(#paint19_radial)"/>
<path fill-rule="evenodd" clip-rule="evenodd" d="M290.186 274.271C294.047 263.719 303.46 250.612 302.278 240.982C301.096 231.351 330.998 215.62 329.936 222.34C328.874 229.06 326.896 266.895 334.995 270.579C343.094 274.262 286.325 284.823 290.186 274.271Z" fill="url(#paint20_linear)"/>
<path fill-rule="evenodd" clip-rule="evenodd" d="M303.622 176.21C294.46 181.034 283.564 185.436 286.334 208.463C289.104 231.491 288.632 237.376 298.78 246.18C305.612 246.18 314.557 248.94 321.299 239.963C322.404 238.492 325.111 225.676 326.434 225.296C328.088 224.82 329.764 223.855 330.818 221.159C333.684 213.824 332.258 206.366 330.818 203.281C328.462 198.235 312.784 171.387 303.622 176.21Z" fill="url(#paint21_linear)"/>
<path fill-rule="evenodd" clip-rule="evenodd" d="M302.133 178.72C295.016 181.297 283.903 186.45 287.158 209.272C290.413 232.093 294.821 240.362 302.133 244.977C309.445 249.592 292.908 266.675 291.802 273.84C290.696 281.006 281.57 262.419 281.705 254.714C281.84 247.009 281.768 239.493 281.705 225.507C281.643 211.521 278.001 191.186 289.94 181.1C301.878 171.013 309.25 176.143 302.133 178.72Z" fill="url(#paint22_linear)"/>
<path fill-rule="evenodd" clip-rule="evenodd" d="M295.569 179.738C297.982 181.656 295.031 186.44 300.056 194.981C305.449 204.148 311.839 209.077 324.852 207.022C331.673 205.946 324.249 228.313 317.719 238.464C311.189 248.614 306.189 265.689 315.751 280.85C334.235 280.85 342.901 271.27 342.901 271.27C342.901 271.27 342.901 249.505 342.901 222.952C342.901 196.399 327.651 181.914 317.719 177.177C307.786 172.441 291.005 176.112 295.569 179.738Z" fill="url(#paint23_radial)"/>
<g filter="url(#filter4_i)">
<path fill-rule="evenodd" clip-rule="evenodd" d="M225.753 241.927C225.753 241.927 254.487 253.063 272.179 258.096C289.871 263.129 285.482 274.771 301.133 275.414C316.783 276.056 333.168 277.25 338.696 263.129C344.224 249.008 365.33 267.106 362.776 279.03C361.847 283.368 357.316 302.915 355.948 315.275C353.558 336.884 344.217 355.21 342.666 362.721C340.227 374.529 269.35 372.296 270.812 356.045C272.748 334.52 265.303 299.112 263.977 297.551C261.651 294.81 240.985 289.375 225.753 285.43C225.753 268.767 225.753 241.927 225.753 241.927Z" fill="url(#paint24_linear)"/>
</g>
<path fill-rule="evenodd" clip-rule="evenodd" d="M225.07 285.667C229.599 285.667 233.271 281.049 233.271 267.13C233.271 253.211 229.599 241.927 225.07 241.927C220.54 241.927 216.868 253.211 216.868 267.13C216.868 281.049 220.54 285.667 225.07 285.667Z" fill="url(#paint25_linear)"/>
<path fill-rule="evenodd" clip-rule="evenodd" d="M233.18 272.946C223.64 270.881 198.177 260.452 195.708 260.163C193.239 259.873 176.945 251.969 165.642 247.438C154.338 242.907 143.2 230.086 137.402 228.586C131.604 227.086 131.824 213.519 142.359 217.386C152.894 221.253 164.269 224.45 173.548 227.442C182.826 230.433 190.106 235.447 199.413 236.132C208.72 236.818 217.017 239.65 226.239 242.042C233.18 247.438 234.232 265.051 233.18 272.946Z" fill="url(#paint26_linear)"/>
<mask id="mask2" mask-type="alpha" maskUnits="userSpaceOnUse" x="133" y="216" width="101" height="57">
<path fill-rule="evenodd" clip-rule="evenodd" d="M233.18 272.946C223.64 270.881 198.177 260.452 195.708 260.163C193.239 259.873 176.945 251.969 165.642 247.438C154.338 242.907 143.2 230.086 137.402 228.586C131.604 227.086 131.824 213.519 142.359 217.386C152.894 221.253 164.269 224.45 173.548 227.442C182.826 230.433 190.106 235.447 199.413 236.132C208.72 236.818 217.017 239.65 226.239 242.042C233.18 247.438 234.232 265.051 233.18 272.946Z" fill="white"/>
</mask>
<g mask="url(#mask2)">
<path fill-rule="evenodd" clip-rule="evenodd" d="M226.656 242.203C226.656 242.203 222.413 265.804 216.598 270.562C210.783 275.32 244.718 277.724 244.718 277.724L226.656 242.203Z" fill="url(#paint27_linear)"/>
</g>
<path fill-rule="evenodd" clip-rule="evenodd" d="M118.721 208.224C118.721 208.224 110.907 209.244 109.137 210.323C107.367 211.403 102.624 216.974 101.976 217.86C101.327 218.745 97.1195 223.362 97.788 224.532C98.4567 225.701 101.21 225.747 102.227 223.713C103.243 221.68 104.025 221.706 105.161 220.108C106.745 219.771 111.101 216.549 112.349 216.418C113.597 216.286 124.151 220.204 124.151 220.204C124.151 220.204 130.073 218.505 127.829 213.66C125.584 208.815 118.721 208.224 118.721 208.224Z" fill="#90AADB"/>
<path fill-rule="evenodd" clip-rule="evenodd" d="M119.595 221.345C117 221.618 110.45 221.895 108.737 221.485C107.024 221.074 103.153 221.282 103.434 223.957C103.715 226.631 107.374 226.873 109.329 227.121C111.284 227.369 114.324 227.841 116.979 228.875C119.633 229.908 126.809 230.651 130.237 229.926C133.664 229.201 137.939 229.485 139.27 229.92C140.601 230.355 144.029 220.738 142.107 217.288C136.998 216.05 125.559 208.141 124.168 207.982C123.331 207.886 118.27 213.176 121.143 216.513C123.495 219.244 121.141 221.183 119.595 221.345Z" fill="#A1B8E3"/>
<path fill-rule="evenodd" clip-rule="evenodd" d="M99.3182 206.759C95.186 205.639 92.3236 203.383 93.681 200.872C95.0384 198.361 96.7788 200.589 98.7447 201.302C100.711 202.015 109.428 203.785 111.827 204.03C112.97 204.147 115.724 204.994 118.403 206.002C121.345 207.109 123.65 206.695 124.184 207.435C125.205 208.85 126.886 218.489 121.997 216.366C117.109 214.244 116.571 212.522 113.34 210.348C110.109 208.174 103.451 207.879 99.3182 206.759Z" fill="#A1B8E3"/>
<path fill-rule="evenodd" clip-rule="evenodd" d="M413.205 122.428C413.205 122.428 420.598 104.807 430.39 97.8265C447.334 94.2249 463.697 111.361 466.554 120.63C469.412 129.899 463.537 139.294 457.898 144.052C452.258 148.809 413.205 122.428 413.205 122.428Z" fill="url(#paint28_linear)"/>
<path fill-rule="evenodd" clip-rule="evenodd" d="M418.157 169.267C450.215 184.216 459.988 183.592 470.863 171.479C481.737 159.367 475.289 136.368 447.088 117.109C418.888 97.8494 392.951 99.5749 385.874 114.751C378.797 129.927 386.1 154.318 418.157 169.267Z" fill="url(#paint29_radial)"/>
<path fill-rule="evenodd" clip-rule="evenodd" d="M444.754 178.117C444.754 183.225 442.55 201.452 444.754 206.917C445.502 208.771 444.057 212.444 444.754 213.91C447.331 219.332 432.508 231.847 432.508 231.847L427.99 271.998H412.331C412.331 271.998 415.853 235.406 414.159 231.847C412.464 228.289 412.331 221.837 412.331 215.769C412.331 209.7 412.331 197.419 416.06 191.914C419.789 186.409 444.754 171.117 444.754 178.117Z" fill="url(#paint30_linear)"/>
<mask id="mask3" mask-type="alpha" maskUnits="userSpaceOnUse" x="412" y="176" width="34" height="96">
<path fill-rule="evenodd" clip-rule="evenodd" d="M444.754 178.117C444.754 183.225 442.55 201.452 444.754 206.917C445.502 208.771 444.057 212.444 444.754 213.91C447.331 219.332 432.508 231.847 432.508 231.847L427.99 271.998H412.331C412.331 271.998 415.853 235.406 414.159 231.847C412.464 228.289 412.331 221.837 412.331 215.769C412.331 209.7 412.331 197.419 416.06 191.914C419.789 186.409 444.754 171.117 444.754 178.117Z" fill="white"/>
</mask>
<g mask="url(#mask3)">
<g opacity="0.153292">
<path fill-rule="evenodd" clip-rule="evenodd" d="M419.172 204.473C420.503 205.002 421.785 205.495 423.021 205.953C446.434 214.639 453 210.957 453 204.473C453 197.648 444.77 165.602 444.77 165.602C444.77 165.602 392.622 193.927 419.172 204.473Z" fill="url(#paint31_linear)" style="mix-blend-mode:multiply"/>
</g>
</g>
<path fill-rule="evenodd" clip-rule="evenodd" d="M405.85 127.354C402.596 135.646 399.126 139.841 400.753 150.26C402.379 160.679 400.812 159.803 399.824 165.456C398.835 171.108 397.58 175.772 400.335 186.621C403.091 197.471 404.799 205.056 413.674 205.021C422.549 204.986 433.982 203.06 437.748 196.376C439.269 193.677 439.883 192.191 440.955 187.962C441.709 184.988 442.291 182.945 442.291 178.687C444.217 183.385 448.269 180.878 448.569 180.633C450.953 178.69 453.092 174.236 453.298 170.034C453.711 161.612 450.935 142.108 441.295 138.884C431.656 135.661 409.103 119.062 405.85 127.354Z" fill="url(#paint32_linear)"/>
<path fill-rule="evenodd" clip-rule="evenodd" d="M472.823 385.127C476.107 395.428 483.387 421.579 483.048 441.009C482.708 460.438 479.658 582.492 475.291 681.571C468.207 685.686 453.212 685.562 444.87 681.16C437.35 603.344 424.958 450.381 424.958 450.381C422.437 476.42 402.763 668.291 402.763 675.911C402.763 683.532 383.16 685.309 376.468 680.085C374.434 592.511 366.015 429.958 366.015 429.958L374.434 383.409C374.434 383.409 469.54 374.826 472.823 385.127Z" fill="url(#paint33_linear)"/>
<mask id="mask4" mask-type="alpha" maskUnits="userSpaceOnUse" x="366" y="380" width="118" height="305">
<path fill-rule="evenodd" clip-rule="evenodd" d="M472.823 385.127C476.107 395.428 483.387 421.579 483.048 441.009C482.708 460.438 479.658 582.492 475.291 681.571C468.207 685.686 453.212 685.562 444.87 681.16C437.35 603.344 424.958 450.381 424.958 450.381C422.437 476.42 402.763 668.291 402.763 675.911C402.763 683.532 383.16 685.309 376.468 680.085C374.434 592.511 366.015 429.958 366.015 429.958L374.434 383.409C374.434 383.409 469.54 374.826 472.823 385.127Z" fill="white"/>
</mask>
<g mask="url(#mask4)">
<path fill-rule="evenodd" clip-rule="evenodd" d="M406.683 638.336C396.887 596.707 406.683 469.112 423.93 452.188C431.503 461.606 416.478 679.965 406.683 638.336Z" fill="url(#paint34_linear)" style="mix-blend-mode:multiply"/>
<path fill-rule="evenodd" clip-rule="evenodd" d="M388.904 400.339C390.453 400.864 396.652 408.802 398.329 409.35C418.77 416.038 443.688 416.512 471.088 411.4C500.737 405.87 477.947 386.466 477.947 386.466C477.947 386.466 368.475 393.416 388.904 400.339Z" fill="url(#paint35_linear)" style="mix-blend-mode:multiply"/>
</g>
<path fill-rule="evenodd" clip-rule="evenodd" d="M369.139 429.254C371.618 421.906 369.995 411.756 375.843 411.037C372.063 401.907 379.014 370.5 379.014 370.5C379.014 370.5 348.622 357.334 351.906 367.207C355.189 377.08 359.007 411.673 362.668 418.459C366.328 425.244 366.659 436.602 369.139 429.254Z" fill="url(#paint36_linear)"/>
<mask id="mask5" mask-type="alpha" maskUnits="userSpaceOnUse" x="351" y="363" width="29" height="69">
<path fill-rule="evenodd" clip-rule="evenodd" d="M369.139 429.254C371.618 421.906 369.995 411.756 375.843 411.037C372.063 401.907 379.014 370.5 379.014 370.5C379.014 370.5 348.622 357.334 351.906 367.207C355.189 377.08 359.007 411.673 362.668 418.459C366.328 425.244 366.659 436.602 369.139 429.254Z" fill="white"/>
</mask>
<g mask="url(#mask5)">
<g opacity="0.3">
<path fill-rule="evenodd" clip-rule="evenodd" d="M380.261 418.398C372.998 409.124 362.953 402.528 362.953 389.197C362.953 375.866 371.607 368.482 371.607 368.482C371.607 368.482 387.524 427.671 380.261 418.398Z" fill="url(#paint37_linear)" style="mix-blend-mode:multiply"/>
</g>
</g>
<path fill-rule="evenodd" clip-rule="evenodd" d="M409.149 217.876C409.149 217.876 396.438 227.965 393.285 228.813C390.132 229.661 369.636 238.165 368.428 240.772C367.22 243.378 360.867 253.227 361.079 255.886C361.29 258.545 369.56 317.118 368.428 344.765C367.296 372.411 368.428 368.652 368.428 375.172C368.428 381.692 363.63 390.612 366.029 395.517C368.428 400.423 372.551 401.577 378.831 402.979C385.111 404.381 389.642 406.019 398.576 402.979C407.511 399.939 412.512 406.86 427.283 404.92C442.055 402.979 454.738 409.101 465.856 394.241C469.945 396.872 472.063 395.135 478.589 391.472C485.115 387.808 484.615 374.764 482.659 370.239C480.703 365.714 471.934 360.965 475.262 350.892C478.589 340.819 482.659 307.225 482.659 292.063C482.659 276.901 491.579 249.556 494.344 240.772C486.431 234.821 452.108 215.879 445.571 213.906C443.015 220.73 430.588 224.16 428.541 222.341C426.495 220.522 427.709 235.177 427.709 235.177C427.709 235.177 425.25 240.772 422.947 246.645C420.644 252.518 415.33 261.718 415.33 268.051C410.477 263.166 416.38 249.08 415.33 243.622C414.123 237.344 416.537 231.413 419.196 223.172C415.33 222.263 414.99 223.812 413.792 222.169C410.66 217.876 409.149 217.876 409.149 217.876Z" fill="url(#paint38_linear)"/>
<path fill-rule="evenodd" clip-rule="evenodd" d="M409.149 217.876C409.149 217.876 396.438 227.965 393.285 228.813C390.132 229.661 369.636 238.165 368.428 240.772C367.22 243.378 360.867 253.227 361.079 255.886C361.29 258.545 369.56 317.118 368.428 344.765C367.296 372.411 368.428 368.652 368.428 375.172C368.428 381.692 363.63 390.612 366.029 395.517C368.428 400.423 372.551 401.577 378.831 402.979C385.111 404.381 389.642 406.019 398.576 402.979C407.511 399.939 412.512 406.86 427.283 404.92C442.055 402.979 454.738 409.101 465.856 394.241C469.945 396.872 472.063 395.135 478.589 391.472C485.115 387.808 484.615 374.764 482.659 370.239C480.703 365.714 471.934 360.965 475.262 350.892C478.589 340.819 482.659 307.225 482.659 292.063C482.659 276.901 491.579 249.556 494.344 240.772C486.431 234.821 452.108 215.879 445.571 213.906C443.015 220.73 430.588 224.16 428.541 222.341C426.495 220.522 427.709 235.177 427.709 235.177C427.709 235.177 425.25 240.772 422.947 246.645C420.644 252.518 415.33 261.718 415.33 268.051C410.477 263.166 416.38 249.08 415.33 243.622C414.123 237.344 416.537 231.413 419.196 223.172C415.33 222.263 414.99 223.812 413.792 222.169C410.66 217.876 409.149 217.876 409.149 217.876Z" fill="url(#paint39_linear)"/>
<path fill-rule="evenodd" clip-rule="evenodd" d="M409.149 217.876C409.149 217.876 396.438 227.965 393.285 228.813C390.132 229.661 369.636 238.165 368.428 240.772C367.22 243.378 360.867 253.227 361.079 255.886C361.29 258.545 369.56 317.118 368.428 344.765C367.296 372.411 368.428 368.652 368.428 375.172C368.428 381.692 363.63 390.612 366.029 395.517C368.428 400.423 372.551 401.577 378.831 402.979C385.111 404.381 389.642 406.019 398.576 402.979C407.511 399.939 412.512 406.86 427.283 404.92C442.055 402.979 454.738 409.101 465.856 394.241C469.945 396.872 472.063 395.135 478.589 391.472C485.115 387.808 484.615 374.764 482.659 370.239C480.703 365.714 471.934 360.965 475.262 350.892C478.589 340.819 482.659 307.225 482.659 292.063C482.659 276.901 491.579 249.556 494.344 240.772C486.431 234.821 452.108 215.879 445.571 213.906C443.015 220.73 430.588 224.16 428.541 222.341C426.495 220.522 427.709 235.177 427.709 235.177C427.709 235.177 425.25 240.772 422.947 246.645C420.644 252.518 415.33 261.718 415.33 268.051C410.477 263.166 416.38 249.08 415.33 243.622C414.123 237.344 416.537 231.413 419.196 223.172C415.33 222.263 414.99 223.812 413.792 222.169C410.66 217.876 409.149 217.876 409.149 217.876Z" fill="url(#paint40_linear)"/>
<mask id="mask6" mask-type="alpha" maskUnits="userSpaceOnUse" x="361" y="213" width="134" height="193">
<path fill-rule="evenodd" clip-rule="evenodd" d="M409.149 217.876C409.149 217.876 396.438 227.965 393.285 228.813C390.132 229.661 369.636 238.165 368.428 240.772C367.22 243.378 360.867 253.227 361.079 255.886C361.29 258.545 369.56 317.118 368.428 344.765C367.296 372.411 368.428 368.652 368.428 375.172C368.428 381.692 363.63 390.612 366.029 395.517C368.428 400.423 372.551 401.577 378.831 402.979C385.111 404.381 389.642 406.019 398.576 402.979C407.511 399.939 412.512 406.86 427.283 404.92C442.055 402.979 454.738 409.101 465.856 394.241C469.945 396.872 472.063 395.135 478.589 391.472C485.115 387.808 484.615 374.764 482.659 370.239C480.703 365.714 471.934 360.965 475.262 350.892C478.589 340.819 482.659 307.225 482.659 292.063C482.659 276.901 491.579 249.556 494.344 240.772C486.431 234.821 452.108 215.879 445.571 213.906C443.015 220.73 430.588 224.16 428.541 222.341C426.495 220.522 427.709 235.177 427.709 235.177C427.709 235.177 425.25 240.772 422.947 246.645C420.644 252.518 415.33 261.718 415.33 268.051C410.477 263.166 416.38 249.08 415.33 243.622C414.123 237.344 416.537 231.413 419.196 223.172C415.33 222.263 414.99 223.812 413.792 222.169C410.66 217.876 409.149 217.876 409.149 217.876Z" fill="white"/>
<path fill-rule="evenodd" clip-rule="evenodd" d="M409.149 217.876C409.149 217.876 396.438 227.965 393.285 228.813C390.132 229.661 369.636 238.165 368.428 240.772C367.22 243.378 360.867 253.227 361.079 255.886C361.29 258.545 369.56 317.118 368.428 344.765C367.296 372.411 368.428 368.652 368.428 375.172C368.428 381.692 363.63 390.612 366.029 395.517C368.428 400.423 372.551 401.577 378.831 402.979C385.111 404.381 389.642 406.019 398.576 402.979C407.511 399.939 412.512 406.86 427.283 404.92C442.055 402.979 454.738 409.101 465.856 394.241C469.945 396.872 472.063 395.135 478.589 391.472C485.115 387.808 484.615 374.764 482.659 370.239C480.703 365.714 471.934 360.965 475.262 350.892C478.589 340.819 482.659 307.225 482.659 292.063C482.659 276.901 491.579 249.556 494.344 240.772C486.431 234.821 452.108 215.879 445.571 213.906C443.015 220.73 430.588 224.16 428.541 222.341C426.495 220.522 427.709 235.177 427.709 235.177C427.709 235.177 425.25 240.772 422.947 246.645C420.644 252.518 415.33 261.718 415.33 268.051C410.477 263.166 416.38 249.08 415.33 243.622C414.123 237.344 416.537 231.413 419.196 223.172C415.33 222.263 414.99 223.812 413.792 222.169C410.66 217.876 409.149 217.876 409.149 217.876Z" stroke="white"/>
</mask>
<g mask="url(#mask6)">
<g opacity="0.2">
<mask id="path-59-outside-1" maskUnits="userSpaceOnUse" x="401.029" y="274.049" width="17" height="130" fill="black">
<rect fill="white" x="401.029" y="274.049" width="17" height="130"/>
<path fill-rule="evenodd" clip-rule="evenodd" d="M409.597 401.852C406.18 391.6 404.13 337.609 407.547 319.839C410.964 302.07 414.382 279.516 413.698 274.732"/>
</mask>
<path d="M407.547 319.839L411.475 320.595L411.475 320.595L407.547 319.839ZM413.392 400.587C412.708 398.534 411.964 393.697 411.338 386.847C410.728 380.165 410.262 371.984 410.008 363.544C409.494 346.512 409.861 328.988 411.475 320.595L403.619 319.084C401.816 328.459 401.5 346.816 402.011 363.785C402.269 372.346 402.743 380.695 403.371 387.575C403.985 394.287 404.779 400.044 405.803 403.117L413.392 400.587ZM411.475 320.595C413.194 311.654 414.914 301.508 416.121 292.976C416.724 288.713 417.204 284.818 417.49 281.66C417.761 278.666 417.905 275.898 417.658 274.166L409.738 275.298C409.833 275.958 409.806 277.803 409.522 280.939C409.253 283.911 408.793 287.661 408.2 291.856C407.014 300.239 405.317 310.254 403.619 319.084L411.475 320.595Z" fill="#6FA7FF" mask="url(#path-59-outside-1)"/>
</g>
<path fill-rule="evenodd" clip-rule="evenodd" d="M476.841 404.151C457.003 362.993 465.846 303.413 475.806 294.066C485.766 284.718 507.946 383.567 500.683 392.315C493.42 401.063 496.68 445.309 476.841 404.151Z" fill="url(#paint41_linear)" style="mix-blend-mode:multiply"/>
<path fill-rule="evenodd" clip-rule="evenodd" d="M407.351 239.427C411.925 234.996 419.571 229.277 419.571 229.277V219.194L410.563 226.476C410.563 226.476 402.777 243.858 407.351 239.427Z" fill="url(#paint42_linear)" style="mix-blend-mode:multiply"/>
<path fill-rule="evenodd" clip-rule="evenodd" d="M426.235 235.211C428.716 236.787 436.112 237.038 436.112 237.038C436.112 237.038 429.864 216.784 426.235 218.396C422.606 220.008 423.753 233.635 426.235 235.211Z" fill="url(#paint43_linear)" style="mix-blend-mode:multiply"/>
</g>
<path fill-rule="evenodd" clip-rule="evenodd" d="M431.386 279.516C436.721 279.516 456.456 282.752 464.272 279.516C464.272 296.37 462.656 310.814 461.829 317.645C455.489 323.709 445.618 324.623 445.618 324.623L429.999 315.97C429.999 315.97 428.346 303.116 431.386 279.516Z" fill="white"/>
<path fill-rule="evenodd" clip-rule="evenodd" d="M438.282 244.661C433.386 242.098 432.428 225.739 428.051 223.422C423.675 221.105 441.64 217.84 443.881 201.604C446.132 201.604 450.127 212.139 454.021 218.11C453.565 227.225 440.459 234.072 438.282 244.661Z" fill="white"/>
<path fill-rule="evenodd" clip-rule="evenodd" d="M412.271 205.021C412.271 209.149 410.069 220.719 418.481 223.334C415.272 223.856 412.658 225.713 411.305 228.527C409.497 232.287 407.364 239.835 404.789 242.61C404.789 236.181 403.304 223.478 404.789 218.608C406.273 213.738 411.056 207.642 412.271 205.021Z" fill="white"/>
<g filter="url(#filter5_i)">
<path fill-rule="evenodd" clip-rule="evenodd" d="M484.95 328.786C474.949 295.355 470.764 271.512 471.128 263.252C471.492 254.991 481.208 238.923 492.201 239.921C503.194 240.919 505.523 261.174 507.802 272.054C510.081 282.933 526.913 338.831 527.765 346.703C528.617 354.574 521.157 367.169 511.627 368.26C502.096 369.35 494.951 362.217 484.95 328.786Z" fill="url(#paint44_linear)"/>
<path fill-rule="evenodd" clip-rule="evenodd" d="M484.95 328.786C474.949 295.355 470.764 271.512 471.128 263.252C471.492 254.991 481.208 238.923 492.201 239.921C503.194 240.919 505.523 261.174 507.802 272.054C510.081 282.933 526.913 338.831 527.765 346.703C528.617 354.574 521.157 367.169 511.627 368.26C502.096 369.35 494.951 362.217 484.95 328.786Z" fill="url(#paint45_linear)"/>
</g>
<path fill-rule="evenodd" clip-rule="evenodd" d="M463.214 322.573C463.214 322.573 483.113 328.552 487.468 326.559C491.823 324.566 513.444 325.481 518.221 341.729C522.998 357.977 518.828 361.494 513.444 367.116C508.06 372.738 468.482 357.98 460.172 350.285C466.416 332.034 463.214 322.573 463.214 322.573Z" fill="url(#paint46_linear)"/>
<path fill-rule="evenodd" clip-rule="evenodd" d="M463.214 322.573C463.214 322.573 483.113 328.552 487.468 326.559C491.823 324.566 513.444 325.481 518.221 341.729C522.998 357.977 518.828 361.494 513.444 367.116C508.06 372.738 468.482 357.98 460.172 350.285C466.416 332.034 463.214 322.573 463.214 322.573Z" fill="url(#paint47_linear)"/>
<path fill-rule="evenodd" clip-rule="evenodd" d="M349.52 365.846C349.52 350.355 355.512 283.231 361.114 255.653C361.92 251.685 363.292 250.803 364.029 248.544C369.773 270.302 371.539 365.223 369.896 370.916C368.253 376.608 358.643 370.916 349.52 365.846Z" fill="url(#paint48_linear)"/>
<path fill-rule="evenodd" clip-rule="evenodd" d="M405.642 139.783C402.348 140.925 400.563 150.964 401.122 158.547C399.28 154.263 397.399 136.871 403.643 127.503C409.887 118.134 408.937 138.64 405.642 139.783Z" fill="#143B8C"/>
<path fill-rule="evenodd" clip-rule="evenodd" d="M408.945 123.391C396.655 131.359 402.242 141.838 414.839 143.605C427.436 145.373 428.795 145.842 436.535 143.605C438.266 149.252 432.886 154.635 436.535 158.772C439.459 162.073 440.353 163.304 440.527 167.041C440.701 170.778 442.106 171.533 442.106 171.533C442.106 171.533 442.273 161.136 445.639 160.818C449.005 160.5 451.603 162.637 453.47 167.041C454.007 168.309 453.295 165.709 453.47 163.279C453.64 160.912 454.704 158.775 454.704 155.446C454.704 149.428 451.421 142.486 447.928 138.283C439.837 128.547 417.64 121.224 408.945 123.391Z" fill="url(#paint49_linear)"/>
<path fill-rule="evenodd" clip-rule="evenodd" d="M258.105 242.134C278.17 254.933 298.202 264.165 324.763 256.79C351.324 249.415 361.238 254.37 377.117 258.413C392.996 262.456 404.996 270.201 453.741 237.699C452.304 269.527 447.573 325.321 452.488 336.998C440.393 344.668 422.151 368.093 404.144 367.884C386.137 367.675 376.731 350.86 347.442 354.924C318.153 358.989 319.014 370.555 300.077 366.255C281.139 361.955 257.926 342.725 254.867 340.37C254.5 333.368 259.282 264.589 258.105 242.134Z" fill="url(#paint50_linear)"/>
<mask id="mask7" mask-type="alpha" maskUnits="userSpaceOnUse" x="254" y="237" width="200" height="131">
<path fill-rule="evenodd" clip-rule="evenodd" d="M258.105 242.134C278.17 254.933 298.202 264.165 324.763 256.79C351.324 249.415 361.238 254.37 377.117 258.413C392.996 262.456 404.996 270.201 453.741 237.699C452.304 269.527 447.573 325.321 452.488 336.998C440.393 344.668 422.151 368.093 404.144 367.884C386.137 367.675 376.731 350.86 347.442 354.924C318.153 358.989 319.014 370.555 300.077 366.255C281.139 361.955 257.926 342.725 254.867 340.37C254.5 333.368 259.282 264.589 258.105 242.134Z" fill="white"/>
</mask>
<g mask="url(#mask7)">
<g style="mix-blend-mode:multiply" opacity="0.269085">
<path fill-rule="evenodd" clip-rule="evenodd" d="M310.499 248.078L352.872 243.014C352.872 243.014 352.872 262.832 352.872 310.701C352.872 358.57 352.872 399.118 352.872 399.118H305.329C305.329 399.118 304.173 352.859 305.329 319.093C306.485 285.328 310.499 248.078 310.499 248.078Z" fill="url(#paint51_linear)"/>
</g>
<g style="mix-blend-mode:multiply" opacity="0.269085">
<path fill-rule="evenodd" clip-rule="evenodd" d="M352.872 248.078L393.878 243.014C393.878 243.014 393.878 262.832 393.878 310.701C393.878 358.57 393.878 399.118 393.878 399.118H353.782C353.782 399.118 352.872 362.861 352.872 327.758C352.872 292.656 352.872 248.078 352.872 248.078Z" fill="url(#paint52_linear)"/>
</g>
</g>
<path fill-rule="evenodd" clip-rule="evenodd" d="M445.12 316.576C450.731 316.08 450.603 311.431 450.789 312.76C450.975 314.089 464.017 322.807 464.017 322.807C464.017 322.807 466.339 346.163 460.991 350.111C455.644 354.059 448.819 345.531 444.217 346.437C442.268 346.82 437.245 347.012 432.244 345.822C430.566 345.422 424.972 343.83 423.941 343.02C422.648 342.003 421.987 340.727 423.463 339.459C424.05 338.955 431.292 340.922 433.017 341.266C437.95 342.25 442.025 341.011 441.882 340.692C441.649 340.174 437.972 340.592 433.017 339.459C431.278 339.062 427.682 338.363 425.944 337.848C422.093 336.707 418.813 335.009 418.511 334.715C417.695 333.92 417.108 332.708 418.648 331.537C419.3 331.04 420.922 331.537 425.553 332.281C427.562 332.604 431.621 333.632 433.428 333.92C437.296 334.535 440.235 332.881 440.216 332.542C440.197 332.205 437.555 332.996 433.753 332.281C431.722 331.899 427.82 331.446 425.562 331.04C419.583 329.966 416.373 327.841 415.914 327.495C415.071 326.861 414.887 324.666 415.914 324.031C416.508 323.663 419.456 324.389 425.489 325.382C427.674 325.742 431.85 326.412 433.753 326.412C437.555 326.412 439.965 325.56 439.965 325.382C439.965 325.094 432.677 324.29 426.814 323.115C420.935 321.937 420.415 320.712 420.015 320.238C419.468 319.59 419.292 317.212 421.19 317.212C423.963 317.212 425.1 317.57 427.726 317.921C429.588 318.17 434.05 318.36 435.834 318.36C439.372 318.36 443.293 316.738 445.12 316.576Z" fill="url(#paint53_linear)"/>
</g>
<defs>
<filter id="filter0_i" x="120.956" y="101.726" width="357.2" height="200.163" filterUnits="userSpaceOnUse" color-interpolation-filters="sRGB">
<feFlood flood-opacity="0" result="BackgroundImageFix"/>
<feBlend mode="normal" in="SourceGraphic" in2="BackgroundImageFix" result="shape"/>
<feColorMatrix in="SourceAlpha" type="matrix" values="0 0 0 0 0 0 0 0 0 0 0 0 0 0 0 0 0 0 127 0" result="hardAlpha"/>
<feOffset dy="-14"/>
<feGaussianBlur stdDeviation="12.5"/>
<feComposite in2="hardAlpha" operator="arithmetic" k2="-1" k3="1"/>
<feColorMatrix type="matrix" values="0 0 0 0 0.788056 0 0 0 0 0.827193 0 0 0 0 0.89764 0 0 0 0.337126 0"/>
<feBlend mode="normal" in2="shape" result="effect1_innerShadow"/>
</filter>
<filter id="filter1_i" x="346.57" y="2.47815" width="352.941" height="205.306" filterUnits="userSpaceOnUse" color-interpolation-filters="sRGB">
<feFlood flood-opacity="0" result="BackgroundImageFix"/>
<feBlend mode="normal" in="SourceGraphic" in2="BackgroundImageFix" result="shape"/>
<feColorMatrix in="SourceAlpha" type="matrix" values="0 0 0 0 0 0 0 0 0 0 0 0 0 0 0 0 0 0 127 0" result="hardAlpha"/>
<feOffset dy="-14"/>
<feGaussianBlur stdDeviation="12.5"/>
<feComposite in2="hardAlpha" operator="arithmetic" k2="-1" k3="1"/>
<feColorMatrix type="matrix" values="0 0 0 0 0.788056 0 0 0 0 0.827193 0 0 0 0 0.89764 0 0 0 0.337126 0"/>
<feBlend mode="normal" in2="shape" result="effect1_innerShadow"/>
</filter>
<filter id="filter2_i" x="177.535" y="228.925" width="73.4948" height="150.043" filterUnits="userSpaceOnUse" color-interpolation-filters="sRGB">
<feFlood flood-opacity="0" result="BackgroundImageFix"/>
<feBlend mode="normal" in="SourceGraphic" in2="BackgroundImageFix" result="shape"/>
<feColorMatrix in="SourceAlpha" type="matrix" values="0 0 0 0 0 0 0 0 0 0 0 0 0 0 0 0 0 0 127 0" result="hardAlpha"/>
<feOffset/>
<feGaussianBlur stdDeviation="10.5"/>
<feComposite in2="hardAlpha" operator="arithmetic" k2="-1" k3="1"/>
<feColorMatrix type="matrix" values="0 0 0 0 0.683391 0 0 0 0 0.785331 0 0 0 0 0.962027 0 0 0 1 0"/>
<feBlend mode="normal" in2="shape" result="effect1_innerShadow"/>
</filter>
<filter id="filter3_i" x="44.1582" y="130.144" width="131.516" height="241.387" filterUnits="userSpaceOnUse" color-interpolation-filters="sRGB">
<feFlood flood-opacity="0" result="BackgroundImageFix"/>
<feBlend mode="normal" in="SourceGraphic" in2="BackgroundImageFix" result="shape"/>
<feColorMatrix in="SourceAlpha" type="matrix" values="0 0 0 0 0 0 0 0 0 0 0 0 0 0 0 0 0 0 127 0" result="hardAlpha"/>
<feOffset dx="-8" dy="-6"/>
<feGaussianBlur stdDeviation="15"/>
<feComposite in2="hardAlpha" operator="arithmetic" k2="-1" k3="1"/>
<feColorMatrix type="matrix" values="0 0 0 0 0.269084 0 0 0 0 0.79451 0 0 0 0 0.470313 0 0 0 0.5 0"/>
<feBlend mode="normal" in2="shape" result="effect1_innerShadow"/>
</filter>
<filter id="filter4_i" x="225.752" y="232.927" width="137.237" height="137.244" filterUnits="userSpaceOnUse" color-interpolation-filters="sRGB">
<feFlood flood-opacity="0" result="BackgroundImageFix"/>
<feBlend mode="normal" in="SourceGraphic" in2="BackgroundImageFix" result="shape"/>
<feColorMatrix in="SourceAlpha" type="matrix" values="0 0 0 0 0 0 0 0 0 0 0 0 0 0 0 0 0 0 127 0" result="hardAlpha"/>
<feOffset dy="-9"/>
<feGaussianBlur stdDeviation="5.5"/>
<feComposite in2="hardAlpha" operator="arithmetic" k2="-1" k3="1"/>
<feColorMatrix type="matrix" values="0 0 0 0 0.818241 0 0 0 0 0.879823 0 0 0 0 0.96604 0 0 0 1 0"/>
<feBlend mode="normal" in2="shape" result="effect1_innerShadow"/>
</filter>
<filter id="filter5_i" x="464.106" y="239.877" width="63.7254" height="131.487" filterUnits="userSpaceOnUse" color-interpolation-filters="sRGB">
<feFlood flood-opacity="0" result="BackgroundImageFix"/>
<feBlend mode="normal" in="SourceGraphic" in2="BackgroundImageFix" result="shape"/>
<feColorMatrix in="SourceAlpha" type="matrix" values="0 0 0 0 0 0 0 0 0 0 0 0 0 0 0 0 0 0 127 0" result="hardAlpha"/>
<feOffset dx="-8" dy="3"/>
<feGaussianBlur stdDeviation="3.5"/>
<feComposite in2="hardAlpha" operator="arithmetic" k2="-1" k3="1"/>
<feColorMatrix type="matrix" values="0 0 0 0 0.631373 0 0 0 0 0.721569 0 0 0 0 0.890196 0 0 0 0.137483 0"/>
<feBlend mode="normal" in2="shape" result="effect1_innerShadow"/>
</filter>
<radialGradient id="paint0_radial" cx="0" cy="0" r="1" gradientUnits="userSpaceOnUse" gradientTransform="translate(435.774 385.15) rotate(-112.466) scale(178.916 264.751)">
<stop stop-color="white"/>
<stop offset="1" stop-color="#D6E3FA"/>
</radialGradient>
<linearGradient id="paint1_linear" x1="358.401" y1="277.358" x2="377.258" y2="150.529" gradientUnits="userSpaceOnUse">
<stop stop-color="#ECF1FF"/>
<stop offset="1" stop-color="white"/>
</linearGradient>
<linearGradient id="paint2_linear" x1="580.963" y1="179.419" x2="600.358" y2="51.8207" gradientUnits="userSpaceOnUse">
<stop stop-color="#ECF1FF"/>
<stop offset="1" stop-color="white"/>
</linearGradient>
<linearGradient id="paint3_linear" x1="160.56" y1="372.07" x2="178.583" y2="422.685" gradientUnits="userSpaceOnUse">
<stop stop-color="#EDF3FD" stop-opacity="0.01"/>
<stop offset="1" stop-color="#D6E3FA"/>
</linearGradient>
<linearGradient id="paint4_linear" x1="280.144" y1="257.264" x2="213.931" y2="257.264" gradientUnits="userSpaceOnUse">
<stop stop-color="#A0BDE6"/>
<stop offset="1" stop-color="#E3EDFC"/>
</linearGradient>
<linearGradient id="paint5_linear" x1="254.921" y1="210.75" x2="206.16" y2="210.28" gradientUnits="userSpaceOnUse">
<stop stop-color="#CFDDF3"/>
<stop offset="1" stop-color="#B2C7ED"/>
</linearGradient>
<linearGradient id="paint6_linear" x1="227.555" y1="340.182" x2="218.078" y2="317.191" gradientUnits="userSpaceOnUse">
<stop stop-color="#CFDDF3"/>
<stop offset="1" stop-color="#A1B8E3"/>
</linearGradient>
<linearGradient id="paint7_linear" x1="282.189" y1="342.638" x2="214.149" y2="333.694" gradientUnits="userSpaceOnUse">
<stop stop-color="#CFDDF3"/>
<stop offset="1" stop-color="#A1B8E3"/>
</linearGradient>
<linearGradient id="paint8_linear" x1="243.817" y1="269.95" x2="192.337" y2="265.237" gradientUnits="userSpaceOnUse">
<stop stop-color="#CFDDF3"/>
<stop offset="1" stop-color="#A1B8E3"/>
</linearGradient>
<radialGradient id="paint9_radial" cx="0" cy="0" r="1" gradientUnits="userSpaceOnUse" gradientTransform="translate(146.875 161.643) rotate(150.84) scale(146.65 453.257)">
<stop stop-color="#64CF9B"/>
<stop offset="1" stop-color="#ADF9A9"/>
</radialGradient>
<linearGradient id="paint10_linear" x1="95.8999" y1="166.065" x2="95.8999" y2="408.003" gradientUnits="userSpaceOnUse">
<stop stop-color="#80D4AE"/>
<stop offset="1" stop-color="#4CB67D"/>
</linearGradient>
<linearGradient id="paint11_linear" x1="94.5317" y1="245.344" x2="94.5317" y2="270.631" gradientUnits="userSpaceOnUse">
<stop stop-color="#64DEA8"/>
<stop offset="1" stop-color="#4CB67D"/>
</linearGradient>
<linearGradient id="paint12_linear" x1="72.6616" y1="311.638" x2="72.6616" y2="343.076" gradientUnits="userSpaceOnUse">
<stop stop-color="#64DEA8"/>
<stop offset="1" stop-color="#4CB67D"/>
</linearGradient>
<linearGradient id="paint13_linear" x1="100.683" y1="291.135" x2="100.683" y2="310.271" gradientUnits="userSpaceOnUse">
<stop stop-color="#64DEA8"/>
<stop offset="1" stop-color="#4CB67D"/>
</linearGradient>
<linearGradient id="paint14_linear" x1="120.503" y1="171.533" x2="120.503" y2="207.755" gradientUnits="userSpaceOnUse">
<stop stop-color="#64DEA8"/>
<stop offset="1" stop-color="#4CB67D"/>
</linearGradient>
<linearGradient id="paint15_linear" x1="287.896" y1="347.34" x2="280.296" y2="392.447" gradientUnits="userSpaceOnUse">
<stop stop-color="#577FBE"/>
<stop offset="1" stop-color="#A1B8E3"/>
</linearGradient>
<linearGradient id="paint16_linear" x1="269.656" y1="351.378" x2="267.973" y2="377.577" gradientUnits="userSpaceOnUse">
<stop stop-color="#577FBE"/>
<stop offset="1" stop-color="#A1B8E3" stop-opacity="0.262228"/>
</linearGradient>
<linearGradient id="paint17_linear" x1="358.383" y1="352.549" x2="225.527" y2="348.172" gradientUnits="userSpaceOnUse">
<stop stop-color="#0C1F63"/>
<stop offset="0.562912" stop-color="#102F7A"/>
<stop offset="1" stop-color="#3861B6"/>
</linearGradient>
<linearGradient id="paint18_linear" x1="372.939" y1="172.832" x2="337.889" y2="145.916" gradientUnits="userSpaceOnUse">
<stop stop-color="#294FA9"/>
<stop offset="1" stop-color="#316EEA"/>
</linearGradient>
<radialGradient id="paint19_radial" cx="0" cy="0" r="1" gradientUnits="userSpaceOnUse" gradientTransform="translate(281.367 148.296) rotate(96.931) scale(41.3054 87.1028)">
<stop stop-color="#70B8F9"/>
<stop offset="1" stop-color="#3D82F0"/>
</radialGradient>
<linearGradient id="paint20_linear" x1="306.569" y1="245.399" x2="306.569" y2="264.824" gradientUnits="userSpaceOnUse">
<stop stop-color="#6886B3"/>
<stop offset="1" stop-color="#90AADB"/>
</linearGradient>
<linearGradient id="paint21_linear" x1="270.079" y1="224.184" x2="301.248" y2="230.8" gradientUnits="userSpaceOnUse">
<stop stop-color="#CFDDF3"/>
<stop offset="1" stop-color="#A1B8E3"/>
</linearGradient>
<linearGradient id="paint22_linear" x1="306.889" y1="216.092" x2="285.519" y2="215.353" gradientUnits="userSpaceOnUse">
<stop stop-color="#072246"/>
<stop offset="1" stop-color="#143B8C"/>
</linearGradient>
<radialGradient id="paint23_radial" cx="0" cy="0" r="1" gradientUnits="userSpaceOnUse" gradientTransform="translate(289.997 184.597) rotate(-11.9377) scale(27.5926 115.319)">
<stop stop-color="#2D6DC0"/>
<stop offset="1" stop-color="#143B8C"/>
</radialGradient>
<linearGradient id="paint24_linear" x1="227.51" y1="250.19" x2="227.51" y2="295.251" gradientUnits="userSpaceOnUse">
<stop stop-color="#F4F8FF"/>
<stop offset="1" stop-color="#E5EFFD"/>
</linearGradient>
<linearGradient id="paint25_linear" x1="220.115" y1="263.455" x2="220.115" y2="286.351" gradientUnits="userSpaceOnUse">
<stop stop-color="#18407E"/>
<stop offset="1" stop-color="#90AADB"/>
</linearGradient>
<linearGradient id="paint26_linear" x1="201.061" y1="280.884" x2="209.713" y2="238.591" gradientUnits="userSpaceOnUse">
<stop stop-color="#577FBE"/>
<stop offset="1" stop-color="#B1C9F7"/>
</linearGradient>
<linearGradient id="paint27_linear" x1="215.747" y1="242.203" x2="215.747" y2="277.724" gradientUnits="userSpaceOnUse">
<stop stop-color="#A9C4E5"/>
<stop offset="1" stop-color="#7192C7"/>
</linearGradient>
<linearGradient id="paint28_linear" x1="483.351" y1="117.08" x2="448.216" y2="91.0381" gradientUnits="userSpaceOnUse">
<stop stop-color="#294FA9"/>
<stop offset="1" stop-color="#316EEA"/>
</linearGradient>
<radialGradient id="paint29_radial" cx="0" cy="0" r="1" gradientUnits="userSpaceOnUse" gradientTransform="translate(398.507 97.0378) rotate(97.3214) scale(38.3665 85.3656)">
<stop stop-color="#70B8F9"/>
<stop offset="1" stop-color="#3D82F0"/>
</radialGradient>
<linearGradient id="paint30_linear" x1="431.053" y1="190.646" x2="416.921" y2="198.592" gradientUnits="userSpaceOnUse">
<stop stop-color="#6886B3"/>
<stop offset="1" stop-color="#90AADB"/>
</linearGradient>
<linearGradient id="paint31_linear" x1="410.215" y1="165.602" x2="410.215" y2="211.061" gradientUnits="userSpaceOnUse">
<stop stop-color="#A9C4E5"/>
<stop offset="1" stop-color="#7192C7"/>
</linearGradient>
<linearGradient id="paint32_linear" x1="382.745" y1="177.783" x2="417.561" y2="185.28" gradientUnits="userSpaceOnUse">
<stop stop-color="#CFDDF3"/>
<stop offset="1" stop-color="#A1B8E3"/>
</linearGradient>
<linearGradient id="paint33_linear" x1="468.737" y1="314.692" x2="382.585" y2="327.961" gradientUnits="userSpaceOnUse">
<stop stop-color="#2664C7"/>
<stop offset="1" stop-color="#3D82F0"/>
</linearGradient>
<linearGradient id="paint34_linear" x1="402.793" y1="452.188" x2="402.793" y2="643.606" gradientUnits="userSpaceOnUse">
<stop stop-color="#75A8D6"/>
<stop offset="1" stop-color="#92A8CA" stop-opacity="0.01"/>
</linearGradient>
<linearGradient id="paint35_linear" x1="351.405" y1="364.35" x2="346.688" y2="434.01" gradientUnits="userSpaceOnUse">
<stop stop-color="#75A8D6"/>
<stop offset="1" stop-color="#92A8CA" stop-opacity="0.01"/>
</linearGradient>
<linearGradient id="paint36_linear" x1="359.267" y1="354.064" x2="324.926" y2="403.657" gradientUnits="userSpaceOnUse">
<stop stop-color="#577FBE"/>
<stop offset="1" stop-color="#A1B8E3"/>
</linearGradient>
<linearGradient id="paint37_linear" x1="362.953" y1="368.482" x2="362.953" y2="419.654" gradientUnits="userSpaceOnUse">
<stop stop-color="#A9C4E5"/>
<stop offset="1" stop-color="#7192C7"/>
</linearGradient>
<linearGradient id="paint38_linear" x1="499.798" y1="398.152" x2="483.59" y2="252.472" gradientUnits="userSpaceOnUse">
<stop stop-color="#F4F8FF"/>
<stop offset="1" stop-color="#C3D8F5"/>
</linearGradient>
<linearGradient id="paint39_linear" x1="408.786" y1="344.547" x2="354.97" y2="359.284" gradientUnits="userSpaceOnUse">
<stop stop-color="white" stop-opacity="0.5"/>
<stop offset="1" stop-color="#AFC3E5"/>
</linearGradient>
<linearGradient id="paint40_linear" x1="401.644" y1="272.029" x2="356.624" y2="234.831" gradientUnits="userSpaceOnUse">
<stop stop-color="white" stop-opacity="0.01"/>
<stop offset="1" stop-color="#A1B8E3"/>
</linearGradient>
<linearGradient id="paint41_linear" x1="455.707" y1="473.571" x2="498.366" y2="472.415" gradientUnits="userSpaceOnUse">
<stop stop-color="#EAF0F7" stop-opacity="0.115546"/>
<stop offset="1" stop-color="#D1DDED"/>
</linearGradient>
<linearGradient id="paint42_linear" x1="402.192" y1="248.942" x2="418.117" y2="247.964" gradientUnits="userSpaceOnUse">
<stop stop-color="#EAF0F7" stop-opacity="0.115546"/>
<stop offset="1" stop-color="#D1DDED"/>
</linearGradient>
<linearGradient id="paint43_linear" x1="420.886" y1="244.685" x2="434.84" y2="243.839" gradientUnits="userSpaceOnUse">
<stop stop-color="#EAF0F7" stop-opacity="0.115546"/>
<stop offset="1" stop-color="#D1DDED"/>
</linearGradient>
<linearGradient id="paint44_linear" x1="480.403" y1="350.326" x2="524.705" y2="337.948" gradientUnits="userSpaceOnUse">
<stop stop-color="#E2E9F4"/>
<stop offset="1" stop-color="#E5EFFD"/>
</linearGradient>
<linearGradient id="paint45_linear" x1="483.217" y1="262.603" x2="450.774" y2="268.178" gradientUnits="userSpaceOnUse">
<stop stop-color="white" stop-opacity="0.01"/>
<stop offset="1" stop-color="white"/>
</linearGradient>
<linearGradient id="paint46_linear" x1="501.633" y1="380.013" x2="512.082" y2="344.951" gradientUnits="userSpaceOnUse">
<stop stop-color="#577FBE"/>
<stop offset="1" stop-color="#A1B8E3"/>
</linearGradient>
<linearGradient id="paint47_linear" x1="495.275" y1="326.032" x2="489.286" y2="344.855" gradientUnits="userSpaceOnUse">
<stop stop-color="white" stop-opacity="0.5"/>
<stop offset="1" stop-color="#A1B8E3" stop-opacity="0.01"/>
</linearGradient>
<linearGradient id="paint48_linear" x1="349.52" y1="248.544" x2="349.52" y2="373.29" gradientUnits="userSpaceOnUse">
<stop stop-color="#B5CCEF"/>
<stop offset="1" stop-color="#E5EFFD"/>
</linearGradient>
<linearGradient id="paint49_linear" x1="423.48" y1="157.512" x2="433.365" y2="138.946" gradientUnits="userSpaceOnUse">
<stop stop-color="#2D6DC0"/>
<stop offset="1" stop-color="#143B8C"/>
</linearGradient>
<linearGradient id="paint50_linear" x1="470.036" y1="324.356" x2="443.651" y2="293.282" gradientUnits="userSpaceOnUse">
<stop stop-color="#FF7F31"/>
<stop offset="1" stop-color="#FFD25F"/>
</linearGradient>
<linearGradient id="paint51_linear" x1="325.299" y1="439.591" x2="376.871" y2="435.001" gradientUnits="userSpaceOnUse">
<stop stop-color="#FF7F31"/>
<stop offset="1" stop-color="#FFD25F"/>
</linearGradient>
<linearGradient id="paint52_linear" x1="407.701" y1="326.591" x2="356.361" y2="308.407" gradientUnits="userSpaceOnUse">
<stop stop-color="#FF7F31"/>
<stop offset="1" stop-color="#FFC83A"/>
</linearGradient>
<linearGradient id="paint53_linear" x1="466.825" y1="363.443" x2="466.825" y2="326.552" gradientUnits="userSpaceOnUse">
<stop stop-color="#577FBE"/>
<stop offset="1" stop-color="#A1B8E3"/>
</linearGradient>
</defs>
</svg>
