<svg width="495" height="378" viewBox="0 0 495 378" fill="none" xmlns="http://www.w3.org/2000/svg">
<g clip-path="url(#clip0)">
<path opacity="0.7" fill-rule="evenodd" clip-rule="evenodd" d="M46.1411 322.987C61.2795 322.987 73.5516 325.646 73.5516 328.926C73.5516 332.206 61.2795 334.865 46.1411 334.865C31.0026 334.865 18.7305 332.206 18.7305 328.926C18.7305 325.646 31.0026 322.987 46.1411 322.987Z" fill="url(#paint0_linear)"/>
<path fill-rule="evenodd" clip-rule="evenodd" d="M82.6689 294.376C84.7313 297.989 85.8863 302.037 85.8863 306.313C85.8863 321.577 71.1599 333.952 52.9938 333.952C34.8276 333.952 20.1012 321.577 20.1012 306.313C20.1012 301.789 21.3947 297.518 23.688 293.749C38.2593 296.056 67.2625 295.907 82.6689 294.376Z" fill="url(#paint1_linear)"/>
<mask id="mask0" mask-type="alpha" maskUnits="userSpaceOnUse" x="20" y="293" width="66" height="41">
<path fill-rule="evenodd" clip-rule="evenodd" d="M82.6689 294.376C84.7313 297.989 85.8863 302.037 85.8863 306.313C85.8863 321.577 71.1599 333.952 52.9938 333.952C34.8276 333.952 20.1012 321.577 20.1012 306.313C20.1012 301.789 21.3947 297.518 23.688 293.749C38.2593 296.056 67.2625 295.907 82.6689 294.376Z" fill="white"/>
</mask>
<g mask="url(#mask0)">
</g>
<path fill-rule="evenodd" clip-rule="evenodd" d="M53.2221 288.267C69.7482 288.267 83.1452 291.438 83.1452 295.348C83.1452 299.259 69.7482 302.429 53.2221 302.429C36.696 302.429 23.2989 299.259 23.2989 295.348C23.2989 291.438 36.696 288.267 53.2221 288.267Z" fill="url(#paint2_linear)"/>
<mask id="mask1" mask-type="alpha" maskUnits="userSpaceOnUse" x="23" y="288" width="61" height="15">
<path fill-rule="evenodd" clip-rule="evenodd" d="M53.2221 288.267C69.7482 288.267 83.1452 291.438 83.1452 295.348C83.1452 299.259 69.7482 302.429 53.2221 302.429C36.696 302.429 23.2989 299.259 23.2989 295.348C23.2989 291.438 36.696 288.267 53.2221 288.267Z" fill="white"/>
</mask>
<g mask="url(#mask1)">
</g>
<g filter="url(#filter0_i)">
<path fill-rule="evenodd" clip-rule="evenodd" d="M50.7095 290.095C49.0754 278.786 44.58 262.456 31.0654 244.867C23.1043 234.506 23.0783 209.275 21.9286 206.493C28.1755 208.641 39.3974 214.178 50.7095 229.792C62.5678 246.159 55.0451 279.538 50.7095 290.095Z" fill="url(#paint3_linear)"/>
</g>
<mask id="mask2" mask-type="alpha" maskUnits="userSpaceOnUse" x="21" y="206" width="37" height="85">
<path fill-rule="evenodd" clip-rule="evenodd" d="M50.7095 290.095C49.0754 278.786 44.58 262.456 31.0654 244.867C23.1043 234.506 23.0783 209.275 21.9286 206.493C28.1755 208.641 39.3974 214.178 50.7095 229.792C62.5678 246.159 55.0451 279.538 50.7095 290.095Z" fill="white"/>
</mask>
<g mask="url(#mask2)">
<g style="mix-blend-mode:multiply" opacity="0.5">
<path d="M48.9679 276.76L40.7418 237.833C46.1734 248.802 48.6784 260.879 48.9679 276.76Z" fill="black" fill-opacity="0.01"/>
<path d="M48.9679 276.76L40.7418 237.833C46.1734 248.802 48.6784 260.879 48.9679 276.76Z" stroke="#489C71" stroke-width="3"/>
</g>
</g>
<g filter="url(#filter1_i)">
<path fill-rule="evenodd" clip-rule="evenodd" d="M50.7599 301.702C45.7114 293.627 36.7915 282.684 20.5661 273.811C11.0083 268.584 2.50661 249.351 0.693867 247.616C6.18285 247.155 16.6075 247.608 30.4881 255.714C45.0388 264.212 50.5192 292.195 50.7599 301.702Z" fill="url(#paint4_linear)"/>
</g>
<mask id="mask3" mask-type="alpha" maskUnits="userSpaceOnUse" x="0" y="247" width="51" height="55">
<path fill-rule="evenodd" clip-rule="evenodd" d="M50.7599 301.702C45.7114 293.627 36.7915 282.684 20.5661 273.811C11.0083 268.584 2.50661 249.351 0.693867 247.616C6.18285 247.155 16.6075 247.608 30.4881 255.714C45.0388 264.212 50.5192 292.195 50.7599 301.702Z" fill="white"/>
</mask>
<g mask="url(#mask3)">
<g style="mix-blend-mode:multiply" opacity="0.5">
<path d="M43.5338 289.724L27.0292 266.776C33.5147 272.597 38.711 279.86 43.5338 289.724Z" fill="black" fill-opacity="0.01"/>
<path d="M43.5338 289.724L27.0292 266.776C33.5147 272.597 38.711 279.86 43.5338 289.724Z" stroke="#489C71" stroke-width="3"/>
</g>
</g>
<g filter="url(#filter2_i)">
<path fill-rule="evenodd" clip-rule="evenodd" d="M54.3857 302.809C58.3664 294.117 65.831 282.071 80.841 271.143C89.683 264.706 95.6552 244.459 97.2355 242.497C91.7083 242.746 81.3835 244.541 68.6095 254.403C55.2188 264.741 53.3915 293.311 54.3857 302.809Z" fill="url(#paint5_linear)"/>
</g>
<mask id="mask4" mask-type="alpha" maskUnits="userSpaceOnUse" x="54" y="242" width="44" height="61">
<path fill-rule="evenodd" clip-rule="evenodd" d="M54.3857 302.809C58.3664 294.117 65.831 282.071 80.841 271.143C89.683 264.706 95.6552 244.459 97.2355 242.497C91.7083 242.746 81.3835 244.541 68.6095 254.403C55.2188 264.741 53.3915 293.311 54.3857 302.809Z" fill="white"/>
</mask>
<g mask="url(#mask4)">
<g style="mix-blend-mode:multiply" opacity="0.5">
<path d="M72.0026 264.791L58.4711 289.899C62.009 279.39 66.2617 271.451 72.0026 264.791Z" fill="black" fill-opacity="0.01"/>
<path d="M72.0026 264.791L58.4711 289.899C62.009 279.39 66.2617 271.451 72.0026 264.791Z" stroke="#489C71" stroke-width="3"/>
</g>
</g>
<path fill-rule="evenodd" clip-rule="evenodd" d="M486.572 319.789H200.589C196.552 319.789 193.28 316.517 193.28 312.48V7.76629C193.28 3.72927 196.552 0.456991 200.589 0.456991H486.572C490.609 0.456991 493.882 3.72927 493.882 7.76629V312.48C493.882 316.504 490.631 319.768 486.572 319.789Z" fill="url(#paint6_radial)"/>
<rect x="212" y="19" width="268" height="178" rx="8" fill="#C2D0EA"/>
<rect x="208" y="15" width="268" height="178" rx="8" fill="white"/>
<path fill-rule="evenodd" clip-rule="evenodd" d="M270.575 121.417C274.441 121.417 277.575 118.283 277.575 114.417C277.575 110.551 274.441 107.417 270.575 107.417C266.709 107.417 263.575 110.551 263.575 114.417C263.575 118.283 266.709 121.417 270.575 121.417Z" fill="#B1FFBE"/>
<path fill-rule="evenodd" clip-rule="evenodd" d="M314 164C321.732 164 328 157.732 328 150C328 142.268 321.732 136 314 136C306.268 136 300 142.268 300 150C300 157.732 306.268 164 314 164Z" fill="#8D6CD1" fill-opacity="0.2"/>
<path fill-rule="evenodd" clip-rule="evenodd" d="M404 141C407.866 141 411 137.866 411 134C411 130.134 407.866 127 404 127C400.134 127 397 130.134 397 134C397 137.866 400.134 141 404 141Z" fill="#8D6CD1" fill-opacity="0.2"/>
<path fill-rule="evenodd" clip-rule="evenodd" d="M422 92C425.866 92 429 88.866 429 84.9999C429 81.134 425.866 78 422 78C418.134 78 415 81.134 415 84.9999C415 88.866 418.134 92 422 92Z" fill="#F9C8DC"/>
<path fill-rule="evenodd" clip-rule="evenodd" d="M434 171C437.866 171 441 167.866 441 164C441 160.134 437.866 157 434 157C430.134 157 427 160.134 427 164C427 167.866 430.134 171 434 171Z" fill="#B1FFBE"/>
<path fill-rule="evenodd" clip-rule="evenodd" d="M365 126C368.314 126 371 123.314 371 120C371 116.686 368.314 114 365 114C361.686 114 359 116.686 359 120C359 123.314 361.686 126 365 126Z" fill="#8D6CD1" fill-opacity="0.2"/>
<path fill-rule="evenodd" clip-rule="evenodd" d="M316 54C320.418 54 324 50.4183 324 45.9999C324 41.5817 320.418 38 316 38C311.582 38 308 41.5817 308 45.9999C308 50.4183 311.582 54 316 54Z" fill="#EC4989" fill-opacity="0.3"/>
<path fill-rule="evenodd" clip-rule="evenodd" d="M292 83C298.075 83 303 78.0751 303 71.9999C303 65.9249 298.075 61 292 61C285.925 61 281 65.9249 281 71.9999C281 78.0751 285.925 83 292 83Z" fill="#FFDFC0"/>
<path fill-rule="evenodd" clip-rule="evenodd" d="M240 43C242.209 43 244 41.2091 244 39C244 36.7909 242.209 35 240 35C237.791 35 236 36.7909 236 39C236 41.2091 237.791 43 240 43Z" fill="#B1FFBE"/>
<line x1="343" y1="183" x2="343" y2="25" stroke="#EFF4FD" stroke-width="4"/>
<line x1="231" y1="102" x2="451" y2="102" stroke="#EFF4FD" stroke-width="4"/>
<g opacity="0.1">
<path fill-rule="evenodd" clip-rule="evenodd" d="M294.699 276.846H251.299C248.776 276.846 246.73 274.801 246.73 272.278V228.878C246.73 226.355 248.776 224.31 251.299 224.31H294.699C297.222 224.31 299.267 226.355 299.267 228.878V272.278C299.267 274.786 297.246 276.822 294.699 276.846Z" fill="#7E9ACA"/>
<path fill-rule="evenodd" clip-rule="evenodd" d="M447.284 238.928H308.404C307.647 238.928 307.033 238.315 307.033 237.558V226.594C307.033 225.837 307.647 225.223 308.404 225.223H447.284C448.041 225.223 448.654 225.837 448.654 226.594V237.558C448.654 238.301 448.064 238.905 447.284 238.928Z" fill="#7E9ACA"/>
<path fill-rule="evenodd" clip-rule="evenodd" d="M415.305 261.771H308.404C307.647 261.771 307.033 261.157 307.033 260.4V249.436C307.033 248.679 307.647 248.065 308.404 248.065H415.305C416.062 248.065 416.676 248.679 416.676 249.436V260.4C416.676 261.143 416.085 261.747 415.305 261.771Z" fill="#7E9ACA"/>
</g>
<path fill-rule="evenodd" clip-rule="evenodd" d="M443.629 233.903H304.749C303.992 233.903 303.379 233.29 303.379 232.533V221.568C303.379 220.812 303.992 220.198 304.749 220.198H443.629C444.386 220.198 445 220.812 445 221.568V232.533C445 233.275 444.409 233.88 443.629 233.903Z" fill="white"/>
<path fill-rule="evenodd" clip-rule="evenodd" d="M411.65 256.745H304.749C303.992 256.745 303.379 256.132 303.379 255.375V244.41C303.379 243.654 303.992 243.04 304.749 243.04H411.65C412.407 243.04 413.021 243.654 413.021 244.41V255.375C413.021 256.117 412.43 256.722 411.65 256.745Z" fill="white"/>
<path fill-rule="evenodd" clip-rule="evenodd" d="M289.673 271.821H246.273C243.75 271.821 241.705 269.776 241.705 267.253V223.853C241.705 221.33 243.75 219.284 246.273 219.284H289.673C292.197 219.284 294.242 221.33 294.242 223.853V267.253C294.242 269.761 292.221 271.797 289.673 271.821Z" fill="white"/>
<path fill-rule="evenodd" clip-rule="evenodd" d="M239.118 361.269H225.841C223.995 357.425 222.771 354.129 222.169 351.383C221.265 347.264 219.906 344.2 221.265 338.64C222.625 333.079 238.263 329.928 240.236 331.709C242.209 333.49 241.888 334.443 249.705 338.594C254.427 341.102 263.167 345.144 275.925 350.72C278.411 351.807 280.017 354.262 280.017 356.975C280.017 359.458 278.027 361.484 275.544 361.529C261.658 361.779 253.015 361.904 249.614 361.904C245.925 360.567 242.426 358.92 239.118 356.962V361.269Z" fill="url(#paint7_linear)"/>
<mask id="path-37-inside-1" fill="white">
<path fill-rule="evenodd" clip-rule="evenodd" d="M255.832 345.373C256.745 344.4 261.542 341.376 263.598 343.212L255.832 345.373Z"/>
</mask>
<path fill-rule="evenodd" clip-rule="evenodd" d="M255.832 345.373C256.745 344.4 261.542 341.376 263.598 343.212L255.832 345.373Z" fill="black" fill-opacity="0.01"/>
<path d="M258.746 348.112C258.656 348.208 258.647 348.2 258.79 348.09C258.909 347.998 259.082 347.874 259.302 347.733C259.748 347.447 260.285 347.154 260.812 346.937C261.372 346.706 261.727 346.64 261.86 346.633C261.981 346.626 261.476 346.68 260.933 346.195L266.263 340.229C264.692 338.826 262.816 338.57 261.431 338.644C260.058 338.718 258.771 339.125 257.76 339.542C256.717 339.972 255.756 340.503 254.981 341C254.276 341.452 253.481 342.033 252.917 342.633L258.746 348.112Z" fill="#D2DDF1" mask="url(#path-37-inside-1)"/>
<path fill-rule="evenodd" clip-rule="evenodd" d="M160.801 265.542C160.801 265.542 201.536 242.866 211.802 238.707C222.068 234.549 238.277 230.164 240.51 231.769C242.744 233.374 256.341 245.061 260.688 263.014C265.036 280.968 268.059 333.235 273.212 337.175C267.033 342.082 221.889 349.582 211.802 346.194C211.802 333.891 209.901 303.131 211.802 297.166C207.991 298.973 183.113 311.655 172.842 314.356C167.81 315.679 157.227 303.312 155.484 291.04C153.671 278.267 160.801 265.542 160.801 265.542Z" fill="url(#paint8_linear)"/>
<path fill-rule="evenodd" clip-rule="evenodd" d="M160.801 265.542C160.801 265.542 201.536 242.866 211.802 238.707C222.068 234.549 238.277 230.164 240.51 231.769C242.744 233.374 256.341 245.061 260.688 263.014C265.036 280.968 268.059 333.235 273.212 337.175C267.033 342.082 221.889 349.582 211.802 346.194C211.802 333.891 209.901 303.131 211.802 297.166C207.991 298.973 183.113 311.655 172.842 314.356C167.81 315.679 157.227 303.312 155.484 291.04C153.671 278.267 160.801 265.542 160.801 265.542Z" fill="url(#paint9_radial)"/>
<path fill-rule="evenodd" clip-rule="evenodd" d="M160.801 265.542C160.801 265.542 201.536 242.866 211.802 238.707C222.068 234.549 238.277 230.164 240.51 231.769C242.744 233.374 256.341 245.061 260.688 263.014C265.036 280.968 268.059 333.235 273.212 337.175C267.033 342.082 221.889 349.582 211.802 346.194C211.802 333.891 209.901 303.131 211.802 297.166C207.991 298.973 183.113 311.655 172.842 314.356C167.81 315.679 157.227 303.312 155.484 291.04C153.671 278.267 160.801 265.542 160.801 265.542Z" fill="url(#paint10_linear)"/>
<mask id="mask5" mask-type="alpha" maskUnits="userSpaceOnUse" x="155" y="231" width="119" height="117">
<path fill-rule="evenodd" clip-rule="evenodd" d="M160.801 265.542C160.801 265.542 201.536 242.866 211.802 238.707C222.068 234.549 238.277 230.164 240.51 231.769C242.744 233.374 256.341 245.061 260.688 263.014C265.036 280.968 268.059 333.235 273.212 337.175C267.033 342.082 221.889 349.582 211.802 346.194C211.802 333.891 209.901 303.131 211.802 297.166C207.991 298.973 183.113 311.655 172.842 314.356C167.81 315.679 157.227 303.312 155.484 291.04C153.671 278.267 160.801 265.542 160.801 265.542Z" fill="white"/>
<path fill-rule="evenodd" clip-rule="evenodd" d="M160.801 265.542C160.801 265.542 201.536 242.866 211.802 238.707C222.068 234.549 238.277 230.164 240.51 231.769C242.744 233.374 256.341 245.061 260.688 263.014C265.036 280.968 268.059 333.235 273.212 337.175C267.033 342.082 221.889 349.582 211.802 346.194C211.802 333.891 209.901 303.131 211.802 297.166C207.991 298.973 183.113 311.655 172.842 314.356C167.81 315.679 157.227 303.312 155.484 291.04C153.671 278.267 160.801 265.542 160.801 265.542Z" stroke="white"/>
</mask>
<g mask="url(#mask5)">
</g>
<path fill-rule="evenodd" clip-rule="evenodd" d="M213.679 295.418C216.193 293.519 223.665 286.977 225.575 286.071C222.317 292.567 219.291 305.608 219.291 311.6C216.279 309.645 213.571 307.648 211.165 305.608C211.165 300.081 212.003 296.685 213.679 295.418Z" fill="url(#paint11_linear)"/>
<mask id="mask6" mask-type="alpha" maskUnits="userSpaceOnUse" x="211" y="286" width="15" height="26">
<path fill-rule="evenodd" clip-rule="evenodd" d="M213.679 295.418C216.193 293.519 223.665 286.977 225.575 286.071C222.317 292.567 219.291 305.608 219.291 311.6C216.279 309.645 213.571 307.648 211.165 305.608C211.165 300.081 212.003 296.685 213.679 295.418Z" fill="white"/>
</mask>
<g mask="url(#mask6)">
</g>
<path fill-rule="evenodd" clip-rule="evenodd" d="M100.714 318.109C98.5093 319.853 96.3605 363.582 100.714 364.477C105.068 365.372 116.462 355.306 113.591 336.662C110.721 318.018 102.933 320.219 100.714 318.109Z" fill="url(#paint12_linear)"/>
<mask id="mask7" mask-type="alpha" maskUnits="userSpaceOnUse" x="98" y="318" width="17" height="47">
<path fill-rule="evenodd" clip-rule="evenodd" d="M100.714 318.109C98.5093 319.853 96.3605 363.582 100.714 364.477C105.068 365.372 116.462 355.306 113.591 336.662C110.721 318.018 102.933 320.219 100.714 318.109Z" fill="white"/>
</mask>
<g mask="url(#mask7)">
</g>
<path fill-rule="evenodd" clip-rule="evenodd" d="M114.926 344.709C109.982 347.278 103.202 346.108 94.5865 341.198C92.4837 345.947 91.1183 349.274 90.4902 351.18C87.7315 359.548 88.602 363.891 93.1015 364.209C99.1379 364.636 106.413 364.85 114.926 364.85C119.87 348.853 119.87 342.14 114.926 344.709Z" fill="url(#paint13_linear)"/>
<mask id="mask8" mask-type="alpha" maskUnits="userSpaceOnUse" x="88" y="341" width="31" height="24">
<path fill-rule="evenodd" clip-rule="evenodd" d="M114.926 344.709C109.982 347.278 103.202 346.108 94.5865 341.198C92.4837 345.947 91.1183 349.274 90.4902 351.18C87.7315 359.548 88.602 363.891 93.1015 364.209C99.1379 364.636 106.413 364.85 114.926 364.85C119.87 348.853 119.87 342.14 114.926 344.709Z" fill="white"/>
</mask>
<g mask="url(#mask8)">
<g opacity="0.6">
<path fill-rule="evenodd" clip-rule="evenodd" d="M102.646 365.471C104.413 360.887 102.439 345.849 98.6867 341.646C94.9346 337.443 112.408 344.348 112.408 344.348C112.408 344.348 111.325 355.086 109.946 358.133C105.888 367.103 101.767 367.752 102.646 365.471Z" fill="url(#paint14_linear)" style="mix-blend-mode:multiply"/>
</g>
</g>
<path fill-rule="evenodd" clip-rule="evenodd" d="M88.6374 337.416C92.2661 339.564 94.3749 340.889 99.031 343.069C100.779 343.888 95.7511 346.007 90.7044 352.999C86.3369 359.049 92.474 363.895 90.7044 364.048C88.0563 364.276 87.5781 363.391 79.2113 366.277C74.1871 368.009 65.6053 371.313 53.4659 376.188C50.936 377.204 48.0468 376.666 46.0529 374.806C44.237 373.113 44.1139 370.276 45.7764 368.432C54.4382 358.823 59.9213 352.784 62.2255 350.312C65.719 348.527 69.3099 347.091 72.9981 346.007L69.8481 343.069L78.9028 333.359C82.9735 334.632 86.2183 335.984 88.6374 337.416Z" fill="url(#paint15_linear)"/>
<mask id="mask9" mask-type="alpha" maskUnits="userSpaceOnUse" x="44" y="333" width="56" height="44">
<path fill-rule="evenodd" clip-rule="evenodd" d="M88.6374 337.416C92.2661 339.564 94.3749 340.889 99.031 343.069C100.779 343.888 95.7511 346.007 90.7044 352.999C86.3369 359.049 92.474 363.895 90.7044 364.048C88.0563 364.276 87.5781 363.391 79.2113 366.277C74.1871 368.009 65.6053 371.313 53.4659 376.188C50.936 377.204 48.0468 376.666 46.0529 374.806C44.237 373.113 44.1139 370.276 45.7764 368.432C54.4382 358.823 59.9213 352.784 62.2255 350.312C65.719 348.527 69.3099 347.091 72.9981 346.007L69.8481 343.069L78.9028 333.359C82.9735 334.632 86.2183 335.984 88.6374 337.416Z" fill="white"/>
</mask>
<g mask="url(#mask9)">
</g>
<mask id="path-50-inside-2" fill="white">
<path fill-rule="evenodd" clip-rule="evenodd" d="M66.2419 365.017C67.2698 365.931 70.4677 370.727 68.5261 372.783L66.2419 365.017Z"/>
</mask>
<path fill-rule="evenodd" clip-rule="evenodd" d="M66.2419 365.017C67.2698 365.931 70.4677 370.727 68.5261 372.783L66.2419 365.017Z" fill="black" fill-opacity="0.01"/>
<path d="M63.5845 368.007C63.4903 367.923 63.5016 367.918 63.6182 368.061C63.716 368.18 63.847 368.354 63.9953 368.572C64.2976 369.018 64.6046 369.552 64.8314 370.072C65.0738 370.627 65.1337 370.959 65.1393 371.058C65.143 371.122 65.1065 370.578 65.6181 370.037L71.4342 375.53C72.9166 373.96 73.2084 372.046 73.1264 370.604C73.0464 369.197 72.6067 367.887 72.1637 366.872C71.7053 365.821 71.1414 364.856 70.6157 364.081C70.135 363.373 69.5239 362.582 68.8993 362.027L63.5845 368.007Z" fill="#D2DDF1" mask="url(#path-50-inside-2)"/>
<mask id="path-52-inside-3" fill="white">
<path fill-rule="evenodd" clip-rule="evenodd" d="M70.8103 362.733C71.8382 363.646 75.0361 368.443 73.0945 370.499L70.8103 362.733Z"/>
</mask>
<path fill-rule="evenodd" clip-rule="evenodd" d="M70.8103 362.733C71.8382 363.646 75.0361 368.443 73.0945 370.499L70.8103 362.733Z" fill="black" fill-opacity="0.01"/>
<path d="M68.1528 365.722C68.0586 365.639 68.07 365.634 68.1865 365.776C68.2844 365.896 68.4153 366.069 68.5636 366.288C68.866 366.734 69.1729 367.267 69.3998 367.787C69.6421 368.343 69.7021 368.675 69.7077 368.774C69.7113 368.838 69.6748 368.294 70.1864 367.752L76.0025 373.245C77.4849 371.676 77.7768 369.762 77.6948 368.32C77.6147 366.912 77.175 365.603 76.7321 364.588C76.2737 363.537 75.7098 362.572 75.1841 361.797C74.7034 361.088 74.0923 360.298 73.4678 359.743L68.1528 365.722Z" fill="#D2DDF1" mask="url(#path-52-inside-3)"/>
<mask id="path-54-inside-4" fill="white">
<path fill-rule="evenodd" clip-rule="evenodd" d="M75.3786 360.905C76.4065 361.819 79.6044 366.616 77.6629 368.672L75.3786 360.905Z"/>
</mask>
<path d="M78.036 357.916C76.3849 356.448 73.8566 356.597 72.389 358.248C70.9213 359.899 71.0701 362.427 72.7212 363.895L78.036 357.916ZM74.7548 365.925C73.238 367.531 73.3103 370.063 74.9164 371.58C76.5224 373.096 79.0541 373.024 80.5709 371.418L74.7548 365.925ZM72.7212 363.895C72.627 363.811 72.6384 363.806 72.7549 363.949C72.8528 364.069 72.9837 364.242 73.132 364.461C73.4343 364.906 73.7413 365.44 73.9682 365.96C74.2105 366.515 74.2704 366.848 74.2761 366.946C74.2797 367.01 74.2432 366.467 74.7548 365.925L80.5709 371.418C82.0533 369.848 82.3452 367.934 82.2632 366.492C82.1831 365.085 81.7434 363.775 81.3005 362.76C80.842 361.71 80.2781 360.744 79.7524 359.97C79.2717 359.261 78.6606 358.471 78.036 357.916L72.7212 363.895Z" fill="#D2DDF1" mask="url(#path-54-inside-4)"/>
<path fill-rule="evenodd" clip-rule="evenodd" d="M116.454 270.695C110.796 278.74 109.068 292.348 112.899 301.719C116.3 310.037 129.597 319.163 132.565 320.403C125.876 320.403 103.469 319.295 100.589 318.162C103.2 331.842 116.454 353.842 103.2 364.619C112.899 365.714 196.414 366.809 205.103 365.714C213.791 364.619 242.496 368.978 245.049 353.842C247.601 338.706 227.428 317.927 221.034 312.705C214.64 307.483 178.738 285.052 172.623 278.326C166.508 271.6 122.112 262.65 116.454 270.695Z" fill="#B2C7EE"/>
<path fill-rule="evenodd" clip-rule="evenodd" d="M116.454 270.695C110.796 278.74 109.068 292.348 112.899 301.719C116.3 310.037 129.597 319.163 132.565 320.403C125.876 320.403 103.469 319.295 100.589 318.162C103.2 331.842 116.454 353.842 103.2 364.619C112.899 365.714 196.414 366.809 205.103 365.714C213.791 364.619 242.496 368.978 245.049 353.842C247.601 338.706 227.428 317.927 221.034 312.705C214.64 307.483 178.738 285.052 172.623 278.326C166.508 271.6 122.112 262.65 116.454 270.695Z" fill="url(#paint16_linear)"/>
<path fill-rule="evenodd" clip-rule="evenodd" d="M116.454 270.695C110.796 278.74 109.068 292.348 112.899 301.719C116.3 310.037 129.597 319.163 132.565 320.403C125.876 320.403 103.469 319.295 100.589 318.162C103.2 331.842 116.454 353.842 103.2 364.619C112.899 365.714 196.414 366.809 205.103 365.714C213.791 364.619 242.496 368.978 245.049 353.842C247.601 338.706 227.428 317.927 221.034 312.705C214.64 307.483 178.738 285.052 172.623 278.326C166.508 271.6 122.112 262.65 116.454 270.695Z" fill="url(#paint17_linear)"/>
<path fill-rule="evenodd" clip-rule="evenodd" d="M116.454 270.695C110.796 278.74 109.068 292.348 112.899 301.719C116.3 310.037 129.597 319.163 132.565 320.403C125.876 320.403 103.469 319.295 100.589 318.162C103.2 331.842 116.454 353.842 103.2 364.619C112.899 365.714 196.414 366.809 205.103 365.714C213.791 364.619 242.496 368.978 245.049 353.842C247.601 338.706 227.428 317.927 221.034 312.705C214.64 307.483 178.738 285.052 172.623 278.326C166.508 271.6 122.112 262.65 116.454 270.695Z" fill="url(#paint18_linear)"/>
<path fill-rule="evenodd" clip-rule="evenodd" d="M100.574 318.302C102.303 326.332 110.672 332.781 125.681 337.65C148.194 344.952 170.364 335.707 175.07 337.65C167.424 335.17 148.054 329.628 132.387 320.489C126.942 320.495 116.338 319.766 100.574 318.302Z" fill="url(#paint19_linear)"/>
<path fill-rule="evenodd" clip-rule="evenodd" d="M156.292 87.3312C160.206 91.9711 160.937 94.0867 165.167 97.8546C169.396 101.623 175.201 102.959 176.881 103.551C178.561 104.143 173.521 107.898 175.201 112.762C176.881 117.626 180.435 124.787 180.435 126.691C180.435 128.594 173.789 131.952 167.502 134.785C161.216 137.618 160.327 140.002 161.055 144.807C161.784 149.611 162.816 155.814 167.502 158.529C170.626 160.339 161.786 157.122 140.982 148.878C132.149 129.078 129.941 112.942 134.357 100.47C140.982 81.7618 152.378 82.6913 156.292 87.3312Z" fill="url(#paint20_linear)"/>
<mask id="mask10" mask-type="alpha" maskUnits="userSpaceOnUse" x="132" y="84" width="49" height="76">
<path fill-rule="evenodd" clip-rule="evenodd" d="M156.292 87.3312C160.206 91.9711 160.937 94.0867 165.167 97.8546C169.396 101.623 175.201 102.959 176.881 103.551C178.561 104.143 173.521 107.898 175.201 112.762C176.881 117.626 180.435 124.787 180.435 126.691C180.435 128.594 173.789 131.952 167.502 134.785C161.216 137.618 160.327 140.002 161.055 144.807C161.784 149.611 162.816 155.814 167.502 158.529C170.626 160.339 161.786 157.122 140.982 148.878C132.149 129.078 129.941 112.942 134.357 100.47C140.982 81.7618 152.378 82.6913 156.292 87.3312Z" fill="white"/>
</mask>
<g mask="url(#mask10)">
<path fill-rule="evenodd" clip-rule="evenodd" d="M147.531 123.276C149.338 125.469 152.439 129.633 156.308 131.979C159.957 134.192 166.42 134.244 170.313 134.244C178.333 134.244 159.525 149.128 159.525 149.128L147.531 146.728C147.531 146.728 144.018 119.013 147.531 123.276Z" fill="url(#paint21_linear)"/>
<path fill-rule="evenodd" clip-rule="evenodd" d="M156.911 99.7699C156.911 98.0787 159.009 95.1417 160.787 95.1417L156.911 99.7699Z" fill="black" fill-opacity="0.01"/>
<path d="M156.911 99.7699C156.911 98.0787 159.009 95.1417 160.787 95.1417" stroke="#223762" stroke-width="3"/>
<path fill-rule="evenodd" clip-rule="evenodd" d="M163.667 104.131C164.426 103.929 164.682 102.858 164.238 101.74C163.794 100.621 162.818 99.8779 162.059 100.08C161.3 100.282 161.044 101.352 161.488 102.471C161.932 103.59 162.908 104.333 163.667 104.131Z" fill="#223762"/>
<path fill-rule="evenodd" clip-rule="evenodd" d="M174.869 112.759C175.272 112.455 175.229 113.036 175.523 113.594C175.818 114.153 176.12 115.123 176.25 115.498C174.58 116.759 171.188 116.146 168.833 115.251C168.361 115.072 167.874 114.479 168.168 114.069C168.462 113.659 168.942 113.801 169.443 113.86C171.192 114.065 173.828 113.545 174.869 112.759Z" fill="#223762"/>
</g>
<path fill-rule="evenodd" clip-rule="evenodd" d="M245.324 137.053C244.72 136.102 244.156 122.49 245.781 120.606C247.406 118.722 251.579 116.41 252.177 116.952C252.775 117.493 254.247 120.428 253.091 121.063C251.934 121.698 249.727 123.921 249.893 124.718C250.058 125.514 250.398 127.875 251.263 128.829C252.128 129.784 246.736 139.272 245.324 137.053Z" fill="#346CC7"/>
<path fill-rule="evenodd" clip-rule="evenodd" d="M265.372 110.11C266.689 108.989 272.997 105.918 273.67 108.272C274.118 109.842 272.045 111.874 267.452 114.369C265.187 112.277 264.494 110.857 265.372 110.11Z" fill="#55BD83"/>
<path fill-rule="evenodd" clip-rule="evenodd" d="M239.282 121.494L265.336 108.826C267.012 108.011 269.032 108.558 270.067 110.108C271.074 111.613 270.699 113.645 269.222 114.692L245.26 131.678C242.6 133.564 238.915 132.936 237.029 130.276C236.932 130.139 236.84 129.997 236.755 129.852C235.092 127.021 236.038 123.377 238.87 121.714C239.004 121.635 239.141 121.562 239.282 121.494Z" fill="#223762"/>
<path fill-rule="evenodd" clip-rule="evenodd" d="M238.507 152.205C241.693 148.23 243.704 145.641 244.54 144.439C245.13 143.592 244.182 138.028 245.433 135.742C246.685 133.455 247.565 132.734 248.472 131.407C248.768 130.974 250.21 128.821 250.606 127.583C251.652 124.31 251.974 122.745 252.198 120.891C252.507 118.334 259.38 113.121 260.222 111.288C261.063 109.456 262.972 108.879 263.991 111.288C265.009 113.698 258.101 120.016 258.101 123.341C258.101 123.541 261.051 118.953 262.886 118.495C264.558 118.495 264.353 120.796 265.079 123.985C265.788 127.094 269.784 130.875 269.784 134.921C269.784 137.269 269.79 139.169 269.784 139.532C269.725 142.984 257.191 152.762 254.455 156.683C252.631 159.297 250.637 162.007 248.472 164.813L238.507 152.205Z" fill="url(#paint22_linear)"/>
<path fill-rule="evenodd" clip-rule="evenodd" d="M107.733 271.291C106.015 278.759 104.818 283.345 104.142 285.048C103.128 287.602 123.496 290.761 145.733 290.552C164.901 290.371 178.112 288.158 181.823 285.526C178.265 282.325 177.367 279.522 176.891 277.531C173.337 273.371 150.284 271.291 107.733 271.291Z" fill="url(#paint23_linear)"/>
<path fill-rule="evenodd" clip-rule="evenodd" d="M146.145 141.741C150.642 142.877 161.121 144.551 163.258 144.514C165.394 144.477 168.967 160.025 168.743 161.405C168.519 162.784 147.575 155.239 146.145 153.45C144.716 151.662 141.649 140.605 146.145 141.741Z" fill="url(#paint24_linear)"/>
<path fill-rule="evenodd" clip-rule="evenodd" d="M97.1832 270.314C100.336 264.045 122.053 205.762 122.272 192.408C122.492 179.054 126.488 151.664 138.133 151.755C149.778 151.846 173.87 162.876 177.812 165.826C181.753 168.777 185.399 181.537 185.399 188.591C185.399 192.074 185.455 213.049 185.399 234.36C185.346 254.877 192.023 275.697 192.386 276.543C173.989 282.646 102.061 279.554 97.1832 270.314Z" fill="url(#paint25_linear)"/>
<path fill-rule="evenodd" clip-rule="evenodd" d="M97.1832 270.314C100.336 264.045 122.053 205.762 122.272 192.408C122.492 179.054 126.488 151.664 138.133 151.755C149.778 151.846 173.87 162.876 177.812 165.826C181.753 168.777 185.399 181.537 185.399 188.591C185.399 192.074 185.455 213.049 185.399 234.36C185.346 254.877 192.023 275.697 192.386 276.543C173.989 282.646 102.061 279.554 97.1832 270.314Z" fill="url(#paint26_linear)"/>
<mask id="mask11" mask-type="alpha" maskUnits="userSpaceOnUse" x="97" y="151" width="96" height="129">
<path fill-rule="evenodd" clip-rule="evenodd" d="M97.1832 270.314C100.336 264.045 122.053 205.762 122.272 192.408C122.492 179.054 126.488 151.664 138.133 151.755C149.778 151.846 173.87 162.876 177.812 165.826C181.753 168.777 185.399 181.537 185.399 188.591C185.399 192.074 185.455 213.049 185.399 234.36C185.346 254.877 192.023 275.697 192.386 276.543C173.989 282.646 102.061 279.554 97.1832 270.314Z" fill="white"/>
<path fill-rule="evenodd" clip-rule="evenodd" d="M97.1832 270.314C100.336 264.045 122.053 205.762 122.272 192.408C122.492 179.054 126.488 151.664 138.133 151.755C149.778 151.846 173.87 162.876 177.812 165.826C181.753 168.777 185.399 181.537 185.399 188.591C185.399 192.074 185.455 213.049 185.399 234.36C185.346 254.877 192.023 275.697 192.386 276.543C173.989 282.646 102.061 279.554 97.1832 270.314Z" stroke="white"/>
</mask>
<g mask="url(#mask11)">
<path opacity="0.430246" d="M106.216 205.351L123.576 291.237" stroke="white" stroke-width="3" stroke-linecap="square"/>
<path opacity="0.430246" d="M121.748 189.818L144.591 290.323" stroke="white" stroke-width="3" stroke-linecap="square"/>
<path opacity="0.430246" d="M137.281 166.976L165.149 295.805" stroke="white" stroke-width="3" stroke-linecap="square"/>
<path opacity="0.430246" d="M106.216 222.711L198.955 248.294" stroke="white" stroke-width="3" stroke-linecap="square"/>
<path opacity="0.430246" d="M103.932 248.294L196.67 273.877" stroke="white" stroke-width="3" stroke-linecap="square"/>
<path opacity="0.430246" d="M103.932 198.041L196.67 223.624" stroke="white" stroke-width="3" stroke-linecap="square"/>
<path opacity="0.430246" d="M103.932 165.605L196.67 191.189" stroke="white" stroke-width="3" stroke-linecap="square"/>
<path fill-rule="evenodd" clip-rule="evenodd" d="M183.255 279.235C183.255 279.235 160.413 209.199 160.413 201.481C160.413 193.764 185.755 197.766 185.755 197.766L199.932 279.235H183.255Z" fill="url(#paint27_linear)"/>
</g>
<path fill-rule="evenodd" clip-rule="evenodd" d="M230.328 158.919C233.65 156.109 238.307 150.498 240.93 147.168C243.552 143.839 258.067 159.006 255.241 162.81C252.415 166.614 246.716 173.673 243.947 175.731C241.177 177.79 227.007 161.729 230.328 158.919Z" fill="url(#paint28_linear)"/>
<path fill-rule="evenodd" clip-rule="evenodd" d="M163.043 205.4C169.407 209.517 212.751 221.499 217.568 219.731C222.386 217.963 252.447 181.684 254.133 177.748C255.82 173.812 234.632 152.02 232.1 155.345C229.568 158.671 208.606 184.738 206.252 184.738C203.899 184.738 178.744 163.658 171.382 162.465C164.02 161.272 158.584 170.243 157.184 174.943C155.784 179.644 156.679 201.284 163.043 205.4Z" fill="url(#paint29_linear)"/>
<path fill-rule="evenodd" clip-rule="evenodd" d="M163.043 205.4C169.407 209.517 212.751 221.499 217.568 219.731C222.386 217.963 252.447 181.684 254.133 177.748C255.82 173.812 234.632 152.02 232.1 155.345C229.568 158.671 208.606 184.738 206.252 184.738C203.899 184.738 178.744 163.658 171.382 162.465C164.02 161.272 158.584 170.243 157.184 174.943C155.784 179.644 156.679 201.284 163.043 205.4Z" fill="url(#paint30_linear)"/>
<mask id="mask12" mask-type="alpha" maskUnits="userSpaceOnUse" x="156" y="155" width="99" height="65">
<path fill-rule="evenodd" clip-rule="evenodd" d="M163.043 205.4C169.407 209.517 212.751 221.499 217.568 219.731C222.386 217.963 252.447 181.684 254.133 177.748C255.82 173.812 234.632 152.02 232.1 155.345C229.568 158.671 208.606 184.738 206.252 184.738C203.899 184.738 178.744 163.658 171.382 162.465C164.02 161.272 158.584 170.243 157.184 174.943C155.784 179.644 156.679 201.284 163.043 205.4Z" fill="white"/>
<path fill-rule="evenodd" clip-rule="evenodd" d="M163.043 205.4C169.407 209.517 212.751 221.499 217.568 219.731C222.386 217.963 252.447 181.684 254.133 177.748C255.82 173.812 234.632 152.02 232.1 155.345C229.568 158.671 208.606 184.738 206.252 184.738C203.899 184.738 178.744 163.658 171.382 162.465C164.02 161.272 158.584 170.243 157.184 174.943C155.784 179.644 156.679 201.284 163.043 205.4Z" stroke="white"/>
</mask>
<g mask="url(#mask12)">
<path opacity="0.430246" d="M151.2 183.19L211.386 204.151L244.304 157.282" stroke="white" stroke-width="3" stroke-linecap="square"/>
<path opacity="0.430246" d="M165.605 158.753L186.163 215.858" stroke="white" stroke-width="3" stroke-linecap="square"/>
<path opacity="0.430246" d="M180.224 158.753L200.782 215.858" stroke="white" stroke-width="3" stroke-linecap="square"/>
<path opacity="0.430246" d="M204.437 180.681L225.908 236.416" stroke="white" stroke-width="3" stroke-linecap="square"/>
<path opacity="0.430246" d="M208.548 177.483L239.614 209.462" stroke="white" stroke-width="3" stroke-linecap="square"/>
<path opacity="0.430246" d="M214.944 165.148L252.862 198.041" stroke="white" stroke-width="3" stroke-linecap="square"/>
<path opacity="0.430246" d="M221.34 157.839L262.913 182.508" stroke="white" stroke-width="3" stroke-linecap="square"/>
</g>
<g filter="url(#filter3_i)">
<path fill-rule="evenodd" clip-rule="evenodd" d="M147.338 104.252C156.056 101.435 148.407 89.3962 151.497 89.3962C152.778 89.3962 157.946 88.4072 159.284 85.612C162.251 79.4164 155.453 73.8928 138.543 75.1811C109.649 77.3823 108.121 107.346 110.563 122.34C113.005 137.334 81.0006 182.864 91.0883 202.36C101.176 221.857 121.365 214.391 138.543 197.37C155.721 180.35 151.197 122.655 146.695 119.905C142.191 117.155 138.62 107.069 147.338 104.252Z" fill="url(#paint31_radial)"/>
</g>
<mask id="mask13" mask-type="alpha" maskUnits="userSpaceOnUse" x="89" y="74" width="71" height="140">
<path fill-rule="evenodd" clip-rule="evenodd" d="M147.338 104.252C156.056 101.435 148.407 89.3962 151.497 89.3962C152.778 89.3962 157.946 88.4072 159.284 85.612C162.251 79.4164 155.453 73.8928 138.543 75.1811C109.649 77.3823 108.121 107.346 110.563 122.34C113.005 137.334 81.0006 182.864 91.0883 202.36C101.176 221.857 121.365 214.391 138.543 197.37C155.721 180.35 151.197 122.655 146.695 119.905C142.191 117.155 138.62 107.069 147.338 104.252Z" fill="white"/>
</mask>
<g mask="url(#mask13)">
<path fill-rule="evenodd" clip-rule="evenodd" d="M148.828 121.264C148.828 127.148 137.61 201.054 127.545 206.825C117.48 212.596 158.618 212.333 158.618 201.309C158.618 190.286 148.828 115.38 148.828 121.264Z" fill="url(#paint32_linear)"/>
</g>
<g opacity="0.6">
<path fill-rule="evenodd" clip-rule="evenodd" d="M59.3895 28.3242C75.0325 28.3242 87.7138 41.0053 87.7138 56.6484C87.7138 72.2914 75.0325 84.9725 59.3895 84.9725C43.7465 84.9725 31.0653 72.2914 31.0653 56.6484C31.0653 41.0053 43.7465 28.3242 59.3895 28.3242Z" fill="url(#paint33_radial)"/>
<mask id="mask14" mask-type="alpha" maskUnits="userSpaceOnUse" x="31" y="28" width="57" height="57">
<path fill-rule="evenodd" clip-rule="evenodd" d="M59.3895 28.3242C75.0325 28.3242 87.7138 41.0053 87.7138 56.6484C87.7138 72.2914 75.0325 84.9725 59.3895 84.9725C43.7465 84.9725 31.0653 72.2914 31.0653 56.6484C31.0653 41.0053 43.7465 28.3242 59.3895 28.3242Z" fill="white"/>
</mask>
<g mask="url(#mask14)">
<mask id="path-96-inside-5" fill="white">
<path fill-rule="evenodd" clip-rule="evenodd" d="M59.735 37.305V57.6846L69.0612 67.0109"/>
</mask>
<path d="M59.735 57.6846H53.735V60.1698L55.4923 61.9272L59.735 57.6846ZM53.735 37.305V57.6846H65.735V37.305H53.735ZM55.4923 61.9272L64.8186 71.2535L73.3039 62.7682L63.9776 53.4419L55.4923 61.9272Z" fill="white" mask="url(#path-96-inside-5)"/>
</g>
</g>
</g>
<defs>
<filter id="filter0_i" x="21.9285" y="196.493" width="35.1525" height="93.6021" filterUnits="userSpaceOnUse" color-interpolation-filters="sRGB">
<feFlood flood-opacity="0" result="BackgroundImageFix"/>
<feBlend mode="normal" in="SourceGraphic" in2="BackgroundImageFix" result="shape"/>
<feColorMatrix in="SourceAlpha" type="matrix" values="0 0 0 0 0 0 0 0 0 0 0 0 0 0 0 0 0 0 127 0" result="hardAlpha"/>
<feOffset dy="-10"/>
<feGaussianBlur stdDeviation="11"/>
<feComposite in2="hardAlpha" operator="arithmetic" k2="-1" k3="1"/>
<feColorMatrix type="matrix" values="0 0 0 0 0.221483 0 0 0 0 0.77854 0 0 0 0 0.610041 0 0 0 1 0"/>
<feBlend mode="normal" in2="shape" result="effect1_innerShadow"/>
</filter>
<filter id="filter1_i" x="0.693848" y="237.492" width="50.066" height="64.2098" filterUnits="userSpaceOnUse" color-interpolation-filters="sRGB">
<feFlood flood-opacity="0" result="BackgroundImageFix"/>
<feBlend mode="normal" in="SourceGraphic" in2="BackgroundImageFix" result="shape"/>
<feColorMatrix in="SourceAlpha" type="matrix" values="0 0 0 0 0 0 0 0 0 0 0 0 0 0 0 0 0 0 127 0" result="hardAlpha"/>
<feOffset dy="-10"/>
<feGaussianBlur stdDeviation="11"/>
<feComposite in2="hardAlpha" operator="arithmetic" k2="-1" k3="1"/>
<feColorMatrix type="matrix" values="0 0 0 0 0.221483 0 0 0 0 0.77854 0 0 0 0 0.610041 0 0 0 1 0"/>
<feBlend mode="normal" in2="shape" result="effect1_innerShadow"/>
</filter>
<filter id="filter2_i" x="54.1577" y="232.497" width="43.0777" height="70.312" filterUnits="userSpaceOnUse" color-interpolation-filters="sRGB">
<feFlood flood-opacity="0" result="BackgroundImageFix"/>
<feBlend mode="normal" in="SourceGraphic" in2="BackgroundImageFix" result="shape"/>
<feColorMatrix in="SourceAlpha" type="matrix" values="0 0 0 0 0 0 0 0 0 0 0 0 0 0 0 0 0 0 127 0" result="hardAlpha"/>
<feOffset dy="-10"/>
<feGaussianBlur stdDeviation="11"/>
<feComposite in2="hardAlpha" operator="arithmetic" k2="-1" k3="1"/>
<feColorMatrix type="matrix" values="0 0 0 0 0.221483 0 0 0 0 0.77854 0 0 0 0 0.610041 0 0 0 1 0"/>
<feBlend mode="normal" in2="shape" result="effect1_innerShadow"/>
</filter>
<filter id="filter3_i" x="71.1155" y="59.9928" width="88.8438" height="153.955" filterUnits="userSpaceOnUse" color-interpolation-filters="sRGB">
<feFlood flood-opacity="0" result="BackgroundImageFix"/>
<feBlend mode="normal" in="SourceGraphic" in2="BackgroundImageFix" result="shape"/>
<feColorMatrix in="SourceAlpha" type="matrix" values="0 0 0 0 0 0 0 0 0 0 0 0 0 0 0 0 0 0 127 0" result="hardAlpha"/>
<feOffset dx="-18" dy="-15"/>
<feGaussianBlur stdDeviation="13.5"/>
<feComposite in2="hardAlpha" operator="arithmetic" k2="-1" k3="1"/>
<feColorMatrix type="matrix" values="0 0 0 0 0.0404334 0 0 0 0 0.104774 0 0 0 0 0.223875 0 0 0 0.409562 0"/>
<feBlend mode="normal" in2="shape" result="effect1_innerShadow"/>
</filter>
<linearGradient id="paint0_linear" x1="74.4653" y1="322.531" x2="18.2737" y2="322.531" gradientUnits="userSpaceOnUse">
<stop stop-color="#D9E5F6" stop-opacity="0.712636"/>
<stop offset="1" stop-color="#B2C6EA"/>
</linearGradient>
<linearGradient id="paint1_linear" x1="97.0955" y1="318.451" x2="55.6672" y2="290.536" gradientUnits="userSpaceOnUse">
<stop stop-color="#ACC5E9"/>
<stop offset="0.627469" stop-color="#D3E3FB"/>
<stop offset="1" stop-color="#EAF2FF"/>
</linearGradient>
<linearGradient id="paint2_linear" x1="25.1292" y1="284.997" x2="23.6696" y2="308.398" gradientUnits="userSpaceOnUse">
<stop stop-color="#86A8D9"/>
<stop offset="1" stop-color="#BCD0F2"/>
</linearGradient>
<linearGradient id="paint3_linear" x1="15.965" y1="229.171" x2="65.0651" y2="280.583" gradientUnits="userSpaceOnUse">
<stop stop-color="#B1FFBE"/>
<stop offset="0.444207" stop-color="#5CDB8E"/>
<stop offset="1" stop-color="#149654"/>
</linearGradient>
<linearGradient id="paint4_linear" x1="15.2506" y1="244.788" x2="22.3104" y2="299.345" gradientUnits="userSpaceOnUse">
<stop stop-color="#B1FFBE"/>
<stop offset="0.444207" stop-color="#5CDB8E"/>
<stop offset="1" stop-color="#149654"/>
</linearGradient>
<linearGradient id="paint5_linear" x1="46.546" y1="258.461" x2="78.8803" y2="309.209" gradientUnits="userSpaceOnUse">
<stop stop-color="#B1FFBE"/>
<stop offset="0.444207" stop-color="#5CDB8E"/>
<stop offset="1" stop-color="#149654"/>
</linearGradient>
<radialGradient id="paint6_radial" cx="0" cy="0" r="1" gradientUnits="userSpaceOnUse" gradientTransform="translate(453.514 36.3214) rotate(118.593) scale(380.378 368.917)">
<stop stop-color="#EDF3FD"/>
<stop offset="0.40887" stop-color="#DCE8FB"/>
<stop offset="1" stop-color="#AEBDD8"/>
</radialGradient>
<linearGradient id="paint7_linear" x1="258.117" y1="333.21" x2="254.153" y2="355.01" gradientUnits="userSpaceOnUse">
<stop stop-color="#47689B"/>
<stop offset="1" stop-color="#223762"/>
</linearGradient>
<linearGradient id="paint8_linear" x1="224.847" y1="323.957" x2="280.947" y2="349.935" gradientUnits="userSpaceOnUse">
<stop stop-color="#A5BEEC"/>
<stop offset="1" stop-color="#7B90B6"/>
</linearGradient>
<radialGradient id="paint9_radial" cx="0" cy="0" r="1" gradientUnits="userSpaceOnUse" gradientTransform="translate(243.516 229.335) rotate(90) scale(52.9657 91.8765)">
<stop stop-color="#E6F1FF" stop-opacity="0.5"/>
<stop offset="1" stop-color="#A7C0EB" stop-opacity="0.01"/>
</radialGradient>
<linearGradient id="paint10_linear" x1="225.34" y1="255.745" x2="177.226" y2="265.81" gradientUnits="userSpaceOnUse">
<stop stop-color="#B5C9EE" stop-opacity="0.01"/>
<stop offset="1" stop-color="#859BC5"/>
</linearGradient>
<linearGradient id="paint11_linear" x1="227.23" y1="312.48" x2="227.23" y2="290.353" gradientUnits="userSpaceOnUse">
<stop stop-color="#8DA6D5"/>
<stop offset="1" stop-color="#6A87BD"/>
</linearGradient>
<linearGradient id="paint12_linear" x1="115.767" y1="359.036" x2="93.227" y2="327.812" gradientUnits="userSpaceOnUse">
<stop stop-color="#001C44"/>
<stop offset="1" stop-color="#89A3D0"/>
</linearGradient>
<linearGradient id="paint13_linear" x1="76.6022" y1="340.468" x2="84.2191" y2="364.33" gradientUnits="userSpaceOnUse">
<stop stop-color="#70B8F9"/>
<stop offset="1" stop-color="#3D82F0"/>
</linearGradient>
<linearGradient id="paint14_linear" x1="100.775" y1="343.157" x2="95.7689" y2="364.357" gradientUnits="userSpaceOnUse">
<stop stop-color="#70B8F9" stop-opacity="0.01"/>
<stop offset="1" stop-color="#0042A6"/>
</linearGradient>
<linearGradient id="paint15_linear" x1="36.8062" y1="349.129" x2="44.0675" y2="371.689" gradientUnits="userSpaceOnUse">
<stop stop-color="#47689B"/>
<stop offset="1" stop-color="#223762"/>
</linearGradient>
<linearGradient id="paint16_linear" x1="69.7581" y1="297.636" x2="91.935" y2="362.601" gradientUnits="userSpaceOnUse">
<stop stop-color="#5973A7"/>
<stop offset="1" stop-color="#B2C7EE" stop-opacity="0.01"/>
</linearGradient>
<linearGradient id="paint17_linear" x1="204.737" y1="272.932" x2="177.241" y2="317.855" gradientUnits="userSpaceOnUse">
<stop stop-color="white" stop-opacity="0.5"/>
<stop offset="1" stop-color="white" stop-opacity="0.01"/>
</linearGradient>
<linearGradient id="paint18_linear" x1="159.93" y1="349.005" x2="159.93" y2="369.585" gradientUnits="userSpaceOnUse">
<stop stop-color="#B0C8F2" stop-opacity="0.01"/>
<stop offset="1" stop-color="#96B0DA"/>
</linearGradient>
<linearGradient id="paint19_linear" x1="135.758" y1="336.617" x2="142.693" y2="319.566" gradientUnits="userSpaceOnUse">
<stop stop-color="#8DA6D5"/>
<stop offset="1" stop-color="#6A87BD"/>
</linearGradient>
<linearGradient id="paint20_linear" x1="165.365" y1="82.4511" x2="145.421" y2="99.9875" gradientUnits="userSpaceOnUse">
<stop stop-color="#70A6F9"/>
<stop offset="1" stop-color="#3D82F0"/>
</linearGradient>
<linearGradient id="paint21_linear" x1="160.244" y1="123.838" x2="139.81" y2="139.344" gradientUnits="userSpaceOnUse">
<stop stop-color="#023786"/>
<stop offset="1" stop-color="#3D82F0"/>
</linearGradient>
<linearGradient id="paint22_linear" x1="269.706" y1="141.103" x2="258.917" y2="131.967" gradientUnits="userSpaceOnUse">
<stop stop-color="#1861BD"/>
<stop offset="1" stop-color="#3D82F0"/>
</linearGradient>
<linearGradient id="paint23_linear" x1="102.333" y1="291.465" x2="182.28" y2="291.465" gradientUnits="userSpaceOnUse">
<stop stop-color="#88A1C8"/>
<stop offset="0.342675" stop-color="#B7CAE6"/>
<stop offset="1" stop-color="#DFEBFF"/>
</linearGradient>
<linearGradient id="paint24_linear" x1="158.289" y1="138.547" x2="149.843" y2="153.196" gradientUnits="userSpaceOnUse">
<stop stop-color="#F1F7FF"/>
<stop offset="1" stop-color="#A7BCDE"/>
</linearGradient>
<linearGradient id="paint25_linear" x1="131.734" y1="175.533" x2="61.2562" y2="209.276" gradientUnits="userSpaceOnUse">
<stop stop-color="white"/>
<stop offset="1" stop-color="#EAEFFF"/>
</linearGradient>
<linearGradient id="paint26_linear" x1="172.595" y1="179.771" x2="117.804" y2="174.979" gradientUnits="userSpaceOnUse">
<stop stop-color="white" stop-opacity="0.01"/>
<stop offset="1" stop-color="#D8E1F0"/>
</linearGradient>
<linearGradient id="paint27_linear" x1="197.329" y1="190.059" x2="151.344" y2="198.974" gradientUnits="userSpaceOnUse">
<stop stop-color="#9BAECF" stop-opacity="0.771315"/>
<stop offset="0.38697" stop-color="#CDDBF4" stop-opacity="0.663638"/>
<stop offset="1" stop-color="#FEFFFF" stop-opacity="0.582965"/>
</linearGradient>
<linearGradient id="paint28_linear" x1="221.287" y1="158.665" x2="241.1" y2="186.492" gradientUnits="userSpaceOnUse">
<stop stop-color="#F1F7FF"/>
<stop offset="1" stop-color="#A7BCDE"/>
</linearGradient>
<linearGradient id="paint29_linear" x1="132.039" y1="171.306" x2="137.302" y2="226.253" gradientUnits="userSpaceOnUse">
<stop stop-color="white"/>
<stop offset="1" stop-color="#E9F0FC"/>
</linearGradient>
<linearGradient id="paint30_linear" x1="183.404" y1="204.563" x2="194.211" y2="236.011" gradientUnits="userSpaceOnUse">
<stop stop-color="white" stop-opacity="0.01"/>
<stop offset="1" stop-color="#ABBFD6"/>
</linearGradient>
<radialGradient id="paint31_radial" cx="0" cy="0" r="1" gradientUnits="userSpaceOnUse" gradientTransform="translate(105.14 93.0582) rotate(26.1312) scale(47.0106 120.659)">
<stop stop-color="#3162AE"/>
<stop offset="1" stop-color="#223762"/>
</radialGradient>
<linearGradient id="paint32_linear" x1="124.3" y1="176.767" x2="147.909" y2="182.411" gradientUnits="userSpaceOnUse">
<stop stop-color="#001630" stop-opacity="0.0615942"/>
<stop offset="1" stop-color="#081E41"/>
</linearGradient>
<radialGradient id="paint33_radial" cx="0" cy="0" r="1" gradientUnits="userSpaceOnUse" gradientTransform="translate(75.8221 41.5159) rotate(117.127) scale(49.3412 92.7176)">
<stop stop-color="#CBDAF1"/>
<stop offset="1" stop-color="#7089B9"/>
</radialGradient>
<clipPath id="clip0">
<rect width="494.76" height="377.808" fill="white"/>
</clipPath>
</defs>
</svg>
