<svg width="636" height="422" viewBox="0 0 636 422" fill="none" xmlns="http://www.w3.org/2000/svg">
<path opacity="0.2" fill-rule="evenodd" clip-rule="evenodd" d="M432.77 76.8684C391.339 30.4043 304.56 13.1122 215.381 38.7468C104.775 70.5415 32.362 156.331 53.6427 230.363C71.1023 291.102 146.204 325.056 233.695 317.733C275.646 351.301 346.276 362.387 418.292 341.686C519.315 312.646 584.809 232.056 564.58 161.681C550.389 112.314 497.784 81.0878 432.77 76.8684Z" fill="url(#paint0_linear)"/>
<g opacity="0.3">
<path fill-rule="evenodd" clip-rule="evenodd" d="M280.98 330.189C286.887 331.283 297.454 315.647 296.904 301.561C296.355 287.475 283.303 290.186 287.796 264.43C292.289 238.674 297.806 226.529 272.124 203.956C246.442 181.383 249.418 158.473 228.788 160.954C208.158 163.435 213.325 193.237 227.968 213.384C242.611 233.531 241.446 240.23 224.225 247.578C207.003 254.927 239.166 278.095 243.261 284.91C247.356 291.726 245.322 310.176 253.044 318.498C260.766 326.82 275.074 329.094 280.98 330.189Z" fill="url(#paint1_linear)"/>
<path d="M272.426 294.92C269.283 289.689 258.169 274.185 245.017 268.579" stroke="url(#paint2_linear)" stroke-width="6" stroke-linecap="round"/>
<path d="M265.326 257.645C262.183 252.414 274.661 239.918 275.886 225.673" stroke="url(#paint3_linear)" stroke-width="6" stroke-linecap="round"/>
<path d="M287.04 359.893C285.703 357.668 283.507 345.333 280.186 331.509C269.783 288.219 261.338 232.29 242.676 201.231" stroke="url(#paint4_linear)" stroke-width="6" stroke-linecap="round"/>
</g>
<g opacity="0.3">
<path d="M375.795 326.584C375.459 307.376 390.478 247.654 411.583 214.75" stroke="url(#paint5_linear)" stroke-width="6" stroke-linecap="round"/>
<path fill-rule="evenodd" clip-rule="evenodd" d="M401.705 223.969C401.705 223.969 402.45 214.391 397.477 206.115C392.504 197.839 386.335 192.415 383.698 194C381.06 195.584 382.954 203.578 387.926 211.854C392.899 220.13 401.705 223.969 401.705 223.969Z" fill="url(#paint6_linear)"/>
<path fill-rule="evenodd" clip-rule="evenodd" d="M407.314 227.179C407.314 227.179 415.422 232.333 425.063 231.828C434.705 231.323 442.391 228.422 442.23 225.35C442.069 222.277 434.122 220.196 424.48 220.701C414.838 221.206 407.314 227.179 407.314 227.179Z" fill="url(#paint7_linear)"/>
<path fill-rule="evenodd" clip-rule="evenodd" d="M397.36 251.8C397.36 251.8 405.187 257.371 414.842 257.371C424.497 257.371 432.324 254.877 432.324 251.8C432.324 248.723 424.497 246.229 414.842 246.229C405.187 246.229 397.36 251.8 397.36 251.8Z" fill="url(#paint8_linear)"/>
<path fill-rule="evenodd" clip-rule="evenodd" d="M389.337 276.535C389.337 276.535 397.164 282.106 406.818 282.106C416.473 282.106 424.3 279.611 424.3 276.535C424.3 273.458 416.473 270.963 406.818 270.963C397.164 270.963 389.337 276.535 389.337 276.535Z" fill="url(#paint9_linear)"/>
<path fill-rule="evenodd" clip-rule="evenodd" d="M413.355 211.056C413.355 211.056 422.227 207.371 427.343 199.183C432.46 190.995 434.492 183.036 431.883 181.406C429.273 179.775 423.011 185.091 417.894 193.279C412.778 201.467 413.355 211.056 413.355 211.056Z" fill="url(#paint10_linear)"/>
<path fill-rule="evenodd" clip-rule="evenodd" d="M391.048 249.039C391.048 249.039 389.951 239.495 383.49 232.32C377.03 225.145 369.939 220.997 367.652 223.056C365.366 225.115 368.749 232.601 375.21 239.776C381.67 246.951 391.048 249.039 391.048 249.039Z" fill="url(#paint11_linear)"/>
<path fill-rule="evenodd" clip-rule="evenodd" d="M382.438 274.817C382.438 274.817 380.35 265.44 373.175 258.98C366 252.519 358.514 249.136 356.455 251.422C354.397 253.709 358.544 260.799 365.719 267.26C372.894 273.72 382.438 274.817 382.438 274.817Z" fill="url(#paint12_linear)"/>
</g>
<path opacity="0.472712" d="M225.964 103.359L274.199 66.4487" stroke="url(#paint13_linear)" stroke-width="8" stroke-linecap="round" stroke-linejoin="round"/>
<path opacity="0.472712" d="M226.439 121.892L264.485 92.7794" stroke="url(#paint14_linear)" stroke-width="8" stroke-linecap="round" stroke-linejoin="round"/>
<path opacity="0.472712" d="M392.765 145.653L441 108.743" stroke="url(#paint15_linear)" stroke-width="8" stroke-linecap="round" stroke-linejoin="round"/>
<path opacity="0.472712" d="M393.24 164.186L431.285 135.073" stroke="url(#paint16_linear)" stroke-width="8" stroke-linecap="round" stroke-linejoin="round"/>
<path fill-rule="evenodd" clip-rule="evenodd" d="M572.538 201.83L466.327 182.007C435.504 227.172 420.918 265.261 422.57 296.274C442.044 304.346 479.534 317.119 535.041 334.594L579.702 214.485C581.532 209.565 579.027 204.094 574.107 202.264C573.597 202.075 573.072 201.929 572.538 201.83Z" fill="url(#paint17_linear)"/>
<path fill-rule="evenodd" clip-rule="evenodd" d="M466.363 207.881C467.332 211.225 466.893 213.638 465.047 215.121C462.278 217.345 459.497 221.128 456.755 221.44C454.013 221.751 451.045 223.255 450.564 227.101C450.332 228.959 440.818 238.564 437.419 251.78C436.558 255.126 437.605 260.275 440.56 267.227L448.42 262.9L459.614 244.767C472.047 240.448 479.056 237.772 480.641 236.74C483.018 235.192 490.718 228.568 489.233 226.085C487.749 223.601 492.579 207.822 495.447 204.754C498.316 201.687 500.665 194.213 500.723 191.453C500.78 188.694 501.775 180.432 494.615 180.695C489.841 180.871 480.424 189.933 466.363 207.881Z" fill="url(#paint18_linear)"/>
<mask id="mask0" mask-type="alpha" maskUnits="userSpaceOnUse" x="437" y="180" width="64" height="88">
<path fill-rule="evenodd" clip-rule="evenodd" d="M466.363 207.881C467.332 211.225 466.893 213.638 465.047 215.121C462.278 217.345 459.497 221.128 456.755 221.44C454.013 221.751 451.045 223.255 450.564 227.101C450.332 228.959 440.818 238.564 437.419 251.78C436.558 255.126 437.605 260.275 440.56 267.227L448.42 262.9L459.614 244.767C472.047 240.448 479.056 237.772 480.641 236.74C483.018 235.192 490.718 228.568 489.233 226.085C487.749 223.601 492.579 207.822 495.447 204.754C498.316 201.687 500.665 194.213 500.723 191.453C500.78 188.694 501.775 180.432 494.615 180.695C489.841 180.871 480.424 189.933 466.363 207.881Z" fill="white"/>
</mask>
<g mask="url(#mask0)">
<path fill-rule="evenodd" clip-rule="evenodd" d="M493.144 222.076C493.144 222.076 479.563 197.972 473.219 191.923C466.875 185.875 503.488 179.777 503.488 179.777L493.144 226.626V222.076Z" fill="url(#paint19_linear)" style="mix-blend-mode:multiply"/>
</g>
<path fill-rule="evenodd" clip-rule="evenodd" d="M458.941 151.186C455.663 153.393 458.459 162.275 454.912 167.345C452.972 170.118 448.892 171.659 447.008 172.763C441.678 175.884 447.155 178.112 448.257 179.969C449.358 181.827 448.48 186.024 447.655 189.332C446.831 192.64 443.904 200.094 447.042 201.76C450.179 203.425 469.441 210.697 475.011 208.476C480.581 206.255 482.573 195.128 483.946 194.405C485.319 193.681 486.283 194.445 487.55 194.761C490.849 195.583 493.828 193.734 495.414 191.103C497.21 188.123 499.763 189.483 498.383 185.41C496.253 179.128 483.909 154.382 479.004 152.603C474.099 150.824 464.01 147.772 458.941 151.186Z" fill="url(#paint20_radial)"/>
<path fill-rule="evenodd" clip-rule="evenodd" d="M474.941 157.985C462.397 154.857 456.564 157.659 452.022 147.91C449.339 142.152 454.563 124.489 463.359 124.089C465.524 133.962 475.982 134.811 482.041 135.632C514.576 140.037 517.981 169.784 508.241 187.307C505.105 192.948 502.203 197.001 499.615 200.04C497.973 201.969 495.825 204.294 495.1 205.397C494.858 205.765 492.759 210.411 492.396 210.32C491.3 210.047 491.74 209.992 492.278 205.183C492.816 200.374 493.116 199.08 494.092 195.167C494.38 194.011 499.836 185.133 495.646 181.918C492.853 179.775 489.079 181.084 484.326 185.845L481.439 184.757C483.346 180.517 484.552 177.386 485.056 175.366C485.811 172.335 487.485 161.113 474.941 157.985Z" fill="url(#paint21_linear)"/>
<path fill-rule="evenodd" clip-rule="evenodd" d="M474.941 157.985C462.397 154.857 456.564 157.659 452.022 147.91C449.339 142.152 454.563 124.489 463.359 124.089C465.524 133.962 475.982 134.811 482.041 135.632C514.576 140.037 517.981 169.784 508.241 187.307C505.105 192.948 502.203 197.001 499.615 200.04C497.973 201.969 495.825 204.294 495.1 205.397C494.858 205.765 492.759 210.411 492.396 210.32C491.3 210.047 491.74 209.992 492.278 205.183C492.816 200.374 493.116 199.08 494.092 195.167C494.38 194.011 499.836 185.133 495.646 181.918C492.853 179.775 489.079 181.084 484.326 185.845L481.439 184.757C483.346 180.517 484.552 177.386 485.056 175.366C485.811 172.335 487.485 161.113 474.941 157.985Z" fill="url(#paint22_linear)"/>
<path fill-rule="evenodd" clip-rule="evenodd" d="M481.444 184.902C480.486 187.036 476.873 191.955 473.612 193.732C470.352 195.508 463.483 195.617 462.074 193.592C460.665 191.566 454.266 182.391 448.497 180.952C448.208 182.114 447.418 184.089 446.127 186.879C450.591 188.735 453.184 190.481 453.905 192.116C454.987 194.57 455.569 192.926 454.488 194.016C453.407 195.107 447.764 194.268 447.335 190.014C445.707 193.402 443.959 202.547 444.575 204.636C445.192 206.726 448.74 207.684 452.242 207.909C455.744 208.134 468.222 210.038 471.399 209.389C474.578 208.739 478.615 209.113 481.273 201.414C483.932 193.715 483.341 188.727 486.811 182.169C490.28 175.612 482.401 182.769 481.444 184.902Z" fill="url(#paint23_linear)"/>
<g filter="url(#filter0_i)">
<path fill-rule="evenodd" clip-rule="evenodd" d="M491.382 216.043C504.565 219.045 513.422 224.05 517.954 231.056C524.752 241.565 528.159 269.481 528.159 278.536C528.159 287.591 529.243 309.803 528.159 315.864C527.075 321.924 522.097 326.425 511.795 326.425C504.927 326.425 466.001 313.651 395.017 288.103C404.352 283.486 409.169 280.297 409.466 278.536C409.911 275.893 431.574 227.708 438.425 222.799C445.276 217.891 459.498 215.568 465.2 215.568C464.366 217.882 462.511 219.749 465.133 222.799C467.755 225.85 472.9 226.382 477.996 224.265C481.393 222.854 485.855 220.113 491.382 216.043Z" fill="#3D82F0"/>
<path fill-rule="evenodd" clip-rule="evenodd" d="M491.382 216.043C504.565 219.045 513.422 224.05 517.954 231.056C524.752 241.565 528.159 269.481 528.159 278.536C528.159 287.591 529.243 309.803 528.159 315.864C527.075 321.924 522.097 326.425 511.795 326.425C504.927 326.425 466.001 313.651 395.017 288.103C404.352 283.486 409.169 280.297 409.466 278.536C409.911 275.893 431.574 227.708 438.425 222.799C445.276 217.891 459.498 215.568 465.2 215.568C464.366 217.882 462.511 219.749 465.133 222.799C467.755 225.85 472.9 226.382 477.996 224.265C481.393 222.854 485.855 220.113 491.382 216.043Z" fill="url(#paint24_linear)"/>
</g>
<mask id="mask1" mask-type="alpha" maskUnits="userSpaceOnUse" x="395" y="215" width="134" height="112">
<path fill-rule="evenodd" clip-rule="evenodd" d="M491.382 216.043C504.565 219.045 513.422 224.05 517.954 231.056C524.752 241.565 528.159 269.481 528.159 278.536C528.159 287.591 529.243 309.803 528.159 315.864C527.075 321.924 522.097 326.425 511.795 326.425C504.927 326.425 466.001 313.651 395.017 288.103C404.352 283.486 409.169 280.297 409.466 278.536C409.911 275.893 431.574 227.708 438.425 222.799C445.276 217.891 459.498 215.568 465.2 215.568C464.366 217.882 462.511 219.749 465.133 222.799C467.755 225.85 472.9 226.382 477.996 224.265C481.393 222.854 485.855 220.113 491.382 216.043Z" fill="white"/>
<path fill-rule="evenodd" clip-rule="evenodd" d="M491.382 216.043C504.565 219.045 513.422 224.05 517.954 231.056C524.752 241.565 528.159 269.481 528.159 278.536C528.159 287.591 529.243 309.803 528.159 315.864C527.075 321.924 522.097 326.425 511.795 326.425C504.927 326.425 466.001 313.651 395.017 288.103C404.352 283.486 409.169 280.297 409.466 278.536C409.911 275.893 431.574 227.708 438.425 222.799C445.276 217.891 459.498 215.568 465.2 215.568C464.366 217.882 462.511 219.749 465.133 222.799C467.755 225.85 472.9 226.382 477.996 224.265C481.393 222.854 485.855 220.113 491.382 216.043Z" stroke="white"/>
</mask>
<g mask="url(#mask1)">
<g opacity="0.585435">
<path fill-rule="evenodd" clip-rule="evenodd" d="M458.256 217.422C447.339 228.597 468.875 234.551 477.669 231.574C486.462 228.597 496.331 217.422 496.331 217.422C496.331 217.422 471.465 198.918 464.86 208.17C458.256 217.422 469.173 206.247 458.256 217.422Z" fill="url(#paint25_linear)" style="mix-blend-mode:multiply"/>
</g>
<g opacity="0.54654">
<path fill-rule="evenodd" clip-rule="evenodd" d="M442.697 318.527C450.471 318.527 501.015 310.157 501.015 303.363C501.015 296.569 497.118 248.705 497.118 248.705" fill="url(#paint26_linear)" style="mix-blend-mode:multiply"/>
</g>
<g opacity="0.54654">
<path fill-rule="evenodd" clip-rule="evenodd" d="M371.888 289.062C375.409 289.062 391.688 309.685 406.56 302.744C424.527 294.358 434.989 263.309 434.989 259.592C434.989 256.749 439.706 246.665 437.909 235.677C436.845 229.164 428.153 215.013 428.153 215.013" fill="url(#paint27_linear)" style="mix-blend-mode:multiply"/>
</g>
</g>
<path fill-rule="evenodd" clip-rule="evenodd" d="M312.731 64.2103C314.644 78.7895 315.01 87.2732 313.831 89.6614C312.061 93.2439 315.489 110.097 326.402 111.074C337.316 112.051 343.038 107.4 343.467 96.0299C343.896 84.6595 344.579 80.2758 346.342 75.2444C348.104 70.2129 315.257 49.3673 313.831 53.2211C312.88 55.7903 312.513 59.4534 312.731 64.2103Z" fill="url(#paint28_linear)"/>
<path fill-rule="evenodd" clip-rule="evenodd" d="M357.589 30.7168C357.589 33.9584 358.019 44.078 357.693 46.6423C357.368 49.2067 357.109 53.0281 357.401 57.9649C357.693 62.9018 355.13 75.0439 352.268 79.4429C350.559 82.0692 343.786 87.1325 337.142 86.4212C329.267 85.5779 320.655 77.973 319.734 74.1703C318.036 67.1598 319.443 60.9734 314.549 57.2482C309.655 53.5229 306.089 50.0627 306.529 44.3116C306.969 38.5606 311.994 24.8701 314.549 24.2947C317.104 23.7195 357.589 27.4752 357.589 30.7168Z" fill="url(#paint29_radial)"/>
<path fill-rule="evenodd" clip-rule="evenodd" d="M315.546 26.5778C317.868 30.082 338.2 46.9744 358.579 36.0073C378.957 25.0403 351.849 5.13084 339.557 2.85939C327.264 0.587996 316.679 1.85053 309.243 12.1676C301.808 22.4847 298.078 40.1669 312.624 64.1539C313.264 60.3475 313.585 57.8108 313.585 56.544C307.796 51.2479 306.349 46.3126 309.243 41.7381C313.585 34.8765 315.021 48.3298 315.546 50.491C317.274 50.491 318.361 50.1898 318.809 49.5872C317.618 46.1917 317.183 43.0516 317.506 40.1669C317.989 35.8397 319.418 34.8765 315.546 26.5778Z" fill="url(#paint30_linear)"/>
<path fill-rule="evenodd" clip-rule="evenodd" d="M276.749 279.531C276.749 274.245 270.625 239.617 283.247 229.214C295.87 218.81 311.483 233.987 368.986 236.286C369.932 259.542 369.932 275.915 368.986 285.404C368.039 294.893 333.305 308.344 276.749 279.531Z" fill="#3D82F0"/>
<path fill-rule="evenodd" clip-rule="evenodd" d="M267.002 234.688C268.358 240.693 272.844 247.109 274.356 248.495C275.867 249.88 281.365 251.598 282.405 251.264C283.445 250.931 286.18 248.644 286.304 245.968C286.428 243.291 283.804 241.783 283.786 237.829C283.768 233.874 277.191 228.138 277.191 224.64C277.191 221.141 265.647 228.682 267.002 234.688Z" fill="#113275"/>
<path fill-rule="evenodd" clip-rule="evenodd" d="M436.035 226.447C440.114 231.858 442.769 232.805 444.298 234.418C445.827 236.032 449.325 241.728 450.625 240.778C451.924 239.829 453.269 237.959 451.248 234.418C449.226 230.877 446.164 227.143 447.227 225.269C448.29 223.395 453.478 217.855 457.808 216.569C462.138 215.283 463.577 216.113 464.008 215.422C464.44 214.732 458.83 213.728 456.518 213.469C454.206 213.21 450.931 212.912 446.207 213.469C443.059 213.84 440.865 212.531 439.627 209.542C434.513 217.205 433.316 222.84 436.035 226.447Z" fill="#143B8C"/>
<g filter="url(#filter1_i)">
<path fill-rule="evenodd" clip-rule="evenodd" d="M279.147 226.597C276.255 224.967 266.574 228.857 266.574 236.724C261.433 219.225 247.165 195.538 247.165 169.652C253.706 147.084 270.769 111.507 274.579 105.923C277.12 102.2 289.707 96.9894 312.341 90.2908C317.404 95.824 323.404 98.5907 330.341 98.5907C340.746 98.5907 341.293 92.2095 344.072 91.8765C346.852 91.5434 362.6 98.5907 370.368 106.088C378.135 113.586 386.451 143.074 406.882 165.964C427.314 188.855 434.642 204.825 444.779 213.426C441.061 216.756 436.023 218.696 436.023 226.597C432.354 223.907 411.881 209.827 394.53 193.437C377.179 177.048 369.484 163.418 366.865 161.573C363.854 159.451 370.661 225.099 370.368 236.724C370.073 248.349 330.104 249.012 317.604 249.012C305.105 249.012 285.774 244.686 280.812 240.42C279.995 239.717 282.138 147.416 280.812 151.289C277.449 161.115 269.639 165.964 269.639 172.435C269.639 187.473 279.165 227.656 279.147 226.597Z" fill="url(#paint31_linear)"/>
</g>
<mask id="mask2" mask-type="alpha" maskUnits="userSpaceOnUse" x="247" y="90" width="198" height="160">
<path fill-rule="evenodd" clip-rule="evenodd" d="M279.147 226.597C276.255 224.967 266.574 228.857 266.574 236.724C261.433 219.225 247.165 195.538 247.165 169.652C253.706 147.084 270.769 111.507 274.579 105.923C277.12 102.2 289.707 96.9894 312.341 90.2908C317.404 95.824 323.404 98.5907 330.341 98.5907C340.746 98.5907 341.293 92.2095 344.072 91.8765C346.852 91.5434 362.6 98.5907 370.368 106.088C378.135 113.586 386.451 143.074 406.882 165.964C427.314 188.855 434.642 204.825 444.779 213.426C441.061 216.756 436.023 218.696 436.023 226.597C432.354 223.907 411.881 209.827 394.53 193.437C377.179 177.048 369.484 163.418 366.865 161.573C363.854 159.451 370.661 225.099 370.368 236.724C370.073 248.349 330.104 249.012 317.604 249.012C305.105 249.012 285.774 244.686 280.812 240.42C279.995 239.717 282.138 147.416 280.812 151.289C277.449 161.115 269.639 165.964 269.639 172.435C269.639 187.473 279.165 227.656 279.147 226.597Z" fill="white"/>
</mask>
<g mask="url(#mask2)">
<path fill-rule="evenodd" clip-rule="evenodd" d="M276.622 159.375L294.529 135.576C294.529 135.576 301.163 212.755 271.552 239.488C266.335 208.565 269.239 192.402 271.552 178.889C273.071 170.015 276.622 159.375 276.622 159.375Z" fill="url(#paint32_linear)" style="mix-blend-mode:multiply"/>
<g opacity="0.161551">
<path fill-rule="evenodd" clip-rule="evenodd" d="M282.592 244.864C289.277 225.279 319.318 160.774 332.174 151.576C345.031 142.378 346 130.507 345.516 114.751C345.031 98.994 315.002 67.6011 299.303 79.4752C283.604 91.3492 241.575 113.257 236.979 149.993C232.383 186.728 251.956 243.076 260.798 237.506C269.641 231.935 275.907 264.449 282.592 244.864Z" fill="url(#paint33_linear)" style="mix-blend-mode:multiply"/>
</g>
</g>
<path fill-rule="evenodd" clip-rule="evenodd" d="M314.246 78.4012C314.246 81.9823 319.692 91.9923 330.208 91.6114C340.724 91.2307 342.839 90.941 344.034 85.6015C344.034 93.5123 344.444 95.8475 342.505 101.064C340.565 106.281 328.478 109.141 321.698 104.808C314.919 100.475 311.386 97.8805 312.378 89.9696C313.369 82.0587 314.246 74.8202 314.246 78.4012Z" fill="url(#paint34_linear)"/>
<path fill-rule="evenodd" clip-rule="evenodd" d="M75.749 188.2L172.184 164.899C190.019 212.987 198.111 252.537 196.459 283.55C176.985 291.622 147.774 302.087 108.827 314.946L69.0052 200.563C67.2795 195.606 69.8991 190.188 74.8562 188.462C75.1494 188.36 75.4473 188.273 75.749 188.2Z" fill="url(#paint35_linear)"/>
<path fill-rule="evenodd" clip-rule="evenodd" d="M185.52 171.404C183.455 177.944 190.163 196.406 200.818 205.428C211.473 214.45 177.201 212.916 177.181 202.857C177.161 192.799 187.585 164.865 185.52 171.404Z" fill="#316EEA"/>
<path fill-rule="evenodd" clip-rule="evenodd" d="M190.184 191.895C198.242 195.218 204.051 198.767 207.612 202.542C212.953 208.203 238.928 252.241 241.99 254.847C245.053 257.454 266.13 259.429 269.304 260.47C267.681 262.818 264.523 270.071 266.146 276.45C261.137 278.972 250.134 276.72 227.627 274.199C210.885 260.194 202.192 238.106 198.612 227.562C195.032 217.017 192.223 205.128 190.184 191.895Z" fill="url(#paint36_linear)"/>
<path fill-rule="evenodd" clip-rule="evenodd" d="M201.241 199.447C207.746 210.575 217.782 232.919 220.631 242.565C223.687 252.91 211.807 280.153 211.945 286.554C212.06 291.892 206.567 290.028 157.77 294.939C156.262 285.527 156.262 273.759 157.77 259.634C160.032 238.447 150.814 209.942 153.37 205.155C155.925 200.369 162.143 190.191 164.872 190.191C167.601 190.191 194.735 188.319 201.241 199.447Z" fill="url(#paint37_radial)"/>
<path fill-rule="evenodd" clip-rule="evenodd" d="M0 316.57L286.233 256.817C296.82 254.607 307.811 255.354 318.001 258.975L461.389 309.934C516.612 329.56 510.269 409.618 452.644 420.302V420.302C449.197 420.941 445.699 421.263 442.194 421.263H100C44.7715 421.263 0 376.491 0 321.263V316.57Z" fill="url(#paint38_linear)"/>
<g style="mix-blend-mode:multiply" opacity="0.196931">
<path fill-rule="evenodd" clip-rule="evenodd" d="M211.282 326.751L327.614 307.949L416.126 346.729L287.987 380.721" fill="url(#paint39_linear)"/>
</g>
<path fill-rule="evenodd" clip-rule="evenodd" d="M182.947 174.113C181.731 179.794 182.78 183.904 182.78 190.37C182.78 199.012 165.133 195.496 164.53 188.944C163.928 182.393 164.64 173.61 162.154 167.658C159.669 161.707 184.162 168.432 182.947 174.113Z" fill="url(#paint40_linear)"/>
<path fill-rule="evenodd" clip-rule="evenodd" d="M182.947 174.113C181.731 179.794 182.78 183.904 182.78 190.37C182.78 199.012 165.133 195.496 164.53 188.944C163.928 182.393 164.64 173.61 162.154 167.658C159.669 161.707 184.162 168.432 182.947 174.113Z" fill="url(#paint41_linear)" fill-opacity="0.67"/>
<mask id="mask3" mask-type="alpha" maskUnits="userSpaceOnUse" x="161" y="165" width="22" height="31">
<path fill-rule="evenodd" clip-rule="evenodd" d="M182.947 174.113C181.731 179.794 182.78 183.904 182.78 190.37C182.78 199.012 165.133 195.496 164.53 188.944C163.928 182.393 164.64 173.61 162.154 167.658C159.669 161.707 184.162 168.432 182.947 174.113Z" fill="white"/>
<path fill-rule="evenodd" clip-rule="evenodd" d="M182.947 174.113C181.731 179.794 182.78 183.904 182.78 190.37C182.78 199.012 165.133 195.496 164.53 188.944C163.928 182.393 164.64 173.61 162.154 167.658C159.669 161.707 184.162 168.432 182.947 174.113Z" stroke="white"/>
</mask>
<g mask="url(#mask3)">
<g opacity="0.717132">
<path fill-rule="evenodd" clip-rule="evenodd" d="M157.683 199.394C157.683 199.394 184.339 177.059 190.491 177.059C196.643 177.059 157.683 169.571 157.683 169.571V199.394Z" fill="url(#paint42_linear)" style="mix-blend-mode:multiply"/>
</g>
</g>
<path fill-rule="evenodd" clip-rule="evenodd" d="M188.365 128.398C189.934 133.351 189.758 138.844 192.801 143.574C195.845 148.304 199.854 152.435 200.919 154.537C201.985 156.639 196.648 158.506 196.648 160.385C196.648 162.264 200.204 175.341 198.301 176.591C197.217 179.511 177.244 183.559 172.201 180.659C167.755 180.659 160.903 176.759 156.698 167.174C152.493 157.589 152.3 134.315 156.698 128.398C161.097 122.482 186.797 123.445 188.365 128.398Z" fill="url(#paint43_linear)"/>
<path fill-rule="evenodd" clip-rule="evenodd" d="M219.528 317.719L226.191 263.664L317.053 261.843L309.108 314.617L219.528 317.719Z" fill="url(#paint44_linear)"/>
<mask id="mask4" mask-type="alpha" maskUnits="userSpaceOnUse" x="219" y="261" width="99" height="57">
<path fill-rule="evenodd" clip-rule="evenodd" d="M219.528 317.719L226.191 263.664L317.053 261.843L309.108 314.617L219.528 317.719Z" fill="white"/>
</mask>
<g mask="url(#mask4)">
<g style="mix-blend-mode:multiply" opacity="0.458036">
<path fill-rule="evenodd" clip-rule="evenodd" d="M313.919 303.154L302.091 260.423H321.145L313.919 303.154Z" fill="url(#paint45_linear)"/>
</g>
<g style="mix-blend-mode:multiply" opacity="0.528404">
<path fill-rule="evenodd" clip-rule="evenodd" d="M229.626 292.784C229.626 296.194 237.836 301.143 247.488 305.475C253.085 307.986 252.314 313.817 254.749 313.817C261.385 313.817 214.265 332.971 214.265 332.971C214.265 332.971 211.709 307.071 214.265 300.311C217.049 292.945 229.626 290.911 229.626 292.784Z" fill="url(#paint46_linear)"/>
</g>
</g>
<path fill-rule="evenodd" clip-rule="evenodd" d="M212.129 295.79C214.888 295.79 218.229 294.331 223.108 293.216C227.987 292.101 231.064 290.328 232.562 291.977C233.148 292.621 232.171 294.189 231.457 294.617C230.743 295.045 230.365 295.674 226.958 296.933C223.796 298.103 221.965 298.65 222.536 299.739C223.108 300.828 228.288 301.776 229.947 302.215C232.065 302.776 235.249 303.87 238.286 304.379C241.68 304.949 245.43 305.013 245.861 305.261C246.677 305.733 247.871 307.507 245.861 308.073C245.386 308.206 241.951 308.275 237.774 308.073C233.313 307.856 229.222 307.001 229.947 308.073C230.119 308.327 234.233 309.166 238.751 309.166C241.429 309.166 246.848 309.499 247.191 309.499C248.43 309.499 249.052 311.193 247.928 312.027C247.665 312.222 242.437 312.813 238.286 312.966C233.508 313.142 229.28 312.709 229.23 312.966C229.194 313.154 234.226 313.787 238.751 313.571C242.413 313.397 244.426 313.11 245.11 313.571C245.795 314.032 245.622 315.263 245.11 315.817C244.898 316.048 241.589 317.1 238.286 317.319C233.647 317.626 228.606 317.089 228.562 317.319C228.443 317.928 237.016 318.314 238.286 318.314C240.094 318.314 239.866 320.652 237.774 321.147C235.149 321.769 229.719 321.719 227.247 321.719C224.776 321.719 221.062 321.147 217.346 319.768C213.63 318.388 208.668 316.54 205.523 315.817C202.124 315.036 204.565 304.289 206.918 298.651C209.272 293.012 209.37 295.79 212.129 295.79Z" fill="url(#paint47_linear)"/>
<path fill-rule="evenodd" clip-rule="evenodd" d="M130.002 233.79C122.973 251.763 128.53 265.405 131.615 280.977C134.701 296.549 136.104 299.919 141.022 303.086C145.939 306.254 157.997 310.665 204.342 316.017C204.342 312.316 204.224 303.12 210.281 295.397C201.717 295.397 171.275 287.001 160.808 284.37C151.404 277.163 160.808 265.608 160.808 243.929C160.808 222.251 137.031 215.816 130.002 233.79Z" fill="url(#paint48_linear)"/>
<path fill-rule="evenodd" clip-rule="evenodd" d="M180.821 146.916L157.098 151.385V153.16L181.665 151.29L180.821 146.916Z" fill="#143B8C"/>
<path fill-rule="evenodd" clip-rule="evenodd" d="M187.136 156.203C184.397 156.491 181.806 153.23 181.354 148.927C180.902 144.623 182.758 140.895 185.497 140.607C188.236 140.319 190.827 143.58 191.279 147.883C191.731 152.187 189.875 155.915 187.136 156.203Z" fill="black" fill-opacity="0.01" stroke="#143B8C" stroke-width="4"/>
<path fill-rule="evenodd" clip-rule="evenodd" d="M200.364 148.536C197.886 148.796 195.542 145.846 195.133 141.952C194.723 138.058 196.403 134.686 198.881 134.425C201.359 134.165 203.703 137.115 204.112 141.009C204.522 144.903 202.842 148.275 200.364 148.536Z" fill="black" fill-opacity="0.01" stroke="#143B8C" stroke-width="4"/>
<path fill-rule="evenodd" clip-rule="evenodd" d="M190.78 146.381C190.78 145.295 193.845 143.166 195.382 144.238Z" fill="black" fill-opacity="0.01"/>
<path d="M190.78 146.381C190.78 145.295 193.845 143.166 195.382 144.238" stroke="#143B8C" stroke-width="4"/>
<path fill-rule="evenodd" clip-rule="evenodd" d="M158.346 130.654C164.913 135.732 180.195 137.221 190.596 132.315C200.998 127.409 203.536 107.322 190.596 101.141C185.674 98.7907 175.899 100.312 177.255 107.398C165.934 103.021 153.623 106.854 148.742 109.774C141.137 114.324 135.209 119.282 132.092 129.704C128.975 140.125 134.064 150.49 131.559 155.797C129.055 161.104 121.677 165.712 125.621 182.022C129.566 198.331 120.088 195.722 117.951 205.67C115.814 215.619 122.62 220.365 117.951 226.994C113.282 233.623 104.331 261.608 121.096 276.596C137.861 291.584 169.102 302.504 176.201 270.239C183.301 237.975 149.999 230.931 159.772 214.797C169.544 198.663 163.07 183.704 165.116 179.091C167.633 173.416 164.927 164.756 160.147 153.019C155.721 142.149 162.093 139.246 158.346 130.654Z" fill="url(#paint49_linear)"/>
<path fill-rule="evenodd" clip-rule="evenodd" d="M158.346 130.654C164.913 135.732 180.195 137.221 190.596 132.315C200.998 127.409 203.536 107.322 190.596 101.141C185.674 98.7907 175.899 100.312 177.255 107.398C165.934 103.021 153.623 106.854 148.742 109.774C141.137 114.324 135.209 119.282 132.092 129.704C128.975 140.125 134.064 150.49 131.559 155.797C129.055 161.104 121.677 165.712 125.621 182.022C129.566 198.331 120.088 195.722 117.951 205.67C115.814 215.619 122.62 220.365 117.951 226.994C113.282 233.623 104.331 261.608 121.096 276.596C137.861 291.584 169.102 302.504 176.201 270.239C183.301 237.975 149.999 230.931 159.772 214.797C169.544 198.663 163.07 183.704 165.116 179.091C167.633 173.416 164.927 164.756 160.147 153.019C155.721 142.149 162.093 139.246 158.346 130.654Z" fill="url(#paint50_linear)"/>
<path fill-rule="evenodd" clip-rule="evenodd" d="M216.669 358.246L279.901 347.382C314.803 369.192 331.907 380.168 331.213 380.308C330.227 380.507 260.405 392.716 255.688 393.982C256.13 392.855 243.12 380.94 216.669 358.246Z" fill="url(#paint51_linear)"/>
<path fill-rule="evenodd" clip-rule="evenodd" d="M254.211 341.373L320.291 336.927L356.618 368.667L274.292 374.346L254.211 341.373Z" fill="url(#paint52_linear)"/>
<g filter="url(#filter2_i)">
<path fill-rule="evenodd" clip-rule="evenodd" d="M416.411 346.123L476.424 322.227C477.643 321.742 478.238 320.36 477.752 319.141C477.5 318.507 476.988 318.013 476.346 317.783L399.932 290.395L324.55 309.026L416.411 346.123Z" fill="url(#paint53_linear)"/>
</g>
<g filter="url(#filter3_i)">
<path fill-rule="evenodd" clip-rule="evenodd" d="M311.189 231.421L395.863 258.821C398.355 259.628 400.203 261.735 400.679 264.31L415.829 346.422L324.075 309.201L307.528 234.752C307.186 233.215 308.155 231.692 309.692 231.35C310.189 231.24 310.705 231.264 311.189 231.421Z" fill="url(#paint54_linear)"/>
<path fill-rule="evenodd" clip-rule="evenodd" d="M311.189 231.421L395.863 258.821C398.355 259.628 400.203 261.735 400.679 264.31L415.829 346.422L324.075 309.201L307.528 234.752C307.186 233.215 308.155 231.692 309.692 231.35C310.189 231.24 310.705 231.264 311.189 231.421Z" fill="url(#paint55_linear)" fill-opacity="0.23"/>
</g>
<path fill-rule="evenodd" clip-rule="evenodd" d="M353.665 291.938C358.029 294.067 362.63 294.063 364.528 290.17C366.427 286.278 363.002 281.873 358.638 279.744C354.274 277.616 350.148 277.62 348.25 281.512C346.351 285.404 349.301 289.81 353.665 291.938Z" fill="#D6E3FA"/>
<path fill-rule="evenodd" clip-rule="evenodd" d="M324.868 53.4206C324.852 50.455 327.243 48.0377 330.209 48.0206L334.802 47.994C337.841 47.9764 340.299 50.463 340.247 53.5015V53.5015C340.195 56.4815 337.745 58.8595 334.765 58.8217L330.172 58.7634C327.243 58.7262 324.884 56.3496 324.868 53.4206V53.4206Z" stroke="#E5EFFD" stroke-width="5"/>
<path fill-rule="evenodd" clip-rule="evenodd" d="M350.024 53.4408C349.991 50.4494 352.407 48.0071 355.399 48.0083L358.648 48.0096C361.654 48.0108 364.081 50.4627 364.052 53.4679V53.4679C364.024 56.477 361.543 58.8833 358.535 58.8212L355.286 58.7541C352.385 58.6942 350.056 56.3422 350.024 53.4408V53.4408Z" stroke="#E5EFFD" stroke-width="5"/>
<path fill-rule="evenodd" clip-rule="evenodd" d="M340.232 52.7488H349.736Z" fill="black" fill-opacity="0.01"/>
<path d="M340.232 52.7488H349.736" stroke="#E5EFFD" stroke-width="4"/>
<path fill-rule="evenodd" clip-rule="evenodd" d="M314 44.6612L325.58 50.2862V55.7943L315.098 48.4808L314 44.6612Z" fill="#E5EFFD"/>
<path fill-rule="evenodd" clip-rule="evenodd" d="M196.849 163.88C197.316 163.64 197.169 164.703 197.372 165.328C197.575 165.952 197.713 166.05 197.78 166.457C195.845 167.454 192.476 167.651 190.22 166.316C189.769 166.049 189.374 165.83 189.748 165.462C190.123 165.094 190.589 165.325 191.092 165.474C192.849 165.993 195.643 164.501 196.849 163.88Z" fill="#1A418F"/>
<path opacity="0.7" fill-rule="evenodd" clip-rule="evenodd" d="M128.783 377.795C144.531 377.795 157.296 380.561 157.296 383.973C157.296 387.385 144.531 390.151 128.783 390.151C113.036 390.151 100.271 387.385 100.271 383.973C100.271 380.561 113.036 377.795 128.783 377.795Z" fill="url(#paint56_linear)"/>
<path fill-rule="evenodd" clip-rule="evenodd" d="M166.78 348.033C168.926 351.791 170.127 356.003 170.127 360.45C170.127 376.328 154.809 389.2 135.912 389.2C117.015 389.2 101.696 376.328 101.696 360.45C101.696 355.744 103.042 351.302 105.427 347.381C120.585 349.78 150.754 349.626 166.78 348.033Z" fill="url(#paint57_linear)"/>
<mask id="mask5" mask-type="alpha" maskUnits="userSpaceOnUse" x="101" y="347" width="70" height="43">
<path fill-rule="evenodd" clip-rule="evenodd" d="M166.78 348.033C168.926 351.791 170.127 356.003 170.127 360.45C170.127 376.328 154.809 389.2 135.912 389.2C117.015 389.2 101.696 376.328 101.696 360.45C101.696 355.744 103.042 351.302 105.427 347.381C120.585 349.78 150.754 349.626 166.78 348.033Z" fill="white"/>
</mask>
<g mask="url(#mask5)">
</g>
<path fill-rule="evenodd" clip-rule="evenodd" d="M136.149 341.679C153.34 341.679 167.276 344.977 167.276 349.045C167.276 353.113 153.34 356.41 136.149 356.41C118.958 356.41 105.023 353.113 105.023 349.045C105.023 344.977 118.958 341.679 136.149 341.679Z" fill="url(#paint58_linear)"/>
<mask id="mask6" mask-type="alpha" maskUnits="userSpaceOnUse" x="105" y="341" width="63" height="16">
<path fill-rule="evenodd" clip-rule="evenodd" d="M136.149 341.679C153.34 341.679 167.276 344.977 167.276 349.045C167.276 353.113 153.34 356.41 136.149 356.41C118.958 356.41 105.023 353.113 105.023 349.045C105.023 344.977 118.958 341.679 136.149 341.679Z" fill="white"/>
</mask>
<g mask="url(#mask6)">
</g>
<g filter="url(#filter4_i)">
<path fill-rule="evenodd" clip-rule="evenodd" d="M133.535 343.58C131.835 331.816 127.159 314.83 113.101 296.534C104.82 285.756 104.793 259.51 103.597 256.616C110.095 258.85 121.768 264.61 133.535 280.852C145.87 297.877 138.045 332.598 133.535 343.58Z" fill="url(#paint59_linear)"/>
</g>
<mask id="mask7" mask-type="alpha" maskUnits="userSpaceOnUse" x="103" y="256" width="38" height="88">
<path fill-rule="evenodd" clip-rule="evenodd" d="M133.535 343.58C131.835 331.816 127.159 314.83 113.101 296.534C104.82 285.756 104.793 259.51 103.597 256.616C110.095 258.85 121.768 264.61 133.535 280.852C145.87 297.877 138.045 332.598 133.535 343.58Z" fill="white"/>
</mask>
<g mask="url(#mask7)">
<g style="mix-blend-mode:multiply" opacity="0.5">
<mask id="path-81-inside-1" fill="white">
<path fill-rule="evenodd" clip-rule="evenodd" d="M133.06 343.58C134.357 314.985 130.797 296.938 119.604 279.901Z"/>
</mask>
<path fill-rule="evenodd" clip-rule="evenodd" d="M133.06 343.58C134.357 314.985 130.797 296.938 119.604 279.901Z" fill="black" fill-opacity="0.01"/>
<path d="M136.057 343.716C137.37 314.778 133.782 296.018 122.111 278.254L117.096 281.548C127.812 297.858 131.345 315.192 130.063 343.444L136.057 343.716Z" fill="#489C71" mask="url(#path-81-inside-1)"/>
</g>
</g>
<g filter="url(#filter5_i)">
<path fill-rule="evenodd" clip-rule="evenodd" d="M133.588 355.654C128.336 347.254 119.058 335.871 102.18 326.641C92.2376 321.204 83.394 301.198 81.5084 299.392C87.2181 298.913 98.062 299.384 112.501 307.817C127.637 316.656 133.338 345.764 133.588 355.654Z" fill="url(#paint60_linear)"/>
</g>
<mask id="mask8" mask-type="alpha" maskUnits="userSpaceOnUse" x="81" y="299" width="53" height="57">
<path fill-rule="evenodd" clip-rule="evenodd" d="M133.588 355.654C128.336 347.254 119.058 335.871 102.18 326.641C92.2376 321.204 83.394 301.198 81.5084 299.392C87.2181 298.913 98.062 299.384 112.501 307.817C127.637 316.656 133.338 345.764 133.588 355.654Z" fill="white"/>
</mask>
<g mask="url(#mask8)">
<g style="mix-blend-mode:multiply" opacity="0.5">
<mask id="path-85-inside-2" fill="white">
<path fill-rule="evenodd" clip-rule="evenodd" d="M133.225 355.814C124.603 333.571 115.819 321.004 101.55 311.772Z"/>
</mask>
<path fill-rule="evenodd" clip-rule="evenodd" d="M133.225 355.814C124.603 333.571 115.819 321.004 101.55 311.772Z" fill="black" fill-opacity="0.01"/>
<path d="M136.022 354.729C127.276 332.167 118.179 318.958 103.18 309.254L99.9208 314.291C113.459 323.051 121.929 334.975 130.428 356.898L136.022 354.729Z" fill="#489C71" mask="url(#path-85-inside-2)"/>
</g>
</g>
<g filter="url(#filter6_i)">
<path fill-rule="evenodd" clip-rule="evenodd" d="M137.359 356.805C141.5 347.764 149.265 335.233 164.878 323.866C174.076 317.17 180.288 296.109 181.932 294.068C176.183 294.327 165.443 296.194 152.155 306.453C138.226 317.207 136.325 346.925 137.359 356.805Z" fill="url(#paint61_linear)"/>
</g>
<mask id="mask9" mask-type="alpha" maskUnits="userSpaceOnUse" x="137" y="294" width="45" height="63">
<path fill-rule="evenodd" clip-rule="evenodd" d="M137.359 356.805C141.5 347.764 149.265 335.233 164.878 323.866C174.076 317.17 180.288 296.109 181.932 294.068C176.183 294.327 165.443 296.194 152.155 306.453C138.226 317.207 136.325 346.925 137.359 356.805Z" fill="white"/>
</mask>
<g mask="url(#mask9)">
<g style="mix-blend-mode:multiply" opacity="0.5">
<mask id="path-89-inside-3" fill="white">
<path fill-rule="evenodd" clip-rule="evenodd" d="M136.155 356.786C141.857 333.526 148.975 319.881 161.99 308.848Z"/>
</mask>
<path fill-rule="evenodd" clip-rule="evenodd" d="M136.155 356.786C141.857 333.526 148.975 319.881 161.99 308.848Z" fill="black" fill-opacity="0.01"/>
<path d="M139.069 357.5C144.689 334.574 151.579 321.606 163.93 311.136L160.05 306.559C146.371 318.155 139.025 332.478 133.241 356.071L139.069 357.5Z" fill="#489C71" mask="url(#path-89-inside-3)"/>
</g>
</g>
<defs>
<filter id="filter0_i" x="383.017" y="215.568" width="145.623" height="111.858" filterUnits="userSpaceOnUse" color-interpolation-filters="sRGB">
<feFlood flood-opacity="0" result="BackgroundImageFix"/>
<feBlend mode="normal" in="SourceGraphic" in2="BackgroundImageFix" result="shape"/>
<feColorMatrix in="SourceAlpha" type="matrix" values="0 0 0 0 0 0 0 0 0 0 0 0 0 0 0 0 0 0 127 0" result="hardAlpha"/>
<feOffset dx="-12" dy="1"/>
<feGaussianBlur stdDeviation="13.5"/>
<feComposite in2="hardAlpha" operator="arithmetic" k2="-1" k3="1"/>
<feColorMatrix type="matrix" values="0 0 0 0 0.0901961 0 0 0 0 0.254902 0 0 0 0 0.572549 0 0 0 0.204201 0"/>
<feBlend mode="normal" in2="shape" result="effect1_innerShadow"/>
</filter>
<filter id="filter1_i" x="247.165" y="90.2908" width="205.614" height="161.722" filterUnits="userSpaceOnUse" color-interpolation-filters="sRGB">
<feFlood flood-opacity="0" result="BackgroundImageFix"/>
<feBlend mode="normal" in="SourceGraphic" in2="BackgroundImageFix" result="shape"/>
<feColorMatrix in="SourceAlpha" type="matrix" values="0 0 0 0 0 0 0 0 0 0 0 0 0 0 0 0 0 0 127 0" result="hardAlpha"/>
<feOffset dx="8" dy="3"/>
<feGaussianBlur stdDeviation="11.5"/>
<feComposite in2="hardAlpha" operator="arithmetic" k2="-1" k3="1"/>
<feColorMatrix type="matrix" values="0 0 0 0 0.729412 0 0 0 0 0.8 0 0 0 0 0.933333 0 0 0 1 0"/>
<feBlend mode="normal" in2="shape" result="effect1_innerShadow"/>
</filter>
<filter id="filter2_i" x="307.55" y="283.396" width="170.372" height="62.728" filterUnits="userSpaceOnUse" color-interpolation-filters="sRGB">
<feFlood flood-opacity="0" result="BackgroundImageFix"/>
<feBlend mode="normal" in="SourceGraphic" in2="BackgroundImageFix" result="shape"/>
<feColorMatrix in="SourceAlpha" type="matrix" values="0 0 0 0 0 0 0 0 0 0 0 0 0 0 0 0 0 0 127 0" result="hardAlpha"/>
<feOffset dx="-17" dy="-7"/>
<feGaussianBlur stdDeviation="12"/>
<feComposite in2="hardAlpha" operator="arithmetic" k2="-1" k3="1"/>
<feColorMatrix type="matrix" values="0 0 0 0 0.239216 0 0 0 0 0.509804 0 0 0 0 0.941176 0 0 0 0.775419 0"/>
<feBlend mode="normal" in2="shape" result="effect1_innerShadow"/>
</filter>
<filter id="filter3_i" x="301.459" y="231.282" width="114.37" height="117.14" filterUnits="userSpaceOnUse" color-interpolation-filters="sRGB">
<feFlood flood-opacity="0" result="BackgroundImageFix"/>
<feBlend mode="normal" in="SourceGraphic" in2="BackgroundImageFix" result="shape"/>
<feColorMatrix in="SourceAlpha" type="matrix" values="0 0 0 0 0 0 0 0 0 0 0 0 0 0 0 0 0 0 127 0" result="hardAlpha"/>
<feOffset dx="-6" dy="2"/>
<feGaussianBlur stdDeviation="6"/>
<feComposite in2="hardAlpha" operator="arithmetic" k2="-1" k3="1"/>
<feColorMatrix type="matrix" values="0 0 0 0 1 0 0 0 0 1 0 0 0 0 1 0 0 0 0.5 0"/>
<feBlend mode="normal" in2="shape" result="effect1_innerShadow"/>
</filter>
<filter id="filter4_i" x="103.597" y="246.615" width="36.5662" height="96.9642" filterUnits="userSpaceOnUse" color-interpolation-filters="sRGB">
<feFlood flood-opacity="0" result="BackgroundImageFix"/>
<feBlend mode="normal" in="SourceGraphic" in2="BackgroundImageFix" result="shape"/>
<feColorMatrix in="SourceAlpha" type="matrix" values="0 0 0 0 0 0 0 0 0 0 0 0 0 0 0 0 0 0 127 0" result="hardAlpha"/>
<feOffset dy="-10"/>
<feGaussianBlur stdDeviation="11"/>
<feComposite in2="hardAlpha" operator="arithmetic" k2="-1" k3="1"/>
<feColorMatrix type="matrix" values="0 0 0 0 0.221483 0 0 0 0 0.77854 0 0 0 0 0.610041 0 0 0 1 0"/>
<feBlend mode="normal" in2="shape" result="effect1_innerShadow"/>
</filter>
<filter id="filter5_i" x="81.5083" y="289.264" width="52.0795" height="66.3899" filterUnits="userSpaceOnUse" color-interpolation-filters="sRGB">
<feFlood flood-opacity="0" result="BackgroundImageFix"/>
<feBlend mode="normal" in="SourceGraphic" in2="BackgroundImageFix" result="shape"/>
<feColorMatrix in="SourceAlpha" type="matrix" values="0 0 0 0 0 0 0 0 0 0 0 0 0 0 0 0 0 0 127 0" result="hardAlpha"/>
<feOffset dy="-10"/>
<feGaussianBlur stdDeviation="11"/>
<feComposite in2="hardAlpha" operator="arithmetic" k2="-1" k3="1"/>
<feColorMatrix type="matrix" values="0 0 0 0 0.221483 0 0 0 0 0.77854 0 0 0 0 0.610041 0 0 0 1 0"/>
<feBlend mode="normal" in2="shape" result="effect1_innerShadow"/>
</filter>
<filter id="filter6_i" x="137.122" y="284.068" width="44.8101" height="72.7374" filterUnits="userSpaceOnUse" color-interpolation-filters="sRGB">
<feFlood flood-opacity="0" result="BackgroundImageFix"/>
<feBlend mode="normal" in="SourceGraphic" in2="BackgroundImageFix" result="shape"/>
<feColorMatrix in="SourceAlpha" type="matrix" values="0 0 0 0 0 0 0 0 0 0 0 0 0 0 0 0 0 0 127 0" result="hardAlpha"/>
<feOffset dy="-10"/>
<feGaussianBlur stdDeviation="11"/>
<feComposite in2="hardAlpha" operator="arithmetic" k2="-1" k3="1"/>
<feColorMatrix type="matrix" values="0 0 0 0 0.221483 0 0 0 0 0.77854 0 0 0 0 0.610041 0 0 0 1 0"/>
<feBlend mode="normal" in2="shape" result="effect1_innerShadow"/>
</filter>
<linearGradient id="paint0_linear" x1="438.668" y1="189.507" x2="438.668" y2="26.8704" gradientUnits="userSpaceOnUse">
<stop stop-color="#ECF2FC" stop-opacity="0.642323"/>
<stop offset="1" stop-color="#D4E1F8"/>
</linearGradient>
<linearGradient id="paint1_linear" x1="265.33" y1="187.998" x2="211.464" y2="258.432" gradientUnits="userSpaceOnUse">
<stop stop-color="#CFDDF3"/>
<stop offset="1" stop-color="#A1B8E3"/>
</linearGradient>
<linearGradient id="paint2_linear" x1="253.527" y1="263.466" x2="272.426" y2="294.92" gradientUnits="userSpaceOnUse">
<stop stop-color="#CFDDF3"/>
<stop offset="1" stop-color="#A1B8E3"/>
</linearGradient>
<linearGradient id="paint3_linear" x1="254.012" y1="238.816" x2="265.326" y2="257.645" gradientUnits="userSpaceOnUse">
<stop stop-color="#CFDDF3"/>
<stop offset="1" stop-color="#A1B8E3"/>
</linearGradient>
<linearGradient id="paint4_linear" x1="242.676" y1="201.231" x2="324.489" y2="337.392" gradientUnits="userSpaceOnUse">
<stop stop-color="#CFDDF3"/>
<stop offset="1" stop-color="#A1B8E3"/>
</linearGradient>
<linearGradient id="paint5_linear" x1="373.854" y1="215.409" x2="375.795" y2="326.584" gradientUnits="userSpaceOnUse">
<stop stop-color="#CFDDF3"/>
<stop offset="1" stop-color="#A1B8E3"/>
</linearGradient>
<linearGradient id="paint6_linear" x1="372.998" y1="151.861" x2="351.736" y2="172.506" gradientUnits="userSpaceOnUse">
<stop stop-color="#CFDDF3"/>
<stop offset="1" stop-color="#A1B8E3"/>
</linearGradient>
<linearGradient id="paint7_linear" x1="484.459" y1="235.686" x2="476.212" y2="207.22" gradientUnits="userSpaceOnUse">
<stop stop-color="#CFDDF3"/>
<stop offset="1" stop-color="#A1B8E3"/>
</linearGradient>
<linearGradient id="paint8_linear" x1="473.954" y1="264.332" x2="467.209" y2="235.474" gradientUnits="userSpaceOnUse">
<stop stop-color="#CFDDF3"/>
<stop offset="1" stop-color="#A1B8E3"/>
</linearGradient>
<linearGradient id="paint9_linear" x1="465.931" y1="289.066" x2="459.185" y2="260.208" gradientUnits="userSpaceOnUse">
<stop stop-color="#CFDDF3"/>
<stop offset="1" stop-color="#A1B8E3"/>
</linearGradient>
<linearGradient id="paint10_linear" x1="464.571" y1="152.742" x2="436.523" y2="143.17" gradientUnits="userSpaceOnUse">
<stop stop-color="#CFDDF3"/>
<stop offset="1" stop-color="#A1B8E3"/>
</linearGradient>
<linearGradient id="paint11_linear" x1="349.109" y1="183.733" x2="332.177" y2="208.056" gradientUnits="userSpaceOnUse">
<stop stop-color="#CFDDF3"/>
<stop offset="1" stop-color="#A1B8E3"/>
</linearGradient>
<linearGradient id="paint12_linear" x1="333.903" y1="214.253" x2="319.606" y2="240.212" gradientUnits="userSpaceOnUse">
<stop stop-color="#CFDDF3"/>
<stop offset="1" stop-color="#A1B8E3"/>
</linearGradient>
<linearGradient id="paint13_linear" x1="266.342" y1="-6.33232" x2="178.395" y2="106.076" gradientUnits="userSpaceOnUse">
<stop stop-color="#D2E0F9" stop-opacity="0.01"/>
<stop offset="1" stop-color="#B1C6E7" stop-opacity="0.464589"/>
</linearGradient>
<linearGradient id="paint14_linear" x1="258.287" y1="35.3734" x2="188.919" y2="124.035" gradientUnits="userSpaceOnUse">
<stop stop-color="#D2E0F9" stop-opacity="0.01"/>
<stop offset="1" stop-color="#B1C6E7" stop-opacity="0.464589"/>
</linearGradient>
<linearGradient id="paint15_linear" x1="433.142" y1="35.9618" x2="345.195" y2="148.37" gradientUnits="userSpaceOnUse">
<stop stop-color="#D2E0F9" stop-opacity="0.01"/>
<stop offset="1" stop-color="#B1C6E7" stop-opacity="0.464589"/>
</linearGradient>
<linearGradient id="paint16_linear" x1="425.087" y1="77.6675" x2="355.72" y2="166.329" gradientUnits="userSpaceOnUse">
<stop stop-color="#D2E0F9" stop-opacity="0.01"/>
<stop offset="1" stop-color="#B1C6E7" stop-opacity="0.464589"/>
</linearGradient>
<linearGradient id="paint17_linear" x1="491.927" y1="274.42" x2="552.657" y2="256.324" gradientUnits="userSpaceOnUse">
<stop stop-color="#7FA0D4"/>
<stop offset="1" stop-color="#D6E3FA"/>
</linearGradient>
<linearGradient id="paint18_linear" x1="478.79" y1="176.62" x2="452.424" y2="197.339" gradientUnits="userSpaceOnUse">
<stop stop-color="#5D6FAA"/>
<stop offset="1" stop-color="#90AADB"/>
</linearGradient>
<linearGradient id="paint19_linear" x1="472.282" y1="179.777" x2="472.282" y2="226.626" gradientUnits="userSpaceOnUse">
<stop stop-color="#CFDDF3"/>
<stop offset="1" stop-color="#A1B8E3" stop-opacity="0.01"/>
</linearGradient>
<radialGradient id="paint20_radial" cx="0" cy="0" r="1" gradientUnits="userSpaceOnUse" gradientTransform="translate(453.112 169.37) rotate(23.4052) scale(24.6347 33.1033)">
<stop stop-color="#E1EDFF"/>
<stop offset="1" stop-color="#A1B8E3"/>
</radialGradient>
<linearGradient id="paint21_linear" x1="435.046" y1="122.9" x2="447.408" y2="165.57" gradientUnits="userSpaceOnUse">
<stop stop-color="#2D6DC0"/>
<stop offset="1" stop-color="#143B8C"/>
</linearGradient>
<linearGradient id="paint22_linear" x1="471.122" y1="160.702" x2="480.383" y2="204.186" gradientUnits="userSpaceOnUse">
<stop stop-color="#174293" stop-opacity="0.01"/>
<stop offset="1" stop-color="#051E4B"/>
</linearGradient>
<linearGradient id="paint23_linear" x1="422.082" y1="194.753" x2="440.786" y2="226.195" gradientUnits="userSpaceOnUse">
<stop stop-color="#2D6DC0"/>
<stop offset="1" stop-color="#143B8C"/>
</linearGradient>
<linearGradient id="paint24_linear" x1="431.566" y1="276.975" x2="424.66" y2="302.325" gradientUnits="userSpaceOnUse">
<stop stop-color="#2E7DE7" stop-opacity="0.01"/>
<stop offset="1" stop-color="#00357E" stop-opacity="0.5"/>
</linearGradient>
<linearGradient id="paint25_linear" x1="496.331" y1="232.337" x2="496.331" y2="205.086" gradientUnits="userSpaceOnUse">
<stop stop-color="#70B8F9" stop-opacity="0.275872"/>
<stop offset="1" stop-color="#3D82F0"/>
</linearGradient>
<linearGradient id="paint26_linear" x1="466.871" y1="302.289" x2="495.341" y2="316.948" gradientUnits="userSpaceOnUse">
<stop stop-color="#3D82F0" stop-opacity="0.01"/>
<stop offset="1" stop-color="#3D82F0"/>
</linearGradient>
<linearGradient id="paint27_linear" x1="399.424" y1="283.437" x2="433.304" y2="298.998" gradientUnits="userSpaceOnUse">
<stop stop-color="#3D82F0" stop-opacity="0.01"/>
<stop offset="1" stop-color="#3D82F0"/>
</linearGradient>
<linearGradient id="paint28_linear" x1="300.443" y1="83.299" x2="337.714" y2="100.055" gradientUnits="userSpaceOnUse">
<stop stop-color="#00224E"/>
<stop offset="1" stop-color="#113275"/>
</linearGradient>
<radialGradient id="paint29_radial" cx="0" cy="0" r="1" gradientUnits="userSpaceOnUse" gradientTransform="translate(358.787 73.1888) rotate(-74.4773) scale(39.0931 31.7409)">
<stop stop-color="#2D6DC0"/>
<stop offset="1" stop-color="#143B8C"/>
</radialGradient>
<linearGradient id="paint30_linear" x1="353.54" y1="-6.16304" x2="323.15" y2="36.543" gradientUnits="userSpaceOnUse">
<stop stop-color="#CFDDF3"/>
<stop offset="1" stop-color="#A1B8E3"/>
</linearGradient>
<linearGradient id="paint31_linear" x1="407.568" y1="78.8449" x2="324.443" y2="119.028" gradientUnits="userSpaceOnUse">
<stop stop-color="#EDF3FD"/>
<stop offset="1" stop-color="#D6E3FA"/>
</linearGradient>
<linearGradient id="paint32_linear" x1="282.327" y1="299.069" x2="333.559" y2="285.563" gradientUnits="userSpaceOnUse">
<stop stop-color="#EAF0F7" stop-opacity="0.115546"/>
<stop offset="1" stop-color="#D1DDED"/>
</linearGradient>
<linearGradient id="paint33_linear" x1="346.476" y1="73.8799" x2="266.2" y2="85.2247" gradientUnits="userSpaceOnUse">
<stop stop-color="#EAF0F7" stop-opacity="0.115546"/>
<stop offset="1" stop-color="#D1DDED"/>
</linearGradient>
<linearGradient id="paint34_linear" x1="316.335" y1="96.591" x2="325.238" y2="96.591" gradientUnits="userSpaceOnUse">
<stop stop-color="#B1C6E7"/>
<stop offset="1" stop-color="#E5EFFD"/>
</linearGradient>
<linearGradient id="paint35_linear" x1="147.866" y1="212.929" x2="99.9899" y2="203.233" gradientUnits="userSpaceOnUse">
<stop stop-color="#7FA0D4"/>
<stop offset="1" stop-color="#D6E3FA"/>
</linearGradient>
<linearGradient id="paint36_linear" x1="242.272" y1="302.117" x2="284.596" y2="278.292" gradientUnits="userSpaceOnUse">
<stop stop-color="#002D65"/>
<stop offset="0.87783" stop-color="#3A74C6"/>
<stop offset="1" stop-color="#3062AA"/>
</linearGradient>
<radialGradient id="paint37_radial" cx="0" cy="0" r="1" gradientUnits="userSpaceOnUse" gradientTransform="translate(224.301 241.646) rotate(-173.25) scale(53.7361 77.6229)">
<stop stop-color="#2D6DC0"/>
<stop offset="1" stop-color="#143B8C"/>
</radialGradient>
<linearGradient id="paint38_linear" x1="-44.9163" y1="342.585" x2="-39.6027" y2="402.04" gradientUnits="userSpaceOnUse">
<stop stop-color="#EAEFFF"/>
<stop offset="1" stop-color="#F7F9FE"/>
</linearGradient>
<linearGradient id="paint39_linear" x1="251.96" y1="305.479" x2="250.186" y2="349.834" gradientUnits="userSpaceOnUse">
<stop stop-color="#0041B2"/>
<stop offset="1" stop-color="#2D64D7" stop-opacity="0.01"/>
</linearGradient>
<linearGradient id="paint40_linear" x1="158.722" y1="161.098" x2="158.722" y2="199.59" gradientUnits="userSpaceOnUse">
<stop stop-color="#4376C9"/>
<stop offset="1" stop-color="#D6E3FA"/>
</linearGradient>
<linearGradient id="paint41_linear" x1="163.889" y1="196.679" x2="180.043" y2="196.679" gradientUnits="userSpaceOnUse">
<stop stop-color="#133B8B"/>
<stop offset="1" stop-color="#A9BFE7" stop-opacity="0.01"/>
<stop offset="1" stop-color="#A9BFE7" stop-opacity="0.01"/>
</linearGradient>
<linearGradient id="paint42_linear" x1="157.683" y1="169.571" x2="157.683" y2="199.394" gradientUnits="userSpaceOnUse">
<stop stop-color="#699DF3"/>
<stop offset="1" stop-color="#8597B5" stop-opacity="0.01"/>
</linearGradient>
<linearGradient id="paint43_linear" x1="149.171" y1="174.385" x2="184.353" y2="178.374" gradientUnits="userSpaceOnUse">
<stop stop-color="#7798F6"/>
<stop offset="1" stop-color="#E5EFFD"/>
</linearGradient>
<linearGradient id="paint44_linear" x1="248.838" y1="336.925" x2="281.916" y2="282.95" gradientUnits="userSpaceOnUse">
<stop stop-color="#FF7F31"/>
<stop offset="1" stop-color="#FFD25F"/>
</linearGradient>
<linearGradient id="paint45_linear" x1="313.868" y1="256.794" x2="298.985" y2="258.805" gradientUnits="userSpaceOnUse">
<stop stop-color="#FF7F31"/>
<stop offset="1" stop-color="#FFC83A" stop-opacity="0.01"/>
</linearGradient>
<linearGradient id="paint46_linear" x1="241.385" y1="330.924" x2="262.119" y2="316.492" gradientUnits="userSpaceOnUse">
<stop stop-color="#FF7F31"/>
<stop offset="1" stop-color="#FFC83A" stop-opacity="0.01"/>
</linearGradient>
<linearGradient id="paint47_linear" x1="207.58" y1="290.557" x2="200.079" y2="312.334" gradientUnits="userSpaceOnUse">
<stop stop-color="#ECF2FB"/>
<stop offset="1" stop-color="#D5E1F5"/>
</linearGradient>
<linearGradient id="paint48_linear" x1="186.404" y1="263.942" x2="159.354" y2="284.566" gradientUnits="userSpaceOnUse">
<stop stop-color="#3D82F0"/>
<stop offset="1" stop-color="#143B8C"/>
</linearGradient>
<linearGradient id="paint49_linear" x1="224.314" y1="103.46" x2="111.778" y2="105.373" gradientUnits="userSpaceOnUse">
<stop stop-color="#70B8F9"/>
<stop offset="1" stop-color="#0457DC"/>
</linearGradient>
<linearGradient id="paint50_linear" x1="164.01" y1="186.386" x2="107.626" y2="203.295" gradientUnits="userSpaceOnUse">
<stop stop-color="#3D82F0" stop-opacity="0.01"/>
<stop offset="1" stop-color="#0049BD"/>
</linearGradient>
<linearGradient id="paint51_linear" x1="216.669" y1="347.382" x2="216.669" y2="393.982" gradientUnits="userSpaceOnUse">
<stop stop-color="#B2C7E8"/>
<stop offset="1" stop-color="#D6E3FA"/>
</linearGradient>
<linearGradient id="paint52_linear" x1="254.211" y1="336.927" x2="254.211" y2="374.346" gradientUnits="userSpaceOnUse">
<stop stop-color="#C6D6EE"/>
<stop offset="1" stop-color="#E5EFFD"/>
</linearGradient>
<linearGradient id="paint53_linear" x1="385.739" y1="309.463" x2="425.152" y2="309.463" gradientUnits="userSpaceOnUse">
<stop stop-color="#002B64"/>
<stop offset="1" stop-color="#0F3177"/>
</linearGradient>
<linearGradient id="paint54_linear" x1="373.685" y1="223.327" x2="297.75" y2="272.817" gradientUnits="userSpaceOnUse">
<stop stop-color="#DBE9FF"/>
<stop offset="0.440948" stop-color="#A7BDE4"/>
<stop offset="1" stop-color="#5876AF"/>
</linearGradient>
<linearGradient id="paint55_linear" x1="374.546" y1="313.747" x2="369.216" y2="326.268" gradientUnits="userSpaceOnUse">
<stop stop-color="#869FCE" stop-opacity="0.01"/>
<stop offset="1" stop-color="#4975C1"/>
</linearGradient>
<linearGradient id="paint56_linear" x1="158.247" y1="377.32" x2="99.7954" y2="377.32" gradientUnits="userSpaceOnUse">
<stop stop-color="#D9E5F6" stop-opacity="0.712636"/>
<stop offset="1" stop-color="#B2C6EA"/>
</linearGradient>
<linearGradient id="paint57_linear" x1="159.418" y1="406.275" x2="168.985" y2="369.725" gradientUnits="userSpaceOnUse">
<stop stop-color="#ACC5E9"/>
<stop offset="0.627469" stop-color="#D3E3FB"/>
<stop offset="1" stop-color="#EAF2FF"/>
</linearGradient>
<linearGradient id="paint58_linear" x1="106.927" y1="338.277" x2="105.408" y2="362.619" gradientUnits="userSpaceOnUse">
<stop stop-color="#86A8D9"/>
<stop offset="1" stop-color="#BCD0F2"/>
</linearGradient>
<linearGradient id="paint59_linear" x1="97.3934" y1="280.206" x2="148.468" y2="333.685" gradientUnits="userSpaceOnUse">
<stop stop-color="#B1FFBE"/>
<stop offset="0.444207" stop-color="#5CDB8E"/>
<stop offset="1" stop-color="#149654"/>
</linearGradient>
<linearGradient id="paint60_linear" x1="96.6505" y1="296.451" x2="103.994" y2="353.202" gradientUnits="userSpaceOnUse">
<stop stop-color="#B1FFBE"/>
<stop offset="0.444207" stop-color="#5CDB8E"/>
<stop offset="1" stop-color="#149654"/>
</linearGradient>
<linearGradient id="paint61_linear" x1="129.204" y1="310.674" x2="162.839" y2="363.463" gradientUnits="userSpaceOnUse">
<stop stop-color="#B1FFBE"/>
<stop offset="0.444207" stop-color="#5CDB8E"/>
<stop offset="1" stop-color="#149654"/>
</linearGradient>
</defs>
</svg>
